M48
; DRILL file {KiCad 8.0.9} date 2025-06-24T22:54:26+0900
; FORMAT={-:-/ absolute / metric / decimal}
; #@! TF.CreationDate,2025-06-24T22:54:26+09:00
; #@! TF.GenerationSoftware,Kicad,Pcbnew,8.0.9
; #@! TF.FileFunction,Plated,1,2,PTH
FMAT,2
METRIC
; #@! TA.AperFunction,Plated,PTH,ComponentDrill
T1C0.864
; #@! TA.AperFunction,Plated,PTH,ComponentDrill
T2C0.889
; #@! TA.AperFunction,Plated,PTH,ComponentDrill
T3C3.302
%
G90
G05
T1
X130.26Y-115.5
X130.26Y-119.31
X131.53Y-117.405
X131.53Y-121.215
X132.8Y-115.5
X132.8Y-119.31
X134.07Y-117.405
X134.07Y-121.215
X135.34Y-115.5
X135.34Y-119.31
X136.61Y-117.405
X136.61Y-121.215
X137.88Y-115.5
X137.88Y-119.31
X139.15Y-117.405
X139.15Y-121.215
X140.42Y-115.5
X140.42Y-119.31
X141.69Y-117.405
X141.69Y-121.215
X142.96Y-115.5
X142.96Y-119.31
X144.23Y-117.405
X144.23Y-121.215
X145.5Y-115.5
X145.5Y-119.31
X146.77Y-117.405
X146.77Y-121.215
X148.04Y-115.5
X148.04Y-119.31
X149.31Y-117.405
X149.31Y-121.215
X150.58Y-115.5
X150.58Y-119.31
X151.85Y-117.405
X151.85Y-121.215
X153.12Y-115.5
X153.12Y-119.31
X154.39Y-117.405
X154.39Y-121.215
X155.66Y-115.5
X155.66Y-119.31
X156.93Y-117.405
X156.93Y-121.215
X158.2Y-115.5
X158.2Y-119.31
X159.47Y-117.405
X159.47Y-121.215
X160.74Y-115.5
X160.74Y-119.31
T2
X129.06Y-97.54
X130.43Y-95.0
X131.8Y-97.54
X133.17Y-95.0
X134.54Y-97.54
X135.91Y-95.0
X137.28Y-97.54
X138.65Y-95.0
X140.02Y-97.54
X141.39Y-95.0
X142.76Y-97.54
X144.13Y-95.0
X145.5Y-97.54
X146.87Y-95.0
X148.24Y-97.54
X149.61Y-95.0
X150.98Y-97.54
X152.35Y-95.0
X153.72Y-97.54
X155.09Y-95.0
X156.46Y-97.54
X157.83Y-95.0
X159.2Y-97.54
X160.57Y-95.0
X161.94Y-97.54
T3
X122.005Y-96.27
X122.259Y-119.208
X168.741Y-119.208
X168.995Y-96.27
M30
