G04 #@! TF.GenerationSoftware,KiCad,Pcbnew,8.0.9*
G04 #@! TF.CreationDate,2025-06-24T22:52:29+09:00*
G04 #@! TF.ProjectId,scsi_d25p50k_adapter,73637369-5f64-4323-9570-35306b5f6164,rev?*
G04 #@! TF.SameCoordinates,Original*
G04 #@! TF.FileFunction,Copper,L2,Bot*
G04 #@! TF.FilePolarity,Positive*
%FSLAX46Y46*%
G04 Gerber Fmt 4.6, Leading zero omitted, Abs format (unit mm)*
G04 Created by KiCad (PCBNEW 8.0.9) date 2025-06-24 22:52:29*
%MOMM*%
%LPD*%
G01*
G04 APERTURE LIST*
G04 #@! TA.AperFunction,ComponentPad*
%ADD10C,1.371600*%
G04 #@! TD*
G04 #@! TA.AperFunction,ComponentPad*
%ADD11C,3.810000*%
G04 #@! TD*
G04 #@! TA.AperFunction,ComponentPad*
%ADD12C,1.397000*%
G04 #@! TD*
G04 #@! TA.AperFunction,Conductor*
%ADD13C,0.200000*%
G04 #@! TD*
G04 APERTURE END LIST*
D10*
X130260000Y-115500000D03*
X131530000Y-117405000D03*
X132800000Y-115500000D03*
X134070000Y-117405000D03*
X135340000Y-115500000D03*
X136610000Y-117405000D03*
X137880000Y-115500000D03*
X139150000Y-117405000D03*
X140420000Y-115500000D03*
X141690000Y-117405000D03*
X142960000Y-115500000D03*
X144230000Y-117405000D03*
X145500000Y-115500000D03*
X146770000Y-117405000D03*
X148040000Y-115500000D03*
X149310000Y-117405000D03*
X150580000Y-115500000D03*
X151850000Y-117405000D03*
X153120000Y-115500000D03*
X154390000Y-117405000D03*
X155660000Y-115500000D03*
X156930000Y-117405000D03*
X158200000Y-115500000D03*
X159470000Y-117405000D03*
X160740000Y-115500000D03*
X130260000Y-119310000D03*
X131530000Y-121215000D03*
X132800000Y-119310000D03*
X134070000Y-121215000D03*
X135340000Y-119310000D03*
X136610000Y-121215000D03*
X137880000Y-119310000D03*
X139150000Y-121215000D03*
X140420000Y-119310000D03*
X141690000Y-121215000D03*
X142960000Y-119310000D03*
X144230000Y-121215000D03*
X145500000Y-119310000D03*
X146770000Y-121215000D03*
X148040000Y-119310000D03*
X149310000Y-121215000D03*
X150580000Y-119310000D03*
X151850000Y-121215000D03*
X153120000Y-119310000D03*
X154390000Y-121215000D03*
X155660000Y-119310000D03*
X156930000Y-121215000D03*
X158200000Y-119310000D03*
X159470000Y-121215000D03*
X160740000Y-119310000D03*
D11*
X168741000Y-119208400D03*
X122259000Y-119208400D03*
D12*
X129060002Y-97540000D03*
X131800002Y-97540000D03*
X134540002Y-97540000D03*
X137280001Y-97540000D03*
X140020001Y-97540000D03*
X142760000Y-97540000D03*
X145500000Y-97540000D03*
X148240000Y-97540000D03*
X150979999Y-97540000D03*
X153719999Y-97540000D03*
X156459998Y-97540000D03*
X159199998Y-97540000D03*
X161939998Y-97540000D03*
X130430002Y-95000000D03*
X133170002Y-95000000D03*
X135910001Y-95000000D03*
X138650001Y-95000000D03*
X141390001Y-95000000D03*
X144130000Y-95000000D03*
X146870000Y-95000000D03*
X149609999Y-95000000D03*
X152349999Y-95000000D03*
X155089999Y-95000000D03*
X157829998Y-95000000D03*
X160569998Y-95000000D03*
D11*
X122005000Y-96270000D03*
X168995000Y-96270000D03*
D13*
X131500000Y-117395000D02*
X131490000Y-117405000D01*
X130390002Y-95000000D02*
X130390002Y-106890002D01*
X131500000Y-108000000D02*
X131500000Y-117395000D01*
X130390002Y-106890002D02*
X131500000Y-108000000D01*
X140380000Y-117120000D02*
X140380000Y-119310000D01*
X146830000Y-95000000D02*
X146830000Y-94670000D01*
X141500000Y-116000000D02*
X140380000Y-117120000D01*
X156500000Y-95500000D02*
X158000000Y-97000000D01*
X141500000Y-114500000D02*
X141500000Y-116000000D01*
X156500000Y-94500000D02*
X156500000Y-95500000D01*
X146830000Y-94670000D02*
X148000000Y-93500000D01*
X158000000Y-97000000D02*
X158000000Y-98000000D01*
X158000000Y-98000000D02*
X141500000Y-114500000D01*
X148000000Y-93500000D02*
X155500000Y-93500000D01*
X155500000Y-93500000D02*
X156500000Y-94500000D01*
X161334314Y-123100000D02*
X157600000Y-123100000D01*
X162434314Y-90500000D02*
X164500000Y-92565686D01*
X144000000Y-94910000D02*
X144000000Y-91500000D01*
X164500000Y-119934314D02*
X161334314Y-123100000D01*
X157600000Y-123100000D02*
X156890000Y-122390000D01*
X144000000Y-91500000D02*
X145000000Y-90500000D01*
X144090000Y-95000000D02*
X144000000Y-94910000D01*
X164500000Y-92565686D02*
X164500000Y-119934314D01*
X145000000Y-90500000D02*
X162434314Y-90500000D01*
X156890000Y-122390000D02*
X156890000Y-121215000D01*
X135500000Y-117000000D02*
X135500000Y-117500000D01*
X136500000Y-113392092D02*
X136500000Y-116000000D01*
X135500000Y-117500000D02*
X133690000Y-119310000D01*
X136500000Y-116000000D02*
X135500000Y-117000000D01*
X151500000Y-99000000D02*
X150892092Y-99000000D01*
X152309999Y-98190001D02*
X151500000Y-99000000D01*
X133690000Y-119310000D02*
X132760000Y-119310000D01*
X150892092Y-99000000D02*
X136500000Y-113392092D01*
X152309999Y-95000000D02*
X152309999Y-98190001D01*
X121965000Y-118954400D02*
X122219000Y-119208400D01*
X168701000Y-96524000D02*
X168955000Y-96270000D01*
X139000000Y-115919200D02*
X138000000Y-116919200D01*
X138000000Y-117500000D02*
X136190000Y-119310000D01*
X139000000Y-113632092D02*
X139000000Y-115919200D01*
X154500000Y-99000000D02*
X153632092Y-99000000D01*
X153632092Y-99000000D02*
X139000000Y-113632092D01*
X155049999Y-98450001D02*
X154500000Y-99000000D01*
X138000000Y-116919200D02*
X138000000Y-117500000D01*
X136190000Y-119310000D02*
X135300000Y-119310000D01*
X155049999Y-95000000D02*
X155049999Y-98450001D01*
X155660000Y-114340000D02*
X163500000Y-106500000D01*
X163500000Y-96000000D02*
X161000000Y-93500000D01*
X155660000Y-115500000D02*
X155660000Y-114340000D01*
X159289998Y-93500000D02*
X157789998Y-95000000D01*
X163500000Y-106500000D02*
X163500000Y-96000000D01*
X161000000Y-93500000D02*
X159289998Y-93500000D01*
X135870001Y-95000000D02*
X136000000Y-95129999D01*
X136000000Y-105000000D02*
X132760000Y-108240000D01*
X132760000Y-108240000D02*
X132760000Y-115500000D01*
X136000000Y-95129999D02*
X136000000Y-105000000D01*
X164000000Y-95900000D02*
X164000000Y-111000000D01*
X144500000Y-96500000D02*
X145500000Y-95500000D01*
X160740000Y-114260000D02*
X160740000Y-115500000D01*
X164000000Y-111000000D02*
X160740000Y-114260000D01*
X159600000Y-91500000D02*
X164000000Y-95900000D01*
X142850001Y-96500000D02*
X144500000Y-96500000D01*
X145500000Y-94000000D02*
X148000000Y-91500000D01*
X141350001Y-95000000D02*
X142850001Y-96500000D01*
X148000000Y-91500000D02*
X159600000Y-91500000D01*
X145500000Y-95500000D02*
X145500000Y-94000000D01*
X149000000Y-99000000D02*
X148152093Y-99000000D01*
X149569999Y-95000000D02*
X149569999Y-98430001D01*
X131490000Y-119010000D02*
X131490000Y-121215000D01*
X149569999Y-98430001D02*
X149000000Y-99000000D01*
X134000000Y-116000000D02*
X133000000Y-117000000D01*
X133000000Y-117500000D02*
X131490000Y-119010000D01*
X133000000Y-117000000D02*
X133000000Y-117500000D01*
X134000000Y-113152093D02*
X134000000Y-116000000D01*
X148152093Y-99000000D02*
X134000000Y-113152093D01*
X161500000Y-123500000D02*
X150000000Y-123500000D01*
X138610001Y-95000000D02*
X138610001Y-91389999D01*
X140000000Y-90000000D02*
X162500000Y-90000000D01*
X149270000Y-122770000D02*
X149270000Y-121215000D01*
X165000000Y-120000000D02*
X161500000Y-123500000D01*
X150000000Y-123500000D02*
X149270000Y-122770000D01*
X165000000Y-92500000D02*
X165000000Y-120000000D01*
X162500000Y-90000000D02*
X165000000Y-92500000D01*
X138610001Y-91389999D02*
X140000000Y-90000000D01*
X156890000Y-117405000D02*
X157000000Y-117295000D01*
X154350000Y-117405000D02*
X154390000Y-117365000D01*
X159430000Y-117405000D02*
X159525000Y-117500000D01*
M02*
