G04 #@! TF.GenerationSoftware,KiCad,Pcbnew,8.0.9*
G04 #@! TF.CreationDate,2025-06-24T22:52:29+09:00*
G04 #@! TF.ProjectId,scsi_d25p50k_adapter,73637369-5f64-4323-9570-35306b5f6164,rev?*
G04 #@! TF.SameCoordinates,Original*
G04 #@! TF.FileFunction,Legend,Bot*
G04 #@! TF.FilePolarity,Positive*
%FSLAX46Y46*%
G04 Gerber Fmt 4.6, Leading zero omitted, Abs format (unit mm)*
G04 Created by KiCad (PCBNEW 8.0.9) date 2025-06-24 22:52:29*
%MOMM*%
%LPD*%
G01*
G04 APERTURE LIST*
%ADD10C,0.100000*%
%ADD11C,1.371600*%
%ADD12C,3.810000*%
%ADD13C,1.397000*%
G04 APERTURE END LIST*
D10*
X171243734Y-88324800D02*
X171100877Y-88372419D01*
X171100877Y-88372419D02*
X170862782Y-88372419D01*
X170862782Y-88372419D02*
X170767544Y-88324800D01*
X170767544Y-88324800D02*
X170719925Y-88277180D01*
X170719925Y-88277180D02*
X170672306Y-88181942D01*
X170672306Y-88181942D02*
X170672306Y-88086704D01*
X170672306Y-88086704D02*
X170719925Y-87991466D01*
X170719925Y-87991466D02*
X170767544Y-87943847D01*
X170767544Y-87943847D02*
X170862782Y-87896228D01*
X170862782Y-87896228D02*
X171053258Y-87848609D01*
X171053258Y-87848609D02*
X171148496Y-87800990D01*
X171148496Y-87800990D02*
X171196115Y-87753371D01*
X171196115Y-87753371D02*
X171243734Y-87658133D01*
X171243734Y-87658133D02*
X171243734Y-87562895D01*
X171243734Y-87562895D02*
X171196115Y-87467657D01*
X171196115Y-87467657D02*
X171148496Y-87420038D01*
X171148496Y-87420038D02*
X171053258Y-87372419D01*
X171053258Y-87372419D02*
X170815163Y-87372419D01*
X170815163Y-87372419D02*
X170672306Y-87420038D01*
X169672306Y-88277180D02*
X169719925Y-88324800D01*
X169719925Y-88324800D02*
X169862782Y-88372419D01*
X169862782Y-88372419D02*
X169958020Y-88372419D01*
X169958020Y-88372419D02*
X170100877Y-88324800D01*
X170100877Y-88324800D02*
X170196115Y-88229561D01*
X170196115Y-88229561D02*
X170243734Y-88134323D01*
X170243734Y-88134323D02*
X170291353Y-87943847D01*
X170291353Y-87943847D02*
X170291353Y-87800990D01*
X170291353Y-87800990D02*
X170243734Y-87610514D01*
X170243734Y-87610514D02*
X170196115Y-87515276D01*
X170196115Y-87515276D02*
X170100877Y-87420038D01*
X170100877Y-87420038D02*
X169958020Y-87372419D01*
X169958020Y-87372419D02*
X169862782Y-87372419D01*
X169862782Y-87372419D02*
X169719925Y-87420038D01*
X169719925Y-87420038D02*
X169672306Y-87467657D01*
X169291353Y-88324800D02*
X169148496Y-88372419D01*
X169148496Y-88372419D02*
X168910401Y-88372419D01*
X168910401Y-88372419D02*
X168815163Y-88324800D01*
X168815163Y-88324800D02*
X168767544Y-88277180D01*
X168767544Y-88277180D02*
X168719925Y-88181942D01*
X168719925Y-88181942D02*
X168719925Y-88086704D01*
X168719925Y-88086704D02*
X168767544Y-87991466D01*
X168767544Y-87991466D02*
X168815163Y-87943847D01*
X168815163Y-87943847D02*
X168910401Y-87896228D01*
X168910401Y-87896228D02*
X169100877Y-87848609D01*
X169100877Y-87848609D02*
X169196115Y-87800990D01*
X169196115Y-87800990D02*
X169243734Y-87753371D01*
X169243734Y-87753371D02*
X169291353Y-87658133D01*
X169291353Y-87658133D02*
X169291353Y-87562895D01*
X169291353Y-87562895D02*
X169243734Y-87467657D01*
X169243734Y-87467657D02*
X169196115Y-87420038D01*
X169196115Y-87420038D02*
X169100877Y-87372419D01*
X169100877Y-87372419D02*
X168862782Y-87372419D01*
X168862782Y-87372419D02*
X168719925Y-87420038D01*
X168291353Y-88372419D02*
X168291353Y-87372419D01*
X167053258Y-88372419D02*
X167053258Y-87372419D01*
X167053258Y-87372419D02*
X166815163Y-87372419D01*
X166815163Y-87372419D02*
X166672306Y-87420038D01*
X166672306Y-87420038D02*
X166577068Y-87515276D01*
X166577068Y-87515276D02*
X166529449Y-87610514D01*
X166529449Y-87610514D02*
X166481830Y-87800990D01*
X166481830Y-87800990D02*
X166481830Y-87943847D01*
X166481830Y-87943847D02*
X166529449Y-88134323D01*
X166529449Y-88134323D02*
X166577068Y-88229561D01*
X166577068Y-88229561D02*
X166672306Y-88324800D01*
X166672306Y-88324800D02*
X166815163Y-88372419D01*
X166815163Y-88372419D02*
X167053258Y-88372419D01*
X165719925Y-87848609D02*
X165577068Y-87896228D01*
X165577068Y-87896228D02*
X165529449Y-87943847D01*
X165529449Y-87943847D02*
X165481830Y-88039085D01*
X165481830Y-88039085D02*
X165481830Y-88181942D01*
X165481830Y-88181942D02*
X165529449Y-88277180D01*
X165529449Y-88277180D02*
X165577068Y-88324800D01*
X165577068Y-88324800D02*
X165672306Y-88372419D01*
X165672306Y-88372419D02*
X166053258Y-88372419D01*
X166053258Y-88372419D02*
X166053258Y-87372419D01*
X166053258Y-87372419D02*
X165719925Y-87372419D01*
X165719925Y-87372419D02*
X165624687Y-87420038D01*
X165624687Y-87420038D02*
X165577068Y-87467657D01*
X165577068Y-87467657D02*
X165529449Y-87562895D01*
X165529449Y-87562895D02*
X165529449Y-87658133D01*
X165529449Y-87658133D02*
X165577068Y-87753371D01*
X165577068Y-87753371D02*
X165624687Y-87800990D01*
X165624687Y-87800990D02*
X165719925Y-87848609D01*
X165719925Y-87848609D02*
X166053258Y-87848609D01*
X165100877Y-87467657D02*
X165053258Y-87420038D01*
X165053258Y-87420038D02*
X164958020Y-87372419D01*
X164958020Y-87372419D02*
X164719925Y-87372419D01*
X164719925Y-87372419D02*
X164624687Y-87420038D01*
X164624687Y-87420038D02*
X164577068Y-87467657D01*
X164577068Y-87467657D02*
X164529449Y-87562895D01*
X164529449Y-87562895D02*
X164529449Y-87658133D01*
X164529449Y-87658133D02*
X164577068Y-87800990D01*
X164577068Y-87800990D02*
X165148496Y-88372419D01*
X165148496Y-88372419D02*
X164529449Y-88372419D01*
X163624687Y-87372419D02*
X164100877Y-87372419D01*
X164100877Y-87372419D02*
X164148496Y-87848609D01*
X164148496Y-87848609D02*
X164100877Y-87800990D01*
X164100877Y-87800990D02*
X164005639Y-87753371D01*
X164005639Y-87753371D02*
X163767544Y-87753371D01*
X163767544Y-87753371D02*
X163672306Y-87800990D01*
X163672306Y-87800990D02*
X163624687Y-87848609D01*
X163624687Y-87848609D02*
X163577068Y-87943847D01*
X163577068Y-87943847D02*
X163577068Y-88181942D01*
X163577068Y-88181942D02*
X163624687Y-88277180D01*
X163624687Y-88277180D02*
X163672306Y-88324800D01*
X163672306Y-88324800D02*
X163767544Y-88372419D01*
X163767544Y-88372419D02*
X164005639Y-88372419D01*
X164005639Y-88372419D02*
X164100877Y-88324800D01*
X164100877Y-88324800D02*
X164148496Y-88277180D01*
X163148496Y-87991466D02*
X162386592Y-87991466D01*
X161910401Y-88372419D02*
X161910401Y-87372419D01*
X161910401Y-87848609D02*
X161338973Y-87848609D01*
X161338973Y-88372419D02*
X161338973Y-87372419D01*
X160862782Y-88372419D02*
X160862782Y-87372419D01*
X160862782Y-87372419D02*
X160624687Y-87372419D01*
X160624687Y-87372419D02*
X160481830Y-87420038D01*
X160481830Y-87420038D02*
X160386592Y-87515276D01*
X160386592Y-87515276D02*
X160338973Y-87610514D01*
X160338973Y-87610514D02*
X160291354Y-87800990D01*
X160291354Y-87800990D02*
X160291354Y-87943847D01*
X160291354Y-87943847D02*
X160338973Y-88134323D01*
X160338973Y-88134323D02*
X160386592Y-88229561D01*
X160386592Y-88229561D02*
X160481830Y-88324800D01*
X160481830Y-88324800D02*
X160624687Y-88372419D01*
X160624687Y-88372419D02*
X160862782Y-88372419D01*
X159386592Y-87372419D02*
X159862782Y-87372419D01*
X159862782Y-87372419D02*
X159910401Y-87848609D01*
X159910401Y-87848609D02*
X159862782Y-87800990D01*
X159862782Y-87800990D02*
X159767544Y-87753371D01*
X159767544Y-87753371D02*
X159529449Y-87753371D01*
X159529449Y-87753371D02*
X159434211Y-87800990D01*
X159434211Y-87800990D02*
X159386592Y-87848609D01*
X159386592Y-87848609D02*
X159338973Y-87943847D01*
X159338973Y-87943847D02*
X159338973Y-88181942D01*
X159338973Y-88181942D02*
X159386592Y-88277180D01*
X159386592Y-88277180D02*
X159434211Y-88324800D01*
X159434211Y-88324800D02*
X159529449Y-88372419D01*
X159529449Y-88372419D02*
X159767544Y-88372419D01*
X159767544Y-88372419D02*
X159862782Y-88324800D01*
X159862782Y-88324800D02*
X159910401Y-88277180D01*
X158719925Y-87372419D02*
X158624687Y-87372419D01*
X158624687Y-87372419D02*
X158529449Y-87420038D01*
X158529449Y-87420038D02*
X158481830Y-87467657D01*
X158481830Y-87467657D02*
X158434211Y-87562895D01*
X158434211Y-87562895D02*
X158386592Y-87753371D01*
X158386592Y-87753371D02*
X158386592Y-87991466D01*
X158386592Y-87991466D02*
X158434211Y-88181942D01*
X158434211Y-88181942D02*
X158481830Y-88277180D01*
X158481830Y-88277180D02*
X158529449Y-88324800D01*
X158529449Y-88324800D02*
X158624687Y-88372419D01*
X158624687Y-88372419D02*
X158719925Y-88372419D01*
X158719925Y-88372419D02*
X158815163Y-88324800D01*
X158815163Y-88324800D02*
X158862782Y-88277180D01*
X158862782Y-88277180D02*
X158910401Y-88181942D01*
X158910401Y-88181942D02*
X158958020Y-87991466D01*
X158958020Y-87991466D02*
X158958020Y-87753371D01*
X158958020Y-87753371D02*
X158910401Y-87562895D01*
X158910401Y-87562895D02*
X158862782Y-87467657D01*
X158862782Y-87467657D02*
X158815163Y-87420038D01*
X158815163Y-87420038D02*
X158719925Y-87372419D01*
X157243734Y-88086704D02*
X156767544Y-88086704D01*
X157338972Y-88372419D02*
X157005639Y-87372419D01*
X157005639Y-87372419D02*
X156672306Y-88372419D01*
X155910401Y-88372419D02*
X155910401Y-87372419D01*
X155910401Y-88324800D02*
X156005639Y-88372419D01*
X156005639Y-88372419D02*
X156196115Y-88372419D01*
X156196115Y-88372419D02*
X156291353Y-88324800D01*
X156291353Y-88324800D02*
X156338972Y-88277180D01*
X156338972Y-88277180D02*
X156386591Y-88181942D01*
X156386591Y-88181942D02*
X156386591Y-87896228D01*
X156386591Y-87896228D02*
X156338972Y-87800990D01*
X156338972Y-87800990D02*
X156291353Y-87753371D01*
X156291353Y-87753371D02*
X156196115Y-87705752D01*
X156196115Y-87705752D02*
X156005639Y-87705752D01*
X156005639Y-87705752D02*
X155910401Y-87753371D01*
X155005639Y-88372419D02*
X155005639Y-87848609D01*
X155005639Y-87848609D02*
X155053258Y-87753371D01*
X155053258Y-87753371D02*
X155148496Y-87705752D01*
X155148496Y-87705752D02*
X155338972Y-87705752D01*
X155338972Y-87705752D02*
X155434210Y-87753371D01*
X155005639Y-88324800D02*
X155100877Y-88372419D01*
X155100877Y-88372419D02*
X155338972Y-88372419D01*
X155338972Y-88372419D02*
X155434210Y-88324800D01*
X155434210Y-88324800D02*
X155481829Y-88229561D01*
X155481829Y-88229561D02*
X155481829Y-88134323D01*
X155481829Y-88134323D02*
X155434210Y-88039085D01*
X155434210Y-88039085D02*
X155338972Y-87991466D01*
X155338972Y-87991466D02*
X155100877Y-87991466D01*
X155100877Y-87991466D02*
X155005639Y-87943847D01*
X154529448Y-87705752D02*
X154529448Y-88705752D01*
X154529448Y-87753371D02*
X154434210Y-87705752D01*
X154434210Y-87705752D02*
X154243734Y-87705752D01*
X154243734Y-87705752D02*
X154148496Y-87753371D01*
X154148496Y-87753371D02*
X154100877Y-87800990D01*
X154100877Y-87800990D02*
X154053258Y-87896228D01*
X154053258Y-87896228D02*
X154053258Y-88181942D01*
X154053258Y-88181942D02*
X154100877Y-88277180D01*
X154100877Y-88277180D02*
X154148496Y-88324800D01*
X154148496Y-88324800D02*
X154243734Y-88372419D01*
X154243734Y-88372419D02*
X154434210Y-88372419D01*
X154434210Y-88372419D02*
X154529448Y-88324800D01*
X153767543Y-87705752D02*
X153386591Y-87705752D01*
X153624686Y-87372419D02*
X153624686Y-88229561D01*
X153624686Y-88229561D02*
X153577067Y-88324800D01*
X153577067Y-88324800D02*
X153481829Y-88372419D01*
X153481829Y-88372419D02*
X153386591Y-88372419D01*
X152672305Y-88324800D02*
X152767543Y-88372419D01*
X152767543Y-88372419D02*
X152958019Y-88372419D01*
X152958019Y-88372419D02*
X153053257Y-88324800D01*
X153053257Y-88324800D02*
X153100876Y-88229561D01*
X153100876Y-88229561D02*
X153100876Y-87848609D01*
X153100876Y-87848609D02*
X153053257Y-87753371D01*
X153053257Y-87753371D02*
X152958019Y-87705752D01*
X152958019Y-87705752D02*
X152767543Y-87705752D01*
X152767543Y-87705752D02*
X152672305Y-87753371D01*
X152672305Y-87753371D02*
X152624686Y-87848609D01*
X152624686Y-87848609D02*
X152624686Y-87943847D01*
X152624686Y-87943847D02*
X153100876Y-88039085D01*
X152196114Y-88372419D02*
X152196114Y-87705752D01*
X152196114Y-87896228D02*
X152148495Y-87800990D01*
X152148495Y-87800990D02*
X152100876Y-87753371D01*
X152100876Y-87753371D02*
X152005638Y-87705752D01*
X152005638Y-87705752D02*
X151910400Y-87705752D01*
X150815161Y-87991466D02*
X150053257Y-87991466D01*
X148910399Y-87705752D02*
X148672304Y-88372419D01*
X148672304Y-88372419D02*
X148434209Y-87705752D01*
X147862780Y-87372419D02*
X147767542Y-87372419D01*
X147767542Y-87372419D02*
X147672304Y-87420038D01*
X147672304Y-87420038D02*
X147624685Y-87467657D01*
X147624685Y-87467657D02*
X147577066Y-87562895D01*
X147577066Y-87562895D02*
X147529447Y-87753371D01*
X147529447Y-87753371D02*
X147529447Y-87991466D01*
X147529447Y-87991466D02*
X147577066Y-88181942D01*
X147577066Y-88181942D02*
X147624685Y-88277180D01*
X147624685Y-88277180D02*
X147672304Y-88324800D01*
X147672304Y-88324800D02*
X147767542Y-88372419D01*
X147767542Y-88372419D02*
X147862780Y-88372419D01*
X147862780Y-88372419D02*
X147958018Y-88324800D01*
X147958018Y-88324800D02*
X148005637Y-88277180D01*
X148005637Y-88277180D02*
X148053256Y-88181942D01*
X148053256Y-88181942D02*
X148100875Y-87991466D01*
X148100875Y-87991466D02*
X148100875Y-87753371D01*
X148100875Y-87753371D02*
X148053256Y-87562895D01*
X148053256Y-87562895D02*
X148005637Y-87467657D01*
X148005637Y-87467657D02*
X147958018Y-87420038D01*
X147958018Y-87420038D02*
X147862780Y-87372419D01*
X147100875Y-88277180D02*
X147053256Y-88324800D01*
X147053256Y-88324800D02*
X147100875Y-88372419D01*
X147100875Y-88372419D02*
X147148494Y-88324800D01*
X147148494Y-88324800D02*
X147100875Y-88277180D01*
X147100875Y-88277180D02*
X147100875Y-88372419D01*
X146577066Y-88372419D02*
X146386590Y-88372419D01*
X146386590Y-88372419D02*
X146291352Y-88324800D01*
X146291352Y-88324800D02*
X146243733Y-88277180D01*
X146243733Y-88277180D02*
X146148495Y-88134323D01*
X146148495Y-88134323D02*
X146100876Y-87943847D01*
X146100876Y-87943847D02*
X146100876Y-87562895D01*
X146100876Y-87562895D02*
X146148495Y-87467657D01*
X146148495Y-87467657D02*
X146196114Y-87420038D01*
X146196114Y-87420038D02*
X146291352Y-87372419D01*
X146291352Y-87372419D02*
X146481828Y-87372419D01*
X146481828Y-87372419D02*
X146577066Y-87420038D01*
X146577066Y-87420038D02*
X146624685Y-87467657D01*
X146624685Y-87467657D02*
X146672304Y-87562895D01*
X146672304Y-87562895D02*
X146672304Y-87800990D01*
X146672304Y-87800990D02*
X146624685Y-87896228D01*
X146624685Y-87896228D02*
X146577066Y-87943847D01*
X146577066Y-87943847D02*
X146481828Y-87991466D01*
X146481828Y-87991466D02*
X146291352Y-87991466D01*
X146291352Y-87991466D02*
X146196114Y-87943847D01*
X146196114Y-87943847D02*
X146148495Y-87896228D01*
X146148495Y-87896228D02*
X146100876Y-87800990D01*
X145672304Y-88277180D02*
X145624685Y-88324800D01*
X145624685Y-88324800D02*
X145672304Y-88372419D01*
X145672304Y-88372419D02*
X145719923Y-88324800D01*
X145719923Y-88324800D02*
X145672304Y-88277180D01*
X145672304Y-88277180D02*
X145672304Y-88372419D01*
X145005638Y-87372419D02*
X144910400Y-87372419D01*
X144910400Y-87372419D02*
X144815162Y-87420038D01*
X144815162Y-87420038D02*
X144767543Y-87467657D01*
X144767543Y-87467657D02*
X144719924Y-87562895D01*
X144719924Y-87562895D02*
X144672305Y-87753371D01*
X144672305Y-87753371D02*
X144672305Y-87991466D01*
X144672305Y-87991466D02*
X144719924Y-88181942D01*
X144719924Y-88181942D02*
X144767543Y-88277180D01*
X144767543Y-88277180D02*
X144815162Y-88324800D01*
X144815162Y-88324800D02*
X144910400Y-88372419D01*
X144910400Y-88372419D02*
X145005638Y-88372419D01*
X145005638Y-88372419D02*
X145100876Y-88324800D01*
X145100876Y-88324800D02*
X145148495Y-88277180D01*
X145148495Y-88277180D02*
X145196114Y-88181942D01*
X145196114Y-88181942D02*
X145243733Y-87991466D01*
X145243733Y-87991466D02*
X145243733Y-87753371D01*
X145243733Y-87753371D02*
X145196114Y-87562895D01*
X145196114Y-87562895D02*
X145148495Y-87467657D01*
X145148495Y-87467657D02*
X145100876Y-87420038D01*
X145100876Y-87420038D02*
X145005638Y-87372419D01*
%LPC*%
D11*
X130260000Y-115500000D03*
X131530000Y-117405000D03*
X132800000Y-115500000D03*
X134070000Y-117405000D03*
X135340000Y-115500000D03*
X136610000Y-117405000D03*
X137880000Y-115500000D03*
X139150000Y-117405000D03*
X140420000Y-115500000D03*
X141690000Y-117405000D03*
X142960000Y-115500000D03*
X144230000Y-117405000D03*
X145500000Y-115500000D03*
X146770000Y-117405000D03*
X148040000Y-115500000D03*
X149310000Y-117405000D03*
X150580000Y-115500000D03*
X151850000Y-117405000D03*
X153120000Y-115500000D03*
X154390000Y-117405000D03*
X155660000Y-115500000D03*
X156930000Y-117405000D03*
X158200000Y-115500000D03*
X159470000Y-117405000D03*
X160740000Y-115500000D03*
X130260000Y-119310000D03*
X131530000Y-121215000D03*
X132800000Y-119310000D03*
X134070000Y-121215000D03*
X135340000Y-119310000D03*
X136610000Y-121215000D03*
X137880000Y-119310000D03*
X139150000Y-121215000D03*
X140420000Y-119310000D03*
X141690000Y-121215000D03*
X142960000Y-119310000D03*
X144230000Y-121215000D03*
X145500000Y-119310000D03*
X146770000Y-121215000D03*
X148040000Y-119310000D03*
X149310000Y-121215000D03*
X150580000Y-119310000D03*
X151850000Y-121215000D03*
X153120000Y-119310000D03*
X154390000Y-121215000D03*
X155660000Y-119310000D03*
X156930000Y-121215000D03*
X158200000Y-119310000D03*
X159470000Y-121215000D03*
X160740000Y-119310000D03*
D12*
X168741000Y-119208400D03*
X122259000Y-119208400D03*
D13*
X129060002Y-97540000D03*
X131800002Y-97540000D03*
X134540002Y-97540000D03*
X137280001Y-97540000D03*
X140020001Y-97540000D03*
X142760000Y-97540000D03*
X145500000Y-97540000D03*
X148240000Y-97540000D03*
X150979999Y-97540000D03*
X153719999Y-97540000D03*
X156459998Y-97540000D03*
X159199998Y-97540000D03*
X161939998Y-97540000D03*
X130430002Y-95000000D03*
X133170002Y-95000000D03*
X135910001Y-95000000D03*
X138650001Y-95000000D03*
X141390001Y-95000000D03*
X144130000Y-95000000D03*
X146870000Y-95000000D03*
X149609999Y-95000000D03*
X152349999Y-95000000D03*
X155089999Y-95000000D03*
X157829998Y-95000000D03*
X160569998Y-95000000D03*
D12*
X122005000Y-96270000D03*
X168995000Y-96270000D03*
%LPD*%
M02*
