G04 #@! TF.GenerationSoftware,KiCad,Pcbnew,8.0.9*
G04 #@! TF.CreationDate,2025-06-24T22:52:29+09:00*
G04 #@! TF.ProjectId,scsi_d25p50k_adapter,73637369-5f64-4323-9570-35306b5f6164,rev?*
G04 #@! TF.SameCoordinates,Original*
G04 #@! TF.FileFunction,Soldermask,Top*
G04 #@! TF.FilePolarity,Negative*
%FSLAX46Y46*%
G04 Gerber Fmt 4.6, Leading zero omitted, Abs format (unit mm)*
G04 Created by KiCad (PCBNEW 8.0.9) date 2025-06-24 22:52:29*
%MOMM*%
%LPD*%
G01*
G04 APERTURE LIST*
%ADD10C,1.371600*%
%ADD11C,3.810000*%
%ADD12C,1.397000*%
G04 APERTURE END LIST*
D10*
X130260000Y-115500000D03*
X131530000Y-117405000D03*
X132800000Y-115500000D03*
X134070000Y-117405000D03*
X135340000Y-115500000D03*
X136610000Y-117405000D03*
X137880000Y-115500000D03*
X139150000Y-117405000D03*
X140420000Y-115500000D03*
X141690000Y-117405000D03*
X142960000Y-115500000D03*
X144230000Y-117405000D03*
X145500000Y-115500000D03*
X146770000Y-117405000D03*
X148040000Y-115500000D03*
X149310000Y-117405000D03*
X150580000Y-115500000D03*
X151850000Y-117405000D03*
X153120000Y-115500000D03*
X154390000Y-117405000D03*
X155660000Y-115500000D03*
X156930000Y-117405000D03*
X158200000Y-115500000D03*
X159470000Y-117405000D03*
X160740000Y-115500000D03*
X130260000Y-119310000D03*
X131530000Y-121215000D03*
X132800000Y-119310000D03*
X134070000Y-121215000D03*
X135340000Y-119310000D03*
X136610000Y-121215000D03*
X137880000Y-119310000D03*
X139150000Y-121215000D03*
X140420000Y-119310000D03*
X141690000Y-121215000D03*
X142960000Y-119310000D03*
X144230000Y-121215000D03*
X145500000Y-119310000D03*
X146770000Y-121215000D03*
X148040000Y-119310000D03*
X149310000Y-121215000D03*
X150580000Y-119310000D03*
X151850000Y-121215000D03*
X153120000Y-119310000D03*
X154390000Y-121215000D03*
X155660000Y-119310000D03*
X156930000Y-121215000D03*
X158200000Y-119310000D03*
X159470000Y-121215000D03*
X160740000Y-119310000D03*
D11*
X168741000Y-119208400D03*
X122259000Y-119208400D03*
D12*
X129060002Y-97540000D03*
X131800002Y-97540000D03*
X134540002Y-97540000D03*
X137280001Y-97540000D03*
X140020001Y-97540000D03*
X142760000Y-97540000D03*
X145500000Y-97540000D03*
X148240000Y-97540000D03*
X150979999Y-97540000D03*
X153719999Y-97540000D03*
X156459998Y-97540000D03*
X159199998Y-97540000D03*
X161939998Y-97540000D03*
X130430002Y-95000000D03*
X133170002Y-95000000D03*
X135910001Y-95000000D03*
X138650001Y-95000000D03*
X141390001Y-95000000D03*
X144130000Y-95000000D03*
X146870000Y-95000000D03*
X149609999Y-95000000D03*
X152349999Y-95000000D03*
X155089999Y-95000000D03*
X157829998Y-95000000D03*
X160569998Y-95000000D03*
D11*
X122005000Y-96270000D03*
X168995000Y-96270000D03*
M02*
