G04 #@! TF.GenerationSoftware,KiCad,Pcbnew,8.0.9*
G04 #@! TF.CreationDate,2025-06-24T22:52:29+09:00*
G04 #@! TF.ProjectId,scsi_d25p50k_adapter,73637369-5f64-4323-9570-35306b5f6164,rev?*
G04 #@! TF.SameCoordinates,Original*
G04 #@! TF.FileFunction,Legend,Top*
G04 #@! TF.FilePolarity,Positive*
%FSLAX46Y46*%
G04 Gerber Fmt 4.6, Leading zero omitted, Abs format (unit mm)*
G04 Created by KiCad (PCBNEW 8.0.9) date 2025-06-24 22:52:29*
%MOMM*%
%LPD*%
G01*
G04 APERTURE LIST*
%ADD10C,0.150000*%
%ADD11C,0.152400*%
%ADD12C,1.371600*%
%ADD13C,3.810000*%
%ADD14C,1.397000*%
G04 APERTURE END LIST*
D10*
X168833333Y-124045180D02*
X168833333Y-123330895D01*
X168833333Y-123330895D02*
X168880952Y-123188038D01*
X168880952Y-123188038D02*
X168976190Y-123092800D01*
X168976190Y-123092800D02*
X169119047Y-123045180D01*
X169119047Y-123045180D02*
X169214285Y-123045180D01*
X168404761Y-123949942D02*
X168357142Y-123997561D01*
X168357142Y-123997561D02*
X168261904Y-124045180D01*
X168261904Y-124045180D02*
X168023809Y-124045180D01*
X168023809Y-124045180D02*
X167928571Y-123997561D01*
X167928571Y-123997561D02*
X167880952Y-123949942D01*
X167880952Y-123949942D02*
X167833333Y-123854704D01*
X167833333Y-123854704D02*
X167833333Y-123759466D01*
X167833333Y-123759466D02*
X167880952Y-123616609D01*
X167880952Y-123616609D02*
X168452380Y-123045180D01*
X168452380Y-123045180D02*
X167833333Y-123045180D01*
X121666666Y-87454819D02*
X121666666Y-88169104D01*
X121666666Y-88169104D02*
X121619047Y-88311961D01*
X121619047Y-88311961D02*
X121523809Y-88407200D01*
X121523809Y-88407200D02*
X121380952Y-88454819D01*
X121380952Y-88454819D02*
X121285714Y-88454819D01*
X122666666Y-88454819D02*
X122095238Y-88454819D01*
X122380952Y-88454819D02*
X122380952Y-87454819D01*
X122380952Y-87454819D02*
X122285714Y-87597676D01*
X122285714Y-87597676D02*
X122190476Y-87692914D01*
X122190476Y-87692914D02*
X122095238Y-87740533D01*
D11*
X171852500Y-112655200D02*
X119147500Y-112655200D01*
X118817300Y-99800600D02*
X172182700Y-99800600D01*
%LPC*%
D12*
X130260000Y-115500000D03*
X131530000Y-117405000D03*
X132800000Y-115500000D03*
X134070000Y-117405000D03*
X135340000Y-115500000D03*
X136610000Y-117405000D03*
X137880000Y-115500000D03*
X139150000Y-117405000D03*
X140420000Y-115500000D03*
X141690000Y-117405000D03*
X142960000Y-115500000D03*
X144230000Y-117405000D03*
X145500000Y-115500000D03*
X146770000Y-117405000D03*
X148040000Y-115500000D03*
X149310000Y-117405000D03*
X150580000Y-115500000D03*
X151850000Y-117405000D03*
X153120000Y-115500000D03*
X154390000Y-117405000D03*
X155660000Y-115500000D03*
X156930000Y-117405000D03*
X158200000Y-115500000D03*
X159470000Y-117405000D03*
X160740000Y-115500000D03*
X130260000Y-119310000D03*
X131530000Y-121215000D03*
X132800000Y-119310000D03*
X134070000Y-121215000D03*
X135340000Y-119310000D03*
X136610000Y-121215000D03*
X137880000Y-119310000D03*
X139150000Y-121215000D03*
X140420000Y-119310000D03*
X141690000Y-121215000D03*
X142960000Y-119310000D03*
X144230000Y-121215000D03*
X145500000Y-119310000D03*
X146770000Y-121215000D03*
X148040000Y-119310000D03*
X149310000Y-121215000D03*
X150580000Y-119310000D03*
X151850000Y-121215000D03*
X153120000Y-119310000D03*
X154390000Y-121215000D03*
X155660000Y-119310000D03*
X156930000Y-121215000D03*
X158200000Y-119310000D03*
X159470000Y-121215000D03*
X160740000Y-119310000D03*
D13*
X168741000Y-119208400D03*
X122259000Y-119208400D03*
D14*
X129060002Y-97540000D03*
X131800002Y-97540000D03*
X134540002Y-97540000D03*
X137280001Y-97540000D03*
X140020001Y-97540000D03*
X142760000Y-97540000D03*
X145500000Y-97540000D03*
X148240000Y-97540000D03*
X150979999Y-97540000D03*
X153719999Y-97540000D03*
X156459998Y-97540000D03*
X159199998Y-97540000D03*
X161939998Y-97540000D03*
X130430002Y-95000000D03*
X133170002Y-95000000D03*
X135910001Y-95000000D03*
X138650001Y-95000000D03*
X141390001Y-95000000D03*
X144130000Y-95000000D03*
X146870000Y-95000000D03*
X149609999Y-95000000D03*
X152349999Y-95000000D03*
X155089999Y-95000000D03*
X157829998Y-95000000D03*
X160569998Y-95000000D03*
D13*
X122005000Y-96270000D03*
X168995000Y-96270000D03*
%LPD*%
M02*
