%TF.GenerationSoftware,KiCad,Pcbnew,8.0.9*%
%TF.CreationDate,2025-06-24T22:55:31+09:00*%
%TF.ProjectId,scsi_d25p50k_adapter,73637369-5f64-4323-9570-35306b5f6164,rev?*%
%TF.SameCoordinates,Original*%
%TF.FileFunction,Drillmap*%
%TF.FilePolarity,Positive*%
%FSLAX45Y45*%
G04 Gerber Fmt 4.5, Leading zero omitted, Abs format (unit mm)*
G04 Created by KiCad (PCBNEW 8.0.9) date 2025-06-24 22:55:31*
%MOMM*%
%LPD*%
G01*
G04 APERTURE LIST*
%ADD10C,0.200000*%
G04 APERTURE END LIST*
D10*
X11850000Y-8650000D02*
X17250000Y-8650000D01*
X17250000Y-12500000D01*
X11850000Y-12500000D01*
X11850000Y-8650000D01*
X12100777Y-12821484D02*
X12100777Y-12621484D01*
X12100777Y-12621484D02*
X12148396Y-12621484D01*
X12148396Y-12621484D02*
X12176967Y-12631008D01*
X12176967Y-12631008D02*
X12196015Y-12650055D01*
X12196015Y-12650055D02*
X12205539Y-12669103D01*
X12205539Y-12669103D02*
X12215062Y-12707198D01*
X12215062Y-12707198D02*
X12215062Y-12735769D01*
X12215062Y-12735769D02*
X12205539Y-12773865D01*
X12205539Y-12773865D02*
X12196015Y-12792912D01*
X12196015Y-12792912D02*
X12176967Y-12811960D01*
X12176967Y-12811960D02*
X12148396Y-12821484D01*
X12148396Y-12821484D02*
X12100777Y-12821484D01*
X12300777Y-12821484D02*
X12300777Y-12688150D01*
X12300777Y-12726246D02*
X12310301Y-12707198D01*
X12310301Y-12707198D02*
X12319824Y-12697674D01*
X12319824Y-12697674D02*
X12338872Y-12688150D01*
X12338872Y-12688150D02*
X12357920Y-12688150D01*
X12424586Y-12821484D02*
X12424586Y-12688150D01*
X12424586Y-12621484D02*
X12415062Y-12631008D01*
X12415062Y-12631008D02*
X12424586Y-12640531D01*
X12424586Y-12640531D02*
X12434110Y-12631008D01*
X12434110Y-12631008D02*
X12424586Y-12621484D01*
X12424586Y-12621484D02*
X12424586Y-12640531D01*
X12548396Y-12821484D02*
X12529348Y-12811960D01*
X12529348Y-12811960D02*
X12519824Y-12792912D01*
X12519824Y-12792912D02*
X12519824Y-12621484D01*
X12653158Y-12821484D02*
X12634110Y-12811960D01*
X12634110Y-12811960D02*
X12624586Y-12792912D01*
X12624586Y-12792912D02*
X12624586Y-12621484D01*
X12881729Y-12821484D02*
X12881729Y-12621484D01*
X12881729Y-12621484D02*
X12948396Y-12764341D01*
X12948396Y-12764341D02*
X13015062Y-12621484D01*
X13015062Y-12621484D02*
X13015062Y-12821484D01*
X13196015Y-12821484D02*
X13196015Y-12716722D01*
X13196015Y-12716722D02*
X13186491Y-12697674D01*
X13186491Y-12697674D02*
X13167443Y-12688150D01*
X13167443Y-12688150D02*
X13129348Y-12688150D01*
X13129348Y-12688150D02*
X13110301Y-12697674D01*
X13196015Y-12811960D02*
X13176967Y-12821484D01*
X13176967Y-12821484D02*
X13129348Y-12821484D01*
X13129348Y-12821484D02*
X13110301Y-12811960D01*
X13110301Y-12811960D02*
X13100777Y-12792912D01*
X13100777Y-12792912D02*
X13100777Y-12773865D01*
X13100777Y-12773865D02*
X13110301Y-12754817D01*
X13110301Y-12754817D02*
X13129348Y-12745293D01*
X13129348Y-12745293D02*
X13176967Y-12745293D01*
X13176967Y-12745293D02*
X13196015Y-12735769D01*
X13291253Y-12688150D02*
X13291253Y-12888150D01*
X13291253Y-12697674D02*
X13310301Y-12688150D01*
X13310301Y-12688150D02*
X13348396Y-12688150D01*
X13348396Y-12688150D02*
X13367443Y-12697674D01*
X13367443Y-12697674D02*
X13376967Y-12707198D01*
X13376967Y-12707198D02*
X13386491Y-12726246D01*
X13386491Y-12726246D02*
X13386491Y-12783388D01*
X13386491Y-12783388D02*
X13376967Y-12802436D01*
X13376967Y-12802436D02*
X13367443Y-12811960D01*
X13367443Y-12811960D02*
X13348396Y-12821484D01*
X13348396Y-12821484D02*
X13310301Y-12821484D01*
X13310301Y-12821484D02*
X13291253Y-12811960D01*
X13472205Y-12802436D02*
X13481729Y-12811960D01*
X13481729Y-12811960D02*
X13472205Y-12821484D01*
X13472205Y-12821484D02*
X13462682Y-12811960D01*
X13462682Y-12811960D02*
X13472205Y-12802436D01*
X13472205Y-12802436D02*
X13472205Y-12821484D01*
X13472205Y-12697674D02*
X13481729Y-12707198D01*
X13481729Y-12707198D02*
X13472205Y-12716722D01*
X13472205Y-12716722D02*
X13462682Y-12707198D01*
X13462682Y-12707198D02*
X13472205Y-12697674D01*
X13472205Y-12697674D02*
X13472205Y-12716722D01*
M02*
