G04 #@! TF.GenerationSoftware,KiCad,Pcbnew,8.0.9*
G04 #@! TF.CreationDate,2025-06-24T22:52:29+09:00*
G04 #@! TF.ProjectId,scsi_d25p50k_adapter,73637369-5f64-4323-9570-35306b5f6164,rev?*
G04 #@! TF.SameCoordinates,Original*
G04 #@! TF.FileFunction,Copper,L1,Top*
G04 #@! TF.FilePolarity,Positive*
%FSLAX46Y46*%
G04 Gerber Fmt 4.6, Leading zero omitted, Abs format (unit mm)*
G04 Created by KiCad (PCBNEW 8.0.9) date 2025-06-24 22:52:29*
%MOMM*%
%LPD*%
G01*
G04 APERTURE LIST*
G04 #@! TA.AperFunction,ComponentPad*
%ADD10C,1.371600*%
G04 #@! TD*
G04 #@! TA.AperFunction,ComponentPad*
%ADD11C,3.810000*%
G04 #@! TD*
G04 #@! TA.AperFunction,ComponentPad*
%ADD12C,1.397000*%
G04 #@! TD*
G04 #@! TA.AperFunction,Conductor*
%ADD13C,0.200000*%
G04 #@! TD*
G04 APERTURE END LIST*
D10*
X130260000Y-115500000D03*
X131530000Y-117405000D03*
X132800000Y-115500000D03*
X134070000Y-117405000D03*
X135340000Y-115500000D03*
X136610000Y-117405000D03*
X137880000Y-115500000D03*
X139150000Y-117405000D03*
X140420000Y-115500000D03*
X141690000Y-117405000D03*
X142960000Y-115500000D03*
X144230000Y-117405000D03*
X145500000Y-115500000D03*
X146770000Y-117405000D03*
X148040000Y-115500000D03*
X149310000Y-117405000D03*
X150580000Y-115500000D03*
X151850000Y-117405000D03*
X153120000Y-115500000D03*
X154390000Y-117405000D03*
X155660000Y-115500000D03*
X156930000Y-117405000D03*
X158200000Y-115500000D03*
X159470000Y-117405000D03*
X160740000Y-115500000D03*
X130260000Y-119310000D03*
X131530000Y-121215000D03*
X132800000Y-119310000D03*
X134070000Y-121215000D03*
X135340000Y-119310000D03*
X136610000Y-121215000D03*
X137880000Y-119310000D03*
X139150000Y-121215000D03*
X140420000Y-119310000D03*
X141690000Y-121215000D03*
X142960000Y-119310000D03*
X144230000Y-121215000D03*
X145500000Y-119310000D03*
X146770000Y-121215000D03*
X148040000Y-119310000D03*
X149310000Y-121215000D03*
X150580000Y-119310000D03*
X151850000Y-121215000D03*
X153120000Y-119310000D03*
X154390000Y-121215000D03*
X155660000Y-119310000D03*
X156930000Y-121215000D03*
X158200000Y-119310000D03*
X159470000Y-121215000D03*
X160740000Y-119310000D03*
D11*
X168741000Y-119208400D03*
X122259000Y-119208400D03*
D12*
X129060002Y-97540000D03*
X131800002Y-97540000D03*
X134540002Y-97540000D03*
X137280001Y-97540000D03*
X140020001Y-97540000D03*
X142760000Y-97540000D03*
X145500000Y-97540000D03*
X148240000Y-97540000D03*
X150979999Y-97540000D03*
X153719999Y-97540000D03*
X156459998Y-97540000D03*
X159199998Y-97540000D03*
X161939998Y-97540000D03*
X130430002Y-95000000D03*
X133170002Y-95000000D03*
X135910001Y-95000000D03*
X138650001Y-95000000D03*
X141390001Y-95000000D03*
X144130000Y-95000000D03*
X146870000Y-95000000D03*
X149609999Y-95000000D03*
X152349999Y-95000000D03*
X155089999Y-95000000D03*
X157829998Y-95000000D03*
X160569998Y-95000000D03*
D11*
X122005000Y-96270000D03*
X168995000Y-96270000D03*
D13*
X134500002Y-97540000D02*
X133460002Y-96500000D01*
X125500000Y-96500000D02*
X125000000Y-97000000D01*
X133460002Y-96500000D02*
X125500000Y-96500000D01*
X162500000Y-121400000D02*
X162500000Y-120000000D01*
X126900000Y-124400000D02*
X159500000Y-124400000D01*
X162500000Y-120000000D02*
X161810000Y-119310000D01*
X161810000Y-119310000D02*
X160700000Y-119310000D01*
X125000000Y-122500000D02*
X126900000Y-124400000D01*
X125000000Y-97000000D02*
X125000000Y-122500000D01*
X159500000Y-124400000D02*
X162500000Y-121400000D01*
X128750000Y-123000000D02*
X152565000Y-123000000D01*
X130865688Y-99000000D02*
X126500000Y-103365688D01*
X126500000Y-103365688D02*
X126500000Y-120750000D01*
X152565000Y-123000000D02*
X154350000Y-121215000D01*
X137240001Y-97540000D02*
X135780001Y-99000000D01*
X126500000Y-120750000D02*
X128750000Y-123000000D01*
X135780001Y-99000000D02*
X130865688Y-99000000D01*
X142720000Y-97540000D02*
X142720000Y-93780000D01*
X166000000Y-101000000D02*
X157000000Y-110000000D01*
X142720000Y-93780000D02*
X143500000Y-93000000D01*
X156080800Y-116419200D02*
X155500000Y-117000000D01*
X161500000Y-93000000D02*
X166000000Y-97500000D01*
X143000000Y-97260000D02*
X142720000Y-97540000D01*
X143500000Y-93000000D02*
X161500000Y-93000000D01*
X157000000Y-110000000D02*
X157000000Y-116027066D01*
X156607866Y-116419200D02*
X156080800Y-116419200D01*
X166000000Y-97500000D02*
X166000000Y-101000000D01*
X154500000Y-118824566D02*
X154500000Y-119500000D01*
X152785000Y-121215000D02*
X151810000Y-121215000D01*
X155500000Y-117000000D02*
X155500000Y-117824566D01*
X155500000Y-117824566D02*
X154500000Y-118824566D01*
X154500000Y-119500000D02*
X152785000Y-121215000D01*
X157000000Y-116027066D02*
X156607866Y-116419200D01*
X125500000Y-98500000D02*
X125500000Y-122434314D01*
X129020002Y-97540000D02*
X126460000Y-97540000D01*
X126460000Y-97540000D02*
X125500000Y-98500000D01*
X159430000Y-122570000D02*
X159430000Y-121215000D01*
X158000000Y-124000000D02*
X159430000Y-122570000D01*
X125500000Y-122434314D02*
X127065686Y-124000000D01*
X127065686Y-124000000D02*
X158000000Y-124000000D01*
X155620000Y-122880000D02*
X155620000Y-119310000D01*
X131760002Y-97540000D02*
X126000000Y-103300002D01*
X155000000Y-123500000D02*
X155620000Y-122880000D01*
X126000000Y-121000000D02*
X128500000Y-123500000D01*
X128500000Y-123500000D02*
X155000000Y-123500000D01*
X126000000Y-103300002D02*
X126000000Y-121000000D01*
X150500000Y-122000000D02*
X150500000Y-121000000D01*
X139980001Y-97540000D02*
X138020001Y-99500000D01*
X138020001Y-99500000D02*
X131000000Y-99500000D01*
X127000000Y-103500000D02*
X127000000Y-120500000D01*
X152190000Y-119310000D02*
X153080000Y-119310000D01*
X131000000Y-99500000D02*
X127000000Y-103500000D01*
X127000000Y-120500000D02*
X129000000Y-122500000D01*
X150500000Y-121000000D02*
X152190000Y-119310000D01*
X129000000Y-122500000D02*
X150000000Y-122500000D01*
X150000000Y-122500000D02*
X150500000Y-122000000D01*
X159159998Y-97540000D02*
X158460000Y-97540000D01*
X141500000Y-114500000D02*
X141500000Y-116000000D01*
X141500000Y-116000000D02*
X140500000Y-117000000D01*
X138690000Y-119310000D02*
X137840000Y-119310000D01*
X140500000Y-117500000D02*
X138690000Y-119310000D01*
X140500000Y-117000000D02*
X140500000Y-117500000D01*
X158460000Y-97540000D02*
X141500000Y-114500000D01*
X135300000Y-113179999D02*
X135300000Y-115500000D01*
X150939999Y-97540000D02*
X135300000Y-113179999D01*
X135500000Y-117715868D02*
X134030000Y-119185868D01*
X136500000Y-116080868D02*
X135500000Y-117080868D01*
X136500000Y-114719999D02*
X136500000Y-116080868D01*
X153679999Y-97540000D02*
X136500000Y-114719999D01*
X135500000Y-117080868D02*
X135500000Y-117715868D01*
X134030000Y-119185868D02*
X134030000Y-121215000D01*
X121965000Y-118954400D02*
X122219000Y-119208400D01*
X168955000Y-118954400D02*
X168701000Y-119208400D01*
X145460000Y-97540000D02*
X130220000Y-112780000D01*
X130220000Y-112780000D02*
X130220000Y-115500000D01*
X131500000Y-116000868D02*
X130220000Y-117280868D01*
X130220000Y-117280868D02*
X130220000Y-119310000D01*
X131500000Y-114240000D02*
X131500000Y-116000868D01*
X148200000Y-97540000D02*
X131500000Y-114240000D01*
X163500000Y-97000000D02*
X163500000Y-98500000D01*
X162500000Y-96000000D02*
X163500000Y-97000000D01*
X145460000Y-117040000D02*
X145460000Y-119310000D01*
X161000000Y-95227909D02*
X161040000Y-95227909D01*
X147000000Y-115000000D02*
X147000000Y-115500000D01*
X147000000Y-115500000D02*
X145460000Y-117040000D01*
X160772091Y-95000000D02*
X161000000Y-95227909D01*
X161812091Y-96000000D02*
X162500000Y-96000000D01*
X163500000Y-98500000D02*
X147000000Y-115000000D01*
X161040000Y-95227909D02*
X161812091Y-96000000D01*
X160529998Y-95000000D02*
X160772091Y-95000000D01*
X143000000Y-116974200D02*
X143000000Y-117500000D01*
X140285000Y-121215000D02*
X139110000Y-121215000D01*
X143000000Y-117500000D02*
X141974200Y-118525800D01*
X144000000Y-115974200D02*
X143000000Y-116974200D01*
X161899998Y-97540000D02*
X160960000Y-97540000D01*
X141974200Y-119525800D02*
X140285000Y-121215000D01*
X141974200Y-118525800D02*
X141974200Y-119525800D01*
X160960000Y-97540000D02*
X144000000Y-114500000D01*
X144000000Y-114500000D02*
X144000000Y-115974200D01*
X161665686Y-92600000D02*
X166500000Y-97434314D01*
X159500000Y-114000000D02*
X159500000Y-115660000D01*
X166500000Y-97434314D02*
X166500000Y-112500000D01*
X165500000Y-113500000D02*
X160000000Y-113500000D01*
X159500000Y-115660000D02*
X158160000Y-117000000D01*
X158160000Y-117000000D02*
X158160000Y-119310000D01*
X135530002Y-92600000D02*
X161665686Y-92600000D01*
X133130002Y-95000000D02*
X135530002Y-92600000D01*
X166500000Y-112500000D02*
X165500000Y-113500000D01*
X160000000Y-113500000D02*
X159500000Y-114000000D01*
X156419998Y-97540000D02*
X139000000Y-114959998D01*
X138000000Y-117055800D02*
X138000000Y-117755868D01*
X139000000Y-116055800D02*
X138000000Y-117055800D01*
X139000000Y-114959998D02*
X139000000Y-116055800D01*
X138000000Y-117755868D02*
X136570000Y-119185868D01*
X136570000Y-119185868D02*
X136570000Y-121215000D01*
G04 #@! TA.AperFunction,Conductor*
G36*
X119705203Y-97032339D02*
G01*
X119741931Y-97087734D01*
X119764466Y-97157092D01*
X119764468Y-97157096D01*
X119893313Y-97430904D01*
X119893317Y-97430910D01*
X120055460Y-97686408D01*
X120136761Y-97784684D01*
X120674236Y-97247209D01*
X120745688Y-97345554D01*
X120929446Y-97529312D01*
X121027788Y-97600762D01*
X120487984Y-98140566D01*
X120487985Y-98140568D01*
X120713786Y-98304621D01*
X120978983Y-98450415D01*
X120978984Y-98450416D01*
X121260340Y-98561811D01*
X121553457Y-98637071D01*
X121553466Y-98637073D01*
X121853678Y-98674999D01*
X121853692Y-98675000D01*
X122156308Y-98675000D01*
X122156321Y-98674999D01*
X122456533Y-98637073D01*
X122456542Y-98637071D01*
X122749659Y-98561811D01*
X123031015Y-98450416D01*
X123031016Y-98450415D01*
X123296208Y-98304624D01*
X123522013Y-98140567D01*
X123522014Y-98140566D01*
X122982210Y-97600762D01*
X123080554Y-97529312D01*
X123264312Y-97345554D01*
X123335763Y-97247210D01*
X123873237Y-97784684D01*
X123954536Y-97686413D01*
X124116682Y-97430910D01*
X124116686Y-97430904D01*
X124163302Y-97331841D01*
X124209657Y-97279563D01*
X124276917Y-97260646D01*
X124343727Y-97281095D01*
X124388876Y-97334419D01*
X124399500Y-97384638D01*
X124399500Y-117678398D01*
X124379815Y-117745437D01*
X124327011Y-117791192D01*
X124257853Y-117801136D01*
X124194297Y-117772111D01*
X124179957Y-117757439D01*
X124127237Y-117693713D01*
X123589762Y-118231188D01*
X123518312Y-118132846D01*
X123334554Y-117949088D01*
X123236209Y-117877636D01*
X123776014Y-117337832D01*
X123776013Y-117337830D01*
X123550213Y-117173778D01*
X123285016Y-117027984D01*
X123285015Y-117027983D01*
X123003659Y-116916588D01*
X122710542Y-116841328D01*
X122710533Y-116841326D01*
X122410321Y-116803400D01*
X122107678Y-116803400D01*
X121807466Y-116841326D01*
X121807457Y-116841328D01*
X121514340Y-116916588D01*
X121232984Y-117027983D01*
X121232983Y-117027984D01*
X120967789Y-117173777D01*
X120967777Y-117173784D01*
X120741985Y-117337831D01*
X120741984Y-117337832D01*
X121281789Y-117877637D01*
X121183446Y-117949088D01*
X120999688Y-118132846D01*
X120928237Y-118231189D01*
X120390761Y-117693713D01*
X120309463Y-117791986D01*
X120147317Y-118047489D01*
X120147313Y-118047495D01*
X120018468Y-118321303D01*
X120018466Y-118321308D01*
X119924953Y-118609113D01*
X119868246Y-118906381D01*
X119868245Y-118906388D01*
X119849245Y-119208394D01*
X119849245Y-119208405D01*
X119868245Y-119510411D01*
X119868246Y-119510418D01*
X119924953Y-119807686D01*
X120018466Y-120095491D01*
X120018468Y-120095496D01*
X120147313Y-120369304D01*
X120147317Y-120369310D01*
X120309460Y-120624808D01*
X120390761Y-120723084D01*
X120928236Y-120185609D01*
X120999688Y-120283954D01*
X121183446Y-120467712D01*
X121281788Y-120539162D01*
X120741984Y-121078966D01*
X120741985Y-121078968D01*
X120967786Y-121243021D01*
X121232983Y-121388815D01*
X121232984Y-121388816D01*
X121514340Y-121500211D01*
X121807457Y-121575471D01*
X121807466Y-121575473D01*
X122107678Y-121613399D01*
X122107692Y-121613400D01*
X122410308Y-121613400D01*
X122410321Y-121613399D01*
X122710533Y-121575473D01*
X122710542Y-121575471D01*
X123003659Y-121500211D01*
X123285015Y-121388816D01*
X123285016Y-121388815D01*
X123550208Y-121243024D01*
X123776013Y-121078967D01*
X123776014Y-121078966D01*
X123236210Y-120539162D01*
X123334554Y-120467712D01*
X123518312Y-120283954D01*
X123589763Y-120185610D01*
X124127237Y-120723084D01*
X124179957Y-120659359D01*
X124237857Y-120620253D01*
X124307709Y-120618657D01*
X124367334Y-120655080D01*
X124397803Y-120717956D01*
X124399500Y-120738401D01*
X124399500Y-122376000D01*
X124379815Y-122443039D01*
X124327011Y-122488794D01*
X124275500Y-122500000D01*
X119624000Y-122500000D01*
X119556961Y-122480315D01*
X119511206Y-122427511D01*
X119500000Y-122376000D01*
X119500000Y-97126052D01*
X119519685Y-97059013D01*
X119572489Y-97013258D01*
X119641647Y-97003314D01*
X119705203Y-97032339D01*
G37*
G04 #@! TD.AperFunction*
G04 #@! TA.AperFunction,Conductor*
G36*
X171430711Y-97014774D02*
G01*
X171482187Y-97062018D01*
X171500000Y-97126052D01*
X171500000Y-122376000D01*
X171480315Y-122443039D01*
X171427511Y-122488794D01*
X171376000Y-122500000D01*
X162548598Y-122500000D01*
X162481559Y-122480315D01*
X162435804Y-122427511D01*
X162425860Y-122358353D01*
X162454885Y-122294797D01*
X162460917Y-122288319D01*
X162623613Y-122125623D01*
X162980520Y-121768716D01*
X163059577Y-121631784D01*
X163100501Y-121479057D01*
X163100501Y-121320942D01*
X163100501Y-121313347D01*
X163100500Y-121313329D01*
X163100500Y-119920943D01*
X163096042Y-119904308D01*
X163096041Y-119904303D01*
X163089534Y-119880018D01*
X163089534Y-119880019D01*
X163059577Y-119768216D01*
X163059573Y-119768209D01*
X162980524Y-119631290D01*
X162980521Y-119631286D01*
X162980520Y-119631284D01*
X162868716Y-119519480D01*
X162868715Y-119519479D01*
X162864385Y-119515149D01*
X162864374Y-119515139D01*
X162557629Y-119208394D01*
X166331245Y-119208394D01*
X166331245Y-119208405D01*
X166350245Y-119510411D01*
X166350246Y-119510418D01*
X166406953Y-119807686D01*
X166500466Y-120095491D01*
X166500468Y-120095496D01*
X166629313Y-120369304D01*
X166629317Y-120369310D01*
X166791460Y-120624808D01*
X166872761Y-120723084D01*
X167410236Y-120185609D01*
X167481688Y-120283954D01*
X167665446Y-120467712D01*
X167763788Y-120539162D01*
X167223984Y-121078966D01*
X167223985Y-121078968D01*
X167449786Y-121243021D01*
X167714983Y-121388815D01*
X167714984Y-121388816D01*
X167996340Y-121500211D01*
X168289457Y-121575471D01*
X168289466Y-121575473D01*
X168589678Y-121613399D01*
X168589692Y-121613400D01*
X168892308Y-121613400D01*
X168892321Y-121613399D01*
X169192533Y-121575473D01*
X169192542Y-121575471D01*
X169485659Y-121500211D01*
X169767015Y-121388816D01*
X169767016Y-121388815D01*
X170032208Y-121243024D01*
X170258013Y-121078967D01*
X170258014Y-121078966D01*
X169718210Y-120539162D01*
X169816554Y-120467712D01*
X170000312Y-120283954D01*
X170071763Y-120185610D01*
X170609237Y-120723084D01*
X170690536Y-120624813D01*
X170852682Y-120369310D01*
X170852686Y-120369304D01*
X170981531Y-120095496D01*
X170981533Y-120095491D01*
X171075046Y-119807686D01*
X171131753Y-119510418D01*
X171131754Y-119510411D01*
X171150755Y-119208405D01*
X171150755Y-119208394D01*
X171131754Y-118906388D01*
X171131753Y-118906381D01*
X171075046Y-118609113D01*
X170981533Y-118321308D01*
X170981531Y-118321303D01*
X170852686Y-118047495D01*
X170852682Y-118047489D01*
X170690539Y-117791991D01*
X170609236Y-117693713D01*
X170071761Y-118231188D01*
X170000312Y-118132846D01*
X169816554Y-117949088D01*
X169718209Y-117877636D01*
X170258014Y-117337832D01*
X170258013Y-117337830D01*
X170032213Y-117173778D01*
X169767016Y-117027984D01*
X169767015Y-117027983D01*
X169485659Y-116916588D01*
X169192542Y-116841328D01*
X169192533Y-116841326D01*
X168892321Y-116803400D01*
X168589678Y-116803400D01*
X168289466Y-116841326D01*
X168289457Y-116841328D01*
X167996340Y-116916588D01*
X167714984Y-117027983D01*
X167714983Y-117027984D01*
X167449789Y-117173777D01*
X167449777Y-117173784D01*
X167223985Y-117337831D01*
X167223984Y-117337832D01*
X167763789Y-117877637D01*
X167665446Y-117949088D01*
X167481688Y-118132846D01*
X167410237Y-118231189D01*
X166872761Y-117693713D01*
X166791463Y-117791986D01*
X166629317Y-118047489D01*
X166629313Y-118047495D01*
X166500468Y-118321303D01*
X166500466Y-118321308D01*
X166406953Y-118609113D01*
X166350246Y-118906381D01*
X166350245Y-118906388D01*
X166331245Y-119208394D01*
X162557629Y-119208394D01*
X162297590Y-118948355D01*
X162297588Y-118948352D01*
X162178717Y-118829481D01*
X162178716Y-118829480D01*
X162091904Y-118779360D01*
X162091904Y-118779359D01*
X162091900Y-118779358D01*
X162041785Y-118750423D01*
X161889057Y-118709499D01*
X161889054Y-118709499D01*
X161834826Y-118709499D01*
X161767787Y-118689814D01*
X161735872Y-118660225D01*
X161620445Y-118507374D01*
X161620442Y-118507371D01*
X161457968Y-118359257D01*
X161431854Y-118343088D01*
X161271046Y-118243519D01*
X161271044Y-118243518D01*
X161200282Y-118216105D01*
X161066037Y-118164098D01*
X160849927Y-118123700D01*
X160637630Y-118123700D01*
X160570591Y-118104015D01*
X160524836Y-118051211D01*
X160514892Y-117982053D01*
X160526630Y-117944428D01*
X160580930Y-117835379D01*
X160580931Y-117835377D01*
X160641096Y-117623916D01*
X160661382Y-117405000D01*
X160641096Y-117186084D01*
X160580931Y-116974623D01*
X160526630Y-116865572D01*
X160514369Y-116796787D01*
X160541242Y-116732292D01*
X160598717Y-116692564D01*
X160637630Y-116686300D01*
X160849925Y-116686300D01*
X160849927Y-116686300D01*
X161066037Y-116645902D01*
X161271045Y-116566481D01*
X161457968Y-116450743D01*
X161620442Y-116302629D01*
X161752933Y-116127182D01*
X161850931Y-115930377D01*
X161911096Y-115718916D01*
X161931382Y-115500000D01*
X161911096Y-115281084D01*
X161850931Y-115069623D01*
X161850930Y-115069620D01*
X161752936Y-114872823D01*
X161752931Y-114872815D01*
X161718468Y-114827179D01*
X161620442Y-114697371D01*
X161457968Y-114549257D01*
X161377359Y-114499346D01*
X161271046Y-114433519D01*
X161271044Y-114433518D01*
X161159087Y-114390146D01*
X161066037Y-114354098D01*
X161024791Y-114346387D01*
X160962513Y-114314721D01*
X160927240Y-114254409D01*
X160930174Y-114184600D01*
X160970383Y-114127460D01*
X161035101Y-114101129D01*
X161047579Y-114100500D01*
X165413331Y-114100500D01*
X165413347Y-114100501D01*
X165420943Y-114100501D01*
X165579054Y-114100501D01*
X165579057Y-114100501D01*
X165731785Y-114059577D01*
X165781904Y-114030639D01*
X165868716Y-113980520D01*
X165980520Y-113868716D01*
X165980520Y-113868714D01*
X165990728Y-113858507D01*
X165990729Y-113858504D01*
X166980520Y-112868716D01*
X167059577Y-112731784D01*
X167100501Y-112579057D01*
X167100501Y-112420942D01*
X167100501Y-112413347D01*
X167100500Y-112413329D01*
X167100500Y-97862308D01*
X167120185Y-97795269D01*
X167136819Y-97774627D01*
X167664236Y-97247209D01*
X167735688Y-97345554D01*
X167919446Y-97529312D01*
X168017788Y-97600762D01*
X167477984Y-98140566D01*
X167477985Y-98140568D01*
X167703786Y-98304621D01*
X167968983Y-98450415D01*
X167968984Y-98450416D01*
X168250340Y-98561811D01*
X168543457Y-98637071D01*
X168543466Y-98637073D01*
X168843678Y-98674999D01*
X168843692Y-98675000D01*
X169146308Y-98675000D01*
X169146321Y-98674999D01*
X169446533Y-98637073D01*
X169446542Y-98637071D01*
X169739659Y-98561811D01*
X170021015Y-98450416D01*
X170021016Y-98450415D01*
X170286208Y-98304624D01*
X170512013Y-98140567D01*
X170512014Y-98140566D01*
X169972210Y-97600762D01*
X170070554Y-97529312D01*
X170254312Y-97345554D01*
X170325763Y-97247210D01*
X170863237Y-97784684D01*
X170944536Y-97686413D01*
X171106682Y-97430910D01*
X171106686Y-97430904D01*
X171235531Y-97157096D01*
X171235533Y-97157092D01*
X171258069Y-97087734D01*
X171297506Y-97030059D01*
X171361865Y-97002860D01*
X171430711Y-97014774D01*
G37*
G04 #@! TD.AperFunction*
G04 #@! TA.AperFunction,Conductor*
G36*
X171443039Y-91019685D02*
G01*
X171488794Y-91072489D01*
X171500000Y-91124000D01*
X171500000Y-95413947D01*
X171480315Y-95480986D01*
X171427511Y-95526741D01*
X171358353Y-95536685D01*
X171294797Y-95507660D01*
X171258069Y-95452265D01*
X171235533Y-95382908D01*
X171235531Y-95382903D01*
X171106686Y-95109095D01*
X171106682Y-95109089D01*
X170944539Y-94853591D01*
X170863236Y-94755313D01*
X170325761Y-95292788D01*
X170254312Y-95194446D01*
X170070554Y-95010688D01*
X169972209Y-94939236D01*
X170512014Y-94399432D01*
X170512013Y-94399430D01*
X170286213Y-94235378D01*
X170021016Y-94089584D01*
X170021015Y-94089583D01*
X169739659Y-93978188D01*
X169446542Y-93902928D01*
X169446533Y-93902926D01*
X169146321Y-93865000D01*
X168843678Y-93865000D01*
X168543466Y-93902926D01*
X168543457Y-93902928D01*
X168250340Y-93978188D01*
X167968984Y-94089583D01*
X167968983Y-94089584D01*
X167703789Y-94235377D01*
X167703777Y-94235384D01*
X167477985Y-94399431D01*
X167477984Y-94399432D01*
X168017789Y-94939237D01*
X167919446Y-95010688D01*
X167735688Y-95194446D01*
X167664237Y-95292789D01*
X167126761Y-94755313D01*
X167045463Y-94853586D01*
X166883317Y-95109089D01*
X166883313Y-95109095D01*
X166754468Y-95382903D01*
X166754466Y-95382908D01*
X166660953Y-95670713D01*
X166604246Y-95967981D01*
X166604245Y-95967988D01*
X166585245Y-96269994D01*
X166585245Y-96270006D01*
X166591516Y-96369693D01*
X166576080Y-96437836D01*
X166526252Y-96486816D01*
X166457855Y-96501082D01*
X166392602Y-96476104D01*
X166380080Y-96465159D01*
X162153276Y-92238355D01*
X162153274Y-92238352D01*
X162034403Y-92119481D01*
X162034402Y-92119480D01*
X161947590Y-92069360D01*
X161947590Y-92069359D01*
X161947586Y-92069358D01*
X161897471Y-92040423D01*
X161744743Y-91999499D01*
X161586629Y-91999499D01*
X161579033Y-91999499D01*
X161579017Y-91999500D01*
X135616672Y-91999500D01*
X135616656Y-91999499D01*
X135609060Y-91999499D01*
X135450945Y-91999499D01*
X135374581Y-92019961D01*
X135298216Y-92040423D01*
X135298211Y-92040426D01*
X135161292Y-92119475D01*
X135161284Y-92119481D01*
X133494696Y-93786069D01*
X133433373Y-93819554D01*
X133384231Y-93820277D01*
X133356908Y-93815169D01*
X133281106Y-93801000D01*
X133058898Y-93801000D01*
X132840474Y-93841830D01*
X132796006Y-93859057D01*
X132633274Y-93922099D01*
X132633268Y-93922102D01*
X132444348Y-94039076D01*
X132444346Y-94039078D01*
X132280135Y-94188775D01*
X132146224Y-94366103D01*
X132047182Y-94565005D01*
X132047176Y-94565020D01*
X131986368Y-94778738D01*
X131986367Y-94778740D01*
X131965865Y-94999999D01*
X131965865Y-95000000D01*
X131986367Y-95221259D01*
X131986368Y-95221261D01*
X132047176Y-95434979D01*
X132047182Y-95434994D01*
X132146224Y-95633896D01*
X132196727Y-95700773D01*
X132221419Y-95766135D01*
X132206854Y-95834469D01*
X132157656Y-95884082D01*
X132097773Y-95899500D01*
X131502231Y-95899500D01*
X131435192Y-95879815D01*
X131389437Y-95827011D01*
X131379493Y-95757853D01*
X131403277Y-95700773D01*
X131425977Y-95670713D01*
X131453780Y-95633896D01*
X131552826Y-95434984D01*
X131613636Y-95221260D01*
X131634139Y-95000000D01*
X131613636Y-94778740D01*
X131552826Y-94565016D01*
X131552820Y-94565004D01*
X131470375Y-94399432D01*
X131453780Y-94366104D01*
X131319870Y-94188778D01*
X131319868Y-94188775D01*
X131155657Y-94039078D01*
X131155655Y-94039076D01*
X130966735Y-93922102D01*
X130966729Y-93922099D01*
X130859082Y-93880397D01*
X130759530Y-93841830D01*
X130541106Y-93801000D01*
X130318898Y-93801000D01*
X130100474Y-93841830D01*
X130056006Y-93859057D01*
X129893274Y-93922099D01*
X129893268Y-93922102D01*
X129704348Y-94039076D01*
X129704346Y-94039078D01*
X129540135Y-94188775D01*
X129406224Y-94366103D01*
X129307182Y-94565005D01*
X129307176Y-94565020D01*
X129246368Y-94778738D01*
X129246367Y-94778740D01*
X129225865Y-94999999D01*
X129225865Y-95000000D01*
X129246367Y-95221259D01*
X129246368Y-95221261D01*
X129307176Y-95434979D01*
X129307182Y-95434994D01*
X129406224Y-95633896D01*
X129456727Y-95700773D01*
X129481419Y-95766135D01*
X129466854Y-95834469D01*
X129417656Y-95884082D01*
X129357773Y-95899500D01*
X125586670Y-95899500D01*
X125586654Y-95899499D01*
X125579058Y-95899499D01*
X125420943Y-95899499D01*
X125344579Y-95919961D01*
X125268214Y-95940423D01*
X125268209Y-95940426D01*
X125131290Y-96019475D01*
X125131282Y-96019481D01*
X124615509Y-96535254D01*
X124554186Y-96568739D01*
X124484494Y-96563755D01*
X124428561Y-96521883D01*
X124404144Y-96456419D01*
X124404073Y-96439787D01*
X124414755Y-96270005D01*
X124414755Y-96269994D01*
X124395754Y-95967988D01*
X124395753Y-95967981D01*
X124339046Y-95670713D01*
X124245533Y-95382908D01*
X124245531Y-95382903D01*
X124116686Y-95109095D01*
X124116682Y-95109089D01*
X123954539Y-94853591D01*
X123873236Y-94755313D01*
X123335761Y-95292788D01*
X123264312Y-95194446D01*
X123080554Y-95010688D01*
X122982209Y-94939236D01*
X123522014Y-94399432D01*
X123522013Y-94399430D01*
X123296213Y-94235378D01*
X123031016Y-94089584D01*
X123031015Y-94089583D01*
X122749659Y-93978188D01*
X122456542Y-93902928D01*
X122456533Y-93902926D01*
X122156321Y-93865000D01*
X121853678Y-93865000D01*
X121553466Y-93902926D01*
X121553457Y-93902928D01*
X121260340Y-93978188D01*
X120978984Y-94089583D01*
X120978983Y-94089584D01*
X120713789Y-94235377D01*
X120713777Y-94235384D01*
X120487985Y-94399431D01*
X120487984Y-94399432D01*
X121027789Y-94939237D01*
X120929446Y-95010688D01*
X120745688Y-95194446D01*
X120674237Y-95292789D01*
X120136761Y-94755313D01*
X120055463Y-94853586D01*
X119893317Y-95109089D01*
X119893313Y-95109095D01*
X119764468Y-95382903D01*
X119764466Y-95382908D01*
X119741931Y-95452265D01*
X119702493Y-95509941D01*
X119638135Y-95537139D01*
X119569289Y-95525224D01*
X119517813Y-95477980D01*
X119500000Y-95413947D01*
X119500000Y-91124000D01*
X119519685Y-91056961D01*
X119572489Y-91011206D01*
X119624000Y-91000000D01*
X171376000Y-91000000D01*
X171443039Y-91019685D01*
G37*
G04 #@! TD.AperFunction*
M02*
