%TF.GenerationSoftware,KiCad,Pcbnew,8.0.9*%
%TF.CreationDate,2025-07-20T02:31:45+09:00*%
%TF.ProjectId,HDB50_External,48444235-305f-4457-9874-65726e616c2e,rev?*%
%TF.SameCoordinates,Original*%
%TF.FileFunction,Drillmap*%
%TF.FilePolarity,Positive*%
%FSLAX45Y45*%
G04 Gerber Fmt 4.5, Leading zero omitted, Abs format (unit mm)*
G04 Created by KiCad (PCBNEW 8.0.9) date 2025-07-20 02:31:45*
%MOMM*%
%LPD*%
G01*
G04 APERTURE LIST*
%ADD10C,0.100000*%
%ADD11C,0.200000*%
G04 APERTURE END LIST*
D10*
X13405000Y-7406640D02*
X13582000Y-7584000D01*
X9650000Y-12727920D02*
X9650000Y-7404080D01*
X9650000Y-7404080D02*
X13405000Y-7406640D01*
X14905000Y-7407000D02*
X14905000Y-12730480D01*
X14905000Y-7407000D02*
X14450000Y-7407000D01*
X9650000Y-12727920D02*
X14905000Y-12730480D01*
X13582000Y-7584000D02*
X14273000Y-7584000D01*
X14450000Y-7407000D02*
X14273000Y-7584000D01*
D11*
X9905777Y-13046964D02*
X9905777Y-12846964D01*
X9905777Y-12846964D02*
X9953396Y-12846964D01*
X9953396Y-12846964D02*
X9981967Y-12856488D01*
X9981967Y-12856488D02*
X10001015Y-12875535D01*
X10001015Y-12875535D02*
X10010539Y-12894583D01*
X10010539Y-12894583D02*
X10020063Y-12932678D01*
X10020063Y-12932678D02*
X10020063Y-12961249D01*
X10020063Y-12961249D02*
X10010539Y-12999345D01*
X10010539Y-12999345D02*
X10001015Y-13018392D01*
X10001015Y-13018392D02*
X9981967Y-13037440D01*
X9981967Y-13037440D02*
X9953396Y-13046964D01*
X9953396Y-13046964D02*
X9905777Y-13046964D01*
X10105777Y-13046964D02*
X10105777Y-12913630D01*
X10105777Y-12951726D02*
X10115301Y-12932678D01*
X10115301Y-12932678D02*
X10124824Y-12923154D01*
X10124824Y-12923154D02*
X10143872Y-12913630D01*
X10143872Y-12913630D02*
X10162920Y-12913630D01*
X10229586Y-13046964D02*
X10229586Y-12913630D01*
X10229586Y-12846964D02*
X10220063Y-12856488D01*
X10220063Y-12856488D02*
X10229586Y-12866011D01*
X10229586Y-12866011D02*
X10239110Y-12856488D01*
X10239110Y-12856488D02*
X10229586Y-12846964D01*
X10229586Y-12846964D02*
X10229586Y-12866011D01*
X10353396Y-13046964D02*
X10334348Y-13037440D01*
X10334348Y-13037440D02*
X10324824Y-13018392D01*
X10324824Y-13018392D02*
X10324824Y-12846964D01*
X10458158Y-13046964D02*
X10439110Y-13037440D01*
X10439110Y-13037440D02*
X10429586Y-13018392D01*
X10429586Y-13018392D02*
X10429586Y-12846964D01*
X10686729Y-13046964D02*
X10686729Y-12846964D01*
X10686729Y-12846964D02*
X10753396Y-12989821D01*
X10753396Y-12989821D02*
X10820063Y-12846964D01*
X10820063Y-12846964D02*
X10820063Y-13046964D01*
X11001015Y-13046964D02*
X11001015Y-12942202D01*
X11001015Y-12942202D02*
X10991491Y-12923154D01*
X10991491Y-12923154D02*
X10972444Y-12913630D01*
X10972444Y-12913630D02*
X10934348Y-12913630D01*
X10934348Y-12913630D02*
X10915301Y-12923154D01*
X11001015Y-13037440D02*
X10981967Y-13046964D01*
X10981967Y-13046964D02*
X10934348Y-13046964D01*
X10934348Y-13046964D02*
X10915301Y-13037440D01*
X10915301Y-13037440D02*
X10905777Y-13018392D01*
X10905777Y-13018392D02*
X10905777Y-12999345D01*
X10905777Y-12999345D02*
X10915301Y-12980297D01*
X10915301Y-12980297D02*
X10934348Y-12970773D01*
X10934348Y-12970773D02*
X10981967Y-12970773D01*
X10981967Y-12970773D02*
X11001015Y-12961249D01*
X11096253Y-12913630D02*
X11096253Y-13113630D01*
X11096253Y-12923154D02*
X11115301Y-12913630D01*
X11115301Y-12913630D02*
X11153396Y-12913630D01*
X11153396Y-12913630D02*
X11172444Y-12923154D01*
X11172444Y-12923154D02*
X11181967Y-12932678D01*
X11181967Y-12932678D02*
X11191491Y-12951726D01*
X11191491Y-12951726D02*
X11191491Y-13008868D01*
X11191491Y-13008868D02*
X11181967Y-13027916D01*
X11181967Y-13027916D02*
X11172444Y-13037440D01*
X11172444Y-13037440D02*
X11153396Y-13046964D01*
X11153396Y-13046964D02*
X11115301Y-13046964D01*
X11115301Y-13046964D02*
X11096253Y-13037440D01*
X11277205Y-13027916D02*
X11286729Y-13037440D01*
X11286729Y-13037440D02*
X11277205Y-13046964D01*
X11277205Y-13046964D02*
X11267682Y-13037440D01*
X11267682Y-13037440D02*
X11277205Y-13027916D01*
X11277205Y-13027916D02*
X11277205Y-13046964D01*
X11277205Y-12923154D02*
X11286729Y-12932678D01*
X11286729Y-12932678D02*
X11277205Y-12942202D01*
X11277205Y-12942202D02*
X11267682Y-12932678D01*
X11267682Y-12932678D02*
X11277205Y-12923154D01*
X11277205Y-12923154D02*
X11277205Y-12942202D01*
M02*
