G04 #@! TF.GenerationSoftware,KiCad,Pcbnew,8.0.9*
G04 #@! TF.CreationDate,2025-07-20T02:28:49+09:00*
G04 #@! TF.ProjectId,HDB50_External,48444235-305f-4457-9874-65726e616c2e,rev?*
G04 #@! TF.SameCoordinates,Original*
G04 #@! TF.FileFunction,Paste,Top*
G04 #@! TF.FilePolarity,Positive*
%FSLAX46Y46*%
G04 Gerber Fmt 4.6, Leading zero omitted, Abs format (unit mm)*
G04 Created by KiCad (PCBNEW 8.0.9) date 2025-07-20 02:28:49*
%MOMM*%
%LPD*%
G01*
G04 APERTURE LIST*
G04 Aperture macros list*
%AMRoundRect*
0 Rectangle with rounded corners*
0 $1 Rounding radius*
0 $2 $3 $4 $5 $6 $7 $8 $9 X,Y pos of 4 corners*
0 Add a 4 corners polygon primitive as box body*
4,1,4,$2,$3,$4,$5,$6,$7,$8,$9,$2,$3,0*
0 Add four circle primitives for the rounded corners*
1,1,$1+$1,$2,$3*
1,1,$1+$1,$4,$5*
1,1,$1+$1,$6,$7*
1,1,$1+$1,$8,$9*
0 Add four rect primitives between the rounded corners*
20,1,$1+$1,$2,$3,$4,$5,0*
20,1,$1+$1,$4,$5,$6,$7,0*
20,1,$1+$1,$6,$7,$8,$9,0*
20,1,$1+$1,$8,$9,$2,$3,0*%
G04 Aperture macros list end*
%ADD10RoundRect,0.250001X0.462499X0.624999X-0.462499X0.624999X-0.462499X-0.624999X0.462499X-0.624999X0*%
%ADD11RoundRect,0.375000X-0.375000X0.625000X-0.375000X-0.625000X0.375000X-0.625000X0.375000X0.625000X0*%
%ADD12RoundRect,0.500000X-1.400000X0.500000X-1.400000X-0.500000X1.400000X-0.500000X1.400000X0.500000X0*%
%ADD13RoundRect,0.250000X0.325000X0.450000X-0.325000X0.450000X-0.325000X-0.450000X0.325000X-0.450000X0*%
%ADD14RoundRect,0.250000X0.450000X-0.325000X0.450000X0.325000X-0.450000X0.325000X-0.450000X-0.325000X0*%
%ADD15RoundRect,0.250000X0.650000X-1.000000X0.650000X1.000000X-0.650000X1.000000X-0.650000X-1.000000X0*%
%ADD16RoundRect,0.237500X0.250000X0.237500X-0.250000X0.237500X-0.250000X-0.237500X0.250000X-0.237500X0*%
%ADD17RoundRect,0.237500X-0.250000X-0.237500X0.250000X-0.237500X0.250000X0.237500X-0.250000X0.237500X0*%
%ADD18RoundRect,0.237500X-0.237500X0.287500X-0.237500X-0.287500X0.237500X-0.287500X0.237500X0.287500X0*%
%ADD19RoundRect,0.237500X0.237500X-0.287500X0.237500X0.287500X-0.237500X0.287500X-0.237500X-0.287500X0*%
%ADD20RoundRect,0.100000X0.637500X0.100000X-0.637500X0.100000X-0.637500X-0.100000X0.637500X-0.100000X0*%
%ADD21RoundRect,0.250000X-0.337500X-0.475000X0.337500X-0.475000X0.337500X0.475000X-0.337500X0.475000X0*%
%ADD22RoundRect,0.100000X-0.637500X-0.100000X0.637500X-0.100000X0.637500X0.100000X-0.637500X0.100000X0*%
%ADD23RoundRect,0.125000X-0.125000X-0.415000X0.125000X-0.415000X0.125000X0.415000X-0.125000X0.415000X0*%
%ADD24RoundRect,0.262500X-0.262500X-0.337500X0.262500X-0.337500X0.262500X0.337500X-0.262500X0.337500X0*%
%ADD25RoundRect,0.150000X0.150000X-0.825000X0.150000X0.825000X-0.150000X0.825000X-0.150000X-0.825000X0*%
%ADD26RoundRect,0.237500X0.300000X0.237500X-0.300000X0.237500X-0.300000X-0.237500X0.300000X-0.237500X0*%
%ADD27RoundRect,0.250000X-0.450000X0.325000X-0.450000X-0.325000X0.450000X-0.325000X0.450000X0.325000X0*%
%ADD28RoundRect,0.250000X-0.325000X-0.450000X0.325000X-0.450000X0.325000X0.450000X-0.325000X0.450000X0*%
%ADD29RoundRect,0.237500X0.237500X-0.300000X0.237500X0.300000X-0.237500X0.300000X-0.237500X-0.300000X0*%
%ADD30RoundRect,0.237500X0.237500X-0.250000X0.237500X0.250000X-0.237500X0.250000X-0.237500X-0.250000X0*%
%ADD31RoundRect,0.237500X-0.237500X0.250000X-0.237500X-0.250000X0.237500X-0.250000X0.237500X0.250000X0*%
G04 APERTURE END LIST*
D10*
X113187500Y-95800000D03*
X110212500Y-95800000D03*
X114688400Y-109042200D03*
X111713400Y-109042200D03*
D11*
X119622600Y-98247200D03*
X117322600Y-98247200D03*
D12*
X117322600Y-104547200D03*
D11*
X115022600Y-98247200D03*
D13*
X112801400Y-98247200D03*
X110751400Y-98247200D03*
X114588400Y-106857800D03*
X112538400Y-106857800D03*
D14*
X111709200Y-113327400D03*
X111709200Y-111277400D03*
D13*
X137352760Y-90533600D03*
X135302760Y-90533600D03*
D15*
X111760000Y-119951000D03*
X111760000Y-115951000D03*
D16*
X144222500Y-113320000D03*
X142397500Y-113320000D03*
D17*
X110820200Y-75900000D03*
X112645200Y-75900000D03*
X110820200Y-82270600D03*
X112645200Y-82270600D03*
X114405400Y-118000000D03*
X116230400Y-118000000D03*
X114405400Y-114821200D03*
X116230400Y-114821200D03*
D16*
X112623600Y-101295200D03*
X110798600Y-101295200D03*
D18*
X132310000Y-75180000D03*
X132310000Y-76930000D03*
D17*
X110843700Y-85598000D03*
X112668700Y-85598000D03*
X114405400Y-111570000D03*
X116230400Y-111570000D03*
X114405400Y-116400000D03*
X116230400Y-116400000D03*
D13*
X134627500Y-123840000D03*
X132577500Y-123840000D03*
D17*
X110820200Y-79065050D03*
X112645200Y-79065050D03*
D19*
X110794800Y-104634000D03*
X110794800Y-102884000D03*
D20*
X139692500Y-122135000D03*
X139692500Y-121485000D03*
X139692500Y-120835000D03*
X139692500Y-120185000D03*
X139692500Y-119535000D03*
X139692500Y-118885000D03*
X139692500Y-118235000D03*
X139692500Y-117585000D03*
X139692500Y-116935000D03*
X139692500Y-116285000D03*
X133967500Y-116285000D03*
X133967500Y-116935000D03*
X133967500Y-117585000D03*
X133967500Y-118235000D03*
X133967500Y-118885000D03*
X133967500Y-119535000D03*
X133967500Y-120185000D03*
X133967500Y-120835000D03*
X133967500Y-121485000D03*
X133967500Y-122135000D03*
D16*
X144340000Y-101230000D03*
X142515000Y-101230000D03*
X144370000Y-116450000D03*
X142545000Y-116450000D03*
D17*
X110820200Y-80657700D03*
X112645200Y-80657700D03*
D21*
X118372500Y-110210000D03*
X120447500Y-110210000D03*
D16*
X144380000Y-103550000D03*
X142555000Y-103550000D03*
D17*
X114405400Y-121349000D03*
X116230400Y-121349000D03*
X110843700Y-87250000D03*
X112668700Y-87250000D03*
X133217500Y-102450000D03*
X135042500Y-102450000D03*
X110845600Y-83947000D03*
X112670600Y-83947000D03*
D22*
X116237500Y-90600000D03*
X116237500Y-91250000D03*
X116237500Y-91900000D03*
X116237500Y-92550000D03*
X116237500Y-93200000D03*
X116237500Y-93850000D03*
X116237500Y-94500000D03*
X121962500Y-94500000D03*
X121962500Y-93850000D03*
X121962500Y-93200000D03*
X121962500Y-92550000D03*
X121962500Y-91900000D03*
X121962500Y-91250000D03*
X121962500Y-90600000D03*
D21*
X123512500Y-78250000D03*
X125587500Y-78250000D03*
D17*
X110818300Y-88925400D03*
X112643300Y-88925400D03*
D23*
X135425000Y-78460000D03*
X136525000Y-78460000D03*
X137625000Y-78460000D03*
X138375000Y-78460000D03*
X139075000Y-78460000D03*
X139825000Y-78460000D03*
X140925000Y-78460000D03*
X142025000Y-78460000D03*
X143125000Y-78460000D03*
D24*
X134050000Y-80100000D03*
X134050000Y-84550000D03*
X144500000Y-80100000D03*
X144500000Y-84550000D03*
D16*
X143027400Y-108280200D03*
X141202400Y-108280200D03*
D25*
X132300000Y-100140000D03*
X133570000Y-100140000D03*
X134840000Y-100140000D03*
X136110000Y-100140000D03*
X137380000Y-100140000D03*
X138650000Y-100140000D03*
X139920000Y-100140000D03*
X139920000Y-95190000D03*
X138650000Y-95190000D03*
X137380000Y-95190000D03*
X136110000Y-95190000D03*
X134840000Y-95190000D03*
X133570000Y-95190000D03*
X132300000Y-95190000D03*
D16*
X144195800Y-110490000D03*
X142370800Y-110490000D03*
D21*
X136460000Y-123850000D03*
X138535000Y-123850000D03*
D26*
X125562500Y-84500000D03*
X123837500Y-84500000D03*
D17*
X114405400Y-113144800D03*
X116230400Y-113144800D03*
X114405400Y-122974500D03*
X116230400Y-122974500D03*
D22*
X115795050Y-78080000D03*
X115795050Y-78730000D03*
X115795050Y-79380000D03*
X115795050Y-80030000D03*
X115795050Y-80680000D03*
X115795050Y-81330000D03*
X115795050Y-81980000D03*
X121520050Y-81980000D03*
X121520050Y-81330000D03*
X121520050Y-80680000D03*
X121520050Y-80030000D03*
X121520050Y-79380000D03*
X121520050Y-78730000D03*
X121520050Y-78080000D03*
D27*
X112115600Y-122825400D03*
X112115600Y-124875400D03*
D13*
X137405000Y-88400000D03*
X135355000Y-88400000D03*
D16*
X143027400Y-106045000D03*
X141202400Y-106045000D03*
D26*
X112393900Y-91821000D03*
X110668900Y-91821000D03*
D17*
X114405400Y-124600000D03*
X116230400Y-124600000D03*
X124425000Y-93990000D03*
X126250000Y-93990000D03*
D16*
X125475000Y-119640000D03*
X123650000Y-119640000D03*
D20*
X124932500Y-118235000D03*
X124932500Y-117585000D03*
X124932500Y-116935000D03*
X124932500Y-116285000D03*
X124932500Y-115635000D03*
X124932500Y-114985000D03*
X124932500Y-114335000D03*
X124932500Y-113685000D03*
X124932500Y-113035000D03*
X124932500Y-112385000D03*
X119207500Y-112385000D03*
X119207500Y-113035000D03*
X119207500Y-113685000D03*
X119207500Y-114335000D03*
X119207500Y-114985000D03*
X119207500Y-115635000D03*
X119207500Y-116285000D03*
X119207500Y-116935000D03*
X119207500Y-117585000D03*
X119207500Y-118235000D03*
D22*
X116262878Y-84580000D03*
X116262878Y-85230000D03*
X116262878Y-85880000D03*
X116262878Y-86530000D03*
X116262878Y-87180000D03*
X116262878Y-87830000D03*
X116262878Y-88480000D03*
X121987878Y-88480000D03*
X121987878Y-87830000D03*
X121987878Y-87180000D03*
X121987878Y-86530000D03*
X121987878Y-85880000D03*
X121987878Y-85230000D03*
X121987878Y-84580000D03*
D28*
X119622000Y-119944800D03*
X121672000Y-119944800D03*
D29*
X124190000Y-92035000D03*
X124190000Y-90310000D03*
D17*
X110820200Y-77472400D03*
X112645200Y-77472400D03*
D30*
X125410084Y-82890084D03*
X125410084Y-81065084D03*
D17*
X114405400Y-119800000D03*
X116230400Y-119800000D03*
D26*
X125172500Y-76480000D03*
X123447500Y-76480000D03*
D16*
X144340000Y-98780600D03*
X142515000Y-98780600D03*
X144422500Y-119990000D03*
X142597500Y-119990000D03*
D31*
X123806084Y-81063184D03*
X123806084Y-82888184D03*
M02*
