G04 #@! TF.GenerationSoftware,KiCad,Pcbnew,8.0.9*
G04 #@! TF.CreationDate,2025-07-20T02:28:49+09:00*
G04 #@! TF.ProjectId,HDB50_External,48444235-305f-4457-9874-65726e616c2e,rev?*
G04 #@! TF.SameCoordinates,Original*
G04 #@! TF.FileFunction,Soldermask,Bot*
G04 #@! TF.FilePolarity,Negative*
%FSLAX46Y46*%
G04 Gerber Fmt 4.6, Leading zero omitted, Abs format (unit mm)*
G04 Created by KiCad (PCBNEW 8.0.9) date 2025-07-20 02:28:49*
%MOMM*%
%LPD*%
G01*
G04 APERTURE LIST*
G04 Aperture macros list*
%AMRoundRect*
0 Rectangle with rounded corners*
0 $1 Rounding radius*
0 $2 $3 $4 $5 $6 $7 $8 $9 X,Y pos of 4 corners*
0 Add a 4 corners polygon primitive as box body*
4,1,4,$2,$3,$4,$5,$6,$7,$8,$9,$2,$3,0*
0 Add four circle primitives for the rounded corners*
1,1,$1+$1,$2,$3*
1,1,$1+$1,$4,$5*
1,1,$1+$1,$6,$7*
1,1,$1+$1,$8,$9*
0 Add four rect primitives between the rounded corners*
20,1,$1+$1,$2,$3,$4,$5,0*
20,1,$1+$1,$4,$5,$6,$7,0*
20,1,$1+$1,$6,$7,$8,$9,0*
20,1,$1+$1,$8,$9,$2,$3,0*%
G04 Aperture macros list end*
%ADD10RoundRect,0.412500X0.412500X0.412500X-0.412500X0.412500X-0.412500X-0.412500X0.412500X-0.412500X0*%
%ADD11C,1.650000*%
%ADD12C,1.371600*%
%ADD13C,3.810000*%
G04 APERTURE END LIST*
D10*
X147196660Y-124104400D03*
D11*
X147196660Y-121564400D03*
X147196660Y-119024400D03*
X147196660Y-116484400D03*
X147196660Y-113944400D03*
X147196660Y-111404400D03*
X147196660Y-108864400D03*
X147196660Y-106324400D03*
X147196660Y-103784400D03*
X147196660Y-101244400D03*
X147196660Y-98704400D03*
X147196660Y-96164400D03*
X147196660Y-93624400D03*
X147196660Y-91084400D03*
X147196660Y-88544400D03*
X147196660Y-86004400D03*
X147196660Y-83464400D03*
X147196660Y-80924400D03*
X147196660Y-78384400D03*
X147196660Y-75844400D03*
X129416660Y-75844400D03*
X129416660Y-78384400D03*
X129416660Y-80924400D03*
X129416660Y-83464400D03*
X129416660Y-86004400D03*
X129416660Y-88544400D03*
X129416660Y-91084400D03*
X129416660Y-93624400D03*
X129416660Y-96164400D03*
X129416660Y-98704400D03*
X129416660Y-101244400D03*
X129416660Y-103784400D03*
X129416660Y-106324400D03*
X129416660Y-108864400D03*
X129416660Y-111404400D03*
X129416660Y-113944400D03*
X129416660Y-116484400D03*
X129416660Y-119024400D03*
X129416660Y-121564400D03*
X129416660Y-124104400D03*
D12*
X106215000Y-85420000D03*
X104310000Y-86690000D03*
X106215000Y-87960000D03*
X104310000Y-89230000D03*
X106215000Y-90500000D03*
X104310000Y-91770000D03*
X106215000Y-93040000D03*
X104310000Y-94310000D03*
X106215000Y-95580000D03*
X104310000Y-96850000D03*
X106215000Y-98120000D03*
X104310000Y-99390000D03*
X106215000Y-100660000D03*
X104310000Y-101930000D03*
X106215000Y-103200000D03*
X104310000Y-104470000D03*
X106215000Y-105740000D03*
X104310000Y-107010000D03*
X106215000Y-108280000D03*
X104310000Y-109550000D03*
X106215000Y-110820000D03*
X104310000Y-112090000D03*
X106215000Y-113360000D03*
X104310000Y-114630000D03*
X106215000Y-115900000D03*
X102405000Y-85420000D03*
X100500000Y-86690000D03*
X102405000Y-87960000D03*
X100500000Y-89230000D03*
X102405000Y-90500000D03*
X100500000Y-91770000D03*
X102405000Y-93040000D03*
X100500000Y-94310000D03*
X102405000Y-95580000D03*
X100500000Y-96850000D03*
X102405000Y-98120000D03*
X100500000Y-99390000D03*
X102405000Y-100660000D03*
X100500000Y-101930000D03*
X102405000Y-103200000D03*
X100500000Y-104470000D03*
X102405000Y-105740000D03*
X100500000Y-107010000D03*
X102405000Y-108280000D03*
X100500000Y-109550000D03*
X102405000Y-110820000D03*
X100500000Y-112090000D03*
X102405000Y-113360000D03*
X100500000Y-114630000D03*
X102405000Y-115900000D03*
D13*
X102506600Y-123901000D03*
X102506600Y-77419000D03*
M02*
