M48
; DRILL file {KiCad 8.0.9} date 2025-07-20T02:31:08+0900
; FORMAT={-:-/ absolute / metric / decimal}
; #@! TF.CreationDate,2025-07-20T02:31:08+09:00
; #@! TF.GenerationSoftware,Kicad,Pcbnew,8.0.9
; #@! TF.FileFunction,Plated,1,2,PTH
FMAT,2
METRIC
; #@! TA.AperFunction,Plated,PTH,ViaDrill
T1C0.300
; #@! TA.AperFunction,Plated,PTH,ViaDrill
T2C0.400
; #@! TA.AperFunction,Plated,PTH,ComponentDrill
T3C0.864
; #@! TA.AperFunction,Plated,PTH,ComponentDrill
T4C0.900
; #@! TA.AperFunction,Plated,PTH,ComponentDrill
T5C3.302
%
G90
G05
T1
X105.0Y-80.0
X106.0Y-80.0
X106.8Y-94.4
X107.0Y-80.0
X107.6Y-93.8
X108.0Y-80.0
X108.0Y-82.2
X108.4Y-92.0
X109.258Y-123.33
X109.6Y-93.0
X109.703Y-123.774
X110.185Y-124.257
X111.81Y-84.96
X113.077Y-90.754
X113.487Y-81.559
X113.66Y-79.045
X113.712Y-80.67
X113.83Y-87.16
X114.058Y-85.074
X114.071Y-75.006
X114.108Y-76.033
X114.114Y-77.983
X114.4Y-84.0
X117.23Y-113.83
X117.24Y-115.04
X117.32Y-95.44
X117.373Y-111.91
X117.432Y-116.672
X117.45Y-122.64
X117.517Y-123.707
X117.52Y-121.69
X117.525Y-87.825
X117.53Y-118.06
X117.67Y-124.39
X117.71Y-125.11
X117.868Y-86.06
X118.12Y-93.81
X118.3Y-83.3
X118.44Y-89.29
X118.54Y-80.07
X118.54Y-93.11
X119.082Y-84.252
X119.64Y-99.74
X119.7Y-81.33
X119.7Y-93.4
X119.836Y-84.041
X119.964Y-94.564
X120.0Y-90.1
X120.11Y-85.72
X120.41Y-76.62
X120.71Y-90.5
X120.86Y-98.72
X121.14Y-77.05
X122.14Y-76.13
X122.14Y-76.79
X122.66Y-101.36
X123.4Y-100.49
X123.49Y-97.78
X123.613Y-85.33
X123.679Y-89.242
X123.682Y-88.556
X123.758Y-85.96
X123.912Y-80.002
X124.109Y-105.471
X125.04Y-87.48
X125.07Y-88.67
X125.12Y-104.84
X125.16Y-75.54
X125.43Y-99.5
X125.71Y-79.65
X126.27Y-95.55
X126.31Y-100.01
X126.78Y-77.35
X126.933Y-84.467
X127.14Y-96.19
X127.2Y-82.0
X127.57Y-122.01
X131.06Y-75.15
X131.22Y-123.79
X132.31Y-82.58
X136.11Y-102.46
X137.42Y-97.59
X137.82Y-102.48
X139.81Y-80.93
X140.57Y-80.97
X147.832Y-125.984
T2
X107.3Y-112.1
X108.4Y-113.1
X110.795Y-106.4
X113.65Y-89.76
X113.93Y-91.75
X118.453Y-94.678
X120.89Y-95.377
X121.68Y-99.59
X121.69Y-118.36
X121.91Y-110.21
X121.928Y-96.44
X122.69Y-96.44
X122.94Y-113.15
X123.15Y-118.22
X123.452Y-96.44
X123.59Y-111.49
X124.94Y-111.09
X125.8Y-90.068
X125.81Y-92.08
X130.73Y-110.12
X130.86Y-115.57
X130.915Y-97.511
X133.5Y-88.4
X133.5Y-90.6
X133.57Y-93.0
X134.0Y-77.4
X135.57Y-121.49
X136.43Y-80.03
X137.97Y-115.9
X137.99Y-116.97
X138.99Y-81.85
X138.99Y-82.65
X138.99Y-83.32
X138.992Y-87.097
X138.992Y-87.859
X139.7Y-115.06
X140.02Y-123.84
X140.92Y-79.86
X141.35Y-81.3
X142.16Y-82.15
X143.0Y-93.6
X144.51Y-78.34
T3
X100.5Y-86.69
X100.5Y-89.23
X100.5Y-91.77
X100.5Y-94.31
X100.5Y-96.85
X100.5Y-99.39
X100.5Y-101.93
X100.5Y-104.47
X100.5Y-107.01
X100.5Y-109.55
X100.5Y-112.09
X100.5Y-114.63
X102.405Y-85.42
X102.405Y-87.96
X102.405Y-90.5
X102.405Y-93.04
X102.405Y-95.58
X102.405Y-98.12
X102.405Y-100.66
X102.405Y-103.2
X102.405Y-105.74
X102.405Y-108.28
X102.405Y-110.82
X102.405Y-113.36
X102.405Y-115.9
X104.31Y-86.69
X104.31Y-89.23
X104.31Y-91.77
X104.31Y-94.31
X104.31Y-96.85
X104.31Y-99.39
X104.31Y-101.93
X104.31Y-104.47
X104.31Y-107.01
X104.31Y-109.55
X104.31Y-112.09
X104.31Y-114.63
X106.215Y-85.42
X106.215Y-87.96
X106.215Y-90.5
X106.215Y-93.04
X106.215Y-95.58
X106.215Y-98.12
X106.215Y-100.66
X106.215Y-103.2
X106.215Y-105.74
X106.215Y-108.28
X106.215Y-110.82
X106.215Y-113.36
X106.215Y-115.9
T4
X129.417Y-75.844
X129.417Y-78.384
X129.417Y-80.924
X129.417Y-83.464
X129.417Y-86.004
X129.417Y-88.544
X129.417Y-91.084
X129.417Y-93.624
X129.417Y-96.164
X129.417Y-98.704
X129.417Y-101.244
X129.417Y-103.784
X129.417Y-106.324
X129.417Y-108.864
X129.417Y-111.404
X129.417Y-113.944
X129.417Y-116.484
X129.417Y-119.024
X129.417Y-121.564
X129.417Y-124.104
X147.197Y-75.844
X147.197Y-78.384
X147.197Y-80.924
X147.197Y-83.464
X147.197Y-86.004
X147.197Y-88.544
X147.197Y-91.084
X147.197Y-93.624
X147.197Y-96.164
X147.197Y-98.704
X147.197Y-101.244
X147.197Y-103.784
X147.197Y-106.324
X147.197Y-108.864
X147.197Y-111.404
X147.197Y-113.944
X147.197Y-116.484
X147.197Y-119.024
X147.197Y-121.564
X147.197Y-124.104
T5
X102.507Y-77.419
X102.507Y-123.901
M30
