G04 #@! TF.GenerationSoftware,KiCad,Pcbnew,8.0.9*
G04 #@! TF.CreationDate,2025-07-20T02:28:49+09:00*
G04 #@! TF.ProjectId,HDB50_External,48444235-305f-4457-9874-65726e616c2e,rev?*
G04 #@! TF.SameCoordinates,Original*
G04 #@! TF.FileFunction,Legend,Top*
G04 #@! TF.FilePolarity,Positive*
%FSLAX46Y46*%
G04 Gerber Fmt 4.6, Leading zero omitted, Abs format (unit mm)*
G04 Created by KiCad (PCBNEW 8.0.9) date 2025-07-20 02:28:49*
%MOMM*%
%LPD*%
G01*
G04 APERTURE LIST*
G04 Aperture macros list*
%AMRoundRect*
0 Rectangle with rounded corners*
0 $1 Rounding radius*
0 $2 $3 $4 $5 $6 $7 $8 $9 X,Y pos of 4 corners*
0 Add a 4 corners polygon primitive as box body*
4,1,4,$2,$3,$4,$5,$6,$7,$8,$9,$2,$3,0*
0 Add four circle primitives for the rounded corners*
1,1,$1+$1,$2,$3*
1,1,$1+$1,$4,$5*
1,1,$1+$1,$6,$7*
1,1,$1+$1,$8,$9*
0 Add four rect primitives between the rounded corners*
20,1,$1+$1,$2,$3,$4,$5,0*
20,1,$1+$1,$4,$5,$6,$7,0*
20,1,$1+$1,$6,$7,$8,$9,0*
20,1,$1+$1,$8,$9,$2,$3,0*%
G04 Aperture macros list end*
%ADD10C,0.150000*%
%ADD11C,0.120000*%
%ADD12C,0.152400*%
%ADD13RoundRect,0.250001X0.462499X0.624999X-0.462499X0.624999X-0.462499X-0.624999X0.462499X-0.624999X0*%
%ADD14RoundRect,0.375000X-0.375000X0.625000X-0.375000X-0.625000X0.375000X-0.625000X0.375000X0.625000X0*%
%ADD15RoundRect,0.500000X-1.400000X0.500000X-1.400000X-0.500000X1.400000X-0.500000X1.400000X0.500000X0*%
%ADD16RoundRect,0.412500X0.412500X0.412500X-0.412500X0.412500X-0.412500X-0.412500X0.412500X-0.412500X0*%
%ADD17C,1.650000*%
%ADD18RoundRect,0.250000X0.325000X0.450000X-0.325000X0.450000X-0.325000X-0.450000X0.325000X-0.450000X0*%
%ADD19RoundRect,0.250000X0.450000X-0.325000X0.450000X0.325000X-0.450000X0.325000X-0.450000X-0.325000X0*%
%ADD20RoundRect,0.250000X0.650000X-1.000000X0.650000X1.000000X-0.650000X1.000000X-0.650000X-1.000000X0*%
%ADD21RoundRect,0.237500X0.250000X0.237500X-0.250000X0.237500X-0.250000X-0.237500X0.250000X-0.237500X0*%
%ADD22RoundRect,0.237500X-0.250000X-0.237500X0.250000X-0.237500X0.250000X0.237500X-0.250000X0.237500X0*%
%ADD23RoundRect,0.237500X-0.237500X0.287500X-0.237500X-0.287500X0.237500X-0.287500X0.237500X0.287500X0*%
%ADD24RoundRect,0.237500X0.237500X-0.287500X0.237500X0.287500X-0.237500X0.287500X-0.237500X-0.287500X0*%
%ADD25RoundRect,0.100000X0.637500X0.100000X-0.637500X0.100000X-0.637500X-0.100000X0.637500X-0.100000X0*%
%ADD26RoundRect,0.250000X-0.337500X-0.475000X0.337500X-0.475000X0.337500X0.475000X-0.337500X0.475000X0*%
%ADD27RoundRect,0.100000X-0.637500X-0.100000X0.637500X-0.100000X0.637500X0.100000X-0.637500X0.100000X0*%
%ADD28RoundRect,0.125000X-0.125000X-0.415000X0.125000X-0.415000X0.125000X0.415000X-0.125000X0.415000X0*%
%ADD29RoundRect,0.262500X-0.262500X-0.337500X0.262500X-0.337500X0.262500X0.337500X-0.262500X0.337500X0*%
%ADD30RoundRect,0.150000X0.150000X-0.825000X0.150000X0.825000X-0.150000X0.825000X-0.150000X-0.825000X0*%
%ADD31C,1.371600*%
%ADD32C,3.810000*%
%ADD33RoundRect,0.237500X0.300000X0.237500X-0.300000X0.237500X-0.300000X-0.237500X0.300000X-0.237500X0*%
%ADD34RoundRect,0.250000X-0.450000X0.325000X-0.450000X-0.325000X0.450000X-0.325000X0.450000X0.325000X0*%
%ADD35RoundRect,0.250000X-0.325000X-0.450000X0.325000X-0.450000X0.325000X0.450000X-0.325000X0.450000X0*%
%ADD36RoundRect,0.237500X0.237500X-0.300000X0.237500X0.300000X-0.237500X0.300000X-0.237500X-0.300000X0*%
%ADD37RoundRect,0.237500X0.237500X-0.250000X0.237500X0.250000X-0.237500X0.250000X-0.237500X-0.250000X0*%
%ADD38RoundRect,0.237500X-0.237500X0.250000X-0.237500X-0.250000X0.237500X-0.250000X0.237500X0.250000X0*%
G04 APERTURE END LIST*
D10*
X133590895Y-74540952D02*
X133590895Y-75017142D01*
X133305180Y-74445714D02*
X134305180Y-74779047D01*
X134305180Y-74779047D02*
X133305180Y-75112380D01*
X133400419Y-76017142D02*
X133352800Y-75969523D01*
X133352800Y-75969523D02*
X133305180Y-75826666D01*
X133305180Y-75826666D02*
X133305180Y-75731428D01*
X133305180Y-75731428D02*
X133352800Y-75588571D01*
X133352800Y-75588571D02*
X133448038Y-75493333D01*
X133448038Y-75493333D02*
X133543276Y-75445714D01*
X133543276Y-75445714D02*
X133733752Y-75398095D01*
X133733752Y-75398095D02*
X133876609Y-75398095D01*
X133876609Y-75398095D02*
X134067085Y-75445714D01*
X134067085Y-75445714D02*
X134162323Y-75493333D01*
X134162323Y-75493333D02*
X134257561Y-75588571D01*
X134257561Y-75588571D02*
X134305180Y-75731428D01*
X134305180Y-75731428D02*
X134305180Y-75826666D01*
X134305180Y-75826666D02*
X134257561Y-75969523D01*
X134257561Y-75969523D02*
X134209942Y-76017142D01*
X134305180Y-76302857D02*
X134305180Y-76874285D01*
X133305180Y-76588571D02*
X134305180Y-76588571D01*
X114010952Y-75414819D02*
X114010952Y-74414819D01*
X114010952Y-74795771D02*
X114106190Y-74748152D01*
X114106190Y-74748152D02*
X114296666Y-74748152D01*
X114296666Y-74748152D02*
X114391904Y-74795771D01*
X114391904Y-74795771D02*
X114439523Y-74843390D01*
X114439523Y-74843390D02*
X114487142Y-74938628D01*
X114487142Y-74938628D02*
X114487142Y-75224342D01*
X114487142Y-75224342D02*
X114439523Y-75319580D01*
X114439523Y-75319580D02*
X114391904Y-75367200D01*
X114391904Y-75367200D02*
X114296666Y-75414819D01*
X114296666Y-75414819D02*
X114106190Y-75414819D01*
X114106190Y-75414819D02*
X114010952Y-75367200D01*
X115058571Y-75414819D02*
X114963333Y-75367200D01*
X114963333Y-75367200D02*
X114915714Y-75271961D01*
X114915714Y-75271961D02*
X114915714Y-74414819D01*
X115868095Y-74748152D02*
X115868095Y-75414819D01*
X115439524Y-74748152D02*
X115439524Y-75271961D01*
X115439524Y-75271961D02*
X115487143Y-75367200D01*
X115487143Y-75367200D02*
X115582381Y-75414819D01*
X115582381Y-75414819D02*
X115725238Y-75414819D01*
X115725238Y-75414819D02*
X115820476Y-75367200D01*
X115820476Y-75367200D02*
X115868095Y-75319580D01*
X116725238Y-75367200D02*
X116630000Y-75414819D01*
X116630000Y-75414819D02*
X116439524Y-75414819D01*
X116439524Y-75414819D02*
X116344286Y-75367200D01*
X116344286Y-75367200D02*
X116296667Y-75271961D01*
X116296667Y-75271961D02*
X116296667Y-74891009D01*
X116296667Y-74891009D02*
X116344286Y-74795771D01*
X116344286Y-74795771D02*
X116439524Y-74748152D01*
X116439524Y-74748152D02*
X116630000Y-74748152D01*
X116630000Y-74748152D02*
X116725238Y-74795771D01*
X116725238Y-74795771D02*
X116772857Y-74891009D01*
X116772857Y-74891009D02*
X116772857Y-74986247D01*
X116772857Y-74986247D02*
X116296667Y-75081485D01*
X117153810Y-75367200D02*
X117249048Y-75414819D01*
X117249048Y-75414819D02*
X117439524Y-75414819D01*
X117439524Y-75414819D02*
X117534762Y-75367200D01*
X117534762Y-75367200D02*
X117582381Y-75271961D01*
X117582381Y-75271961D02*
X117582381Y-75224342D01*
X117582381Y-75224342D02*
X117534762Y-75129104D01*
X117534762Y-75129104D02*
X117439524Y-75081485D01*
X117439524Y-75081485D02*
X117296667Y-75081485D01*
X117296667Y-75081485D02*
X117201429Y-75033866D01*
X117201429Y-75033866D02*
X117153810Y-74938628D01*
X117153810Y-74938628D02*
X117153810Y-74891009D01*
X117153810Y-74891009D02*
X117201429Y-74795771D01*
X117201429Y-74795771D02*
X117296667Y-74748152D01*
X117296667Y-74748152D02*
X117439524Y-74748152D01*
X117439524Y-74748152D02*
X117534762Y-74795771D01*
X118439524Y-75367200D02*
X118344286Y-75414819D01*
X118344286Y-75414819D02*
X118153810Y-75414819D01*
X118153810Y-75414819D02*
X118058572Y-75367200D01*
X118058572Y-75367200D02*
X118010953Y-75319580D01*
X118010953Y-75319580D02*
X117963334Y-75224342D01*
X117963334Y-75224342D02*
X117963334Y-74938628D01*
X117963334Y-74938628D02*
X118010953Y-74843390D01*
X118010953Y-74843390D02*
X118058572Y-74795771D01*
X118058572Y-74795771D02*
X118153810Y-74748152D01*
X118153810Y-74748152D02*
X118344286Y-74748152D01*
X118344286Y-74748152D02*
X118439524Y-74795771D01*
X118820477Y-75367200D02*
X118915715Y-75414819D01*
X118915715Y-75414819D02*
X119106191Y-75414819D01*
X119106191Y-75414819D02*
X119201429Y-75367200D01*
X119201429Y-75367200D02*
X119249048Y-75271961D01*
X119249048Y-75271961D02*
X119249048Y-75224342D01*
X119249048Y-75224342D02*
X119201429Y-75129104D01*
X119201429Y-75129104D02*
X119106191Y-75081485D01*
X119106191Y-75081485D02*
X118963334Y-75081485D01*
X118963334Y-75081485D02*
X118868096Y-75033866D01*
X118868096Y-75033866D02*
X118820477Y-74938628D01*
X118820477Y-74938628D02*
X118820477Y-74891009D01*
X118820477Y-74891009D02*
X118868096Y-74795771D01*
X118868096Y-74795771D02*
X118963334Y-74748152D01*
X118963334Y-74748152D02*
X119106191Y-74748152D01*
X119106191Y-74748152D02*
X119201429Y-74795771D01*
X119677620Y-75414819D02*
X119677620Y-74748152D01*
X119677620Y-74414819D02*
X119630001Y-74462438D01*
X119630001Y-74462438D02*
X119677620Y-74510057D01*
X119677620Y-74510057D02*
X119725239Y-74462438D01*
X119725239Y-74462438D02*
X119677620Y-74414819D01*
X119677620Y-74414819D02*
X119677620Y-74510057D01*
X120153810Y-75319580D02*
X120201429Y-75367200D01*
X120201429Y-75367200D02*
X120153810Y-75414819D01*
X120153810Y-75414819D02*
X120106191Y-75367200D01*
X120106191Y-75367200D02*
X120153810Y-75319580D01*
X120153810Y-75319580D02*
X120153810Y-75414819D01*
X121058571Y-75367200D02*
X120963333Y-75414819D01*
X120963333Y-75414819D02*
X120772857Y-75414819D01*
X120772857Y-75414819D02*
X120677619Y-75367200D01*
X120677619Y-75367200D02*
X120630000Y-75319580D01*
X120630000Y-75319580D02*
X120582381Y-75224342D01*
X120582381Y-75224342D02*
X120582381Y-74938628D01*
X120582381Y-74938628D02*
X120630000Y-74843390D01*
X120630000Y-74843390D02*
X120677619Y-74795771D01*
X120677619Y-74795771D02*
X120772857Y-74748152D01*
X120772857Y-74748152D02*
X120963333Y-74748152D01*
X120963333Y-74748152D02*
X121058571Y-74795771D01*
X121630000Y-75414819D02*
X121534762Y-75367200D01*
X121534762Y-75367200D02*
X121487143Y-75319580D01*
X121487143Y-75319580D02*
X121439524Y-75224342D01*
X121439524Y-75224342D02*
X121439524Y-74938628D01*
X121439524Y-74938628D02*
X121487143Y-74843390D01*
X121487143Y-74843390D02*
X121534762Y-74795771D01*
X121534762Y-74795771D02*
X121630000Y-74748152D01*
X121630000Y-74748152D02*
X121772857Y-74748152D01*
X121772857Y-74748152D02*
X121868095Y-74795771D01*
X121868095Y-74795771D02*
X121915714Y-74843390D01*
X121915714Y-74843390D02*
X121963333Y-74938628D01*
X121963333Y-74938628D02*
X121963333Y-75224342D01*
X121963333Y-75224342D02*
X121915714Y-75319580D01*
X121915714Y-75319580D02*
X121868095Y-75367200D01*
X121868095Y-75367200D02*
X121772857Y-75414819D01*
X121772857Y-75414819D02*
X121630000Y-75414819D01*
X122391905Y-75414819D02*
X122391905Y-74748152D01*
X122391905Y-74843390D02*
X122439524Y-74795771D01*
X122439524Y-74795771D02*
X122534762Y-74748152D01*
X122534762Y-74748152D02*
X122677619Y-74748152D01*
X122677619Y-74748152D02*
X122772857Y-74795771D01*
X122772857Y-74795771D02*
X122820476Y-74891009D01*
X122820476Y-74891009D02*
X122820476Y-75414819D01*
X122820476Y-74891009D02*
X122868095Y-74795771D01*
X122868095Y-74795771D02*
X122963333Y-74748152D01*
X122963333Y-74748152D02*
X123106190Y-74748152D01*
X123106190Y-74748152D02*
X123201429Y-74795771D01*
X123201429Y-74795771D02*
X123249048Y-74891009D01*
X123249048Y-74891009D02*
X123249048Y-75414819D01*
X114141428Y-126844819D02*
X113570000Y-126844819D01*
X113855714Y-126844819D02*
X113855714Y-125844819D01*
X113855714Y-125844819D02*
X113760476Y-125987676D01*
X113760476Y-125987676D02*
X113665238Y-126082914D01*
X113665238Y-126082914D02*
X113570000Y-126130533D01*
X115093809Y-126844819D02*
X114522381Y-126844819D01*
X114808095Y-126844819D02*
X114808095Y-125844819D01*
X114808095Y-125844819D02*
X114712857Y-125987676D01*
X114712857Y-125987676D02*
X114617619Y-126082914D01*
X114617619Y-126082914D02*
X114522381Y-126130533D01*
X115712857Y-125844819D02*
X115808095Y-125844819D01*
X115808095Y-125844819D02*
X115903333Y-125892438D01*
X115903333Y-125892438D02*
X115950952Y-125940057D01*
X115950952Y-125940057D02*
X115998571Y-126035295D01*
X115998571Y-126035295D02*
X116046190Y-126225771D01*
X116046190Y-126225771D02*
X116046190Y-126463866D01*
X116046190Y-126463866D02*
X115998571Y-126654342D01*
X115998571Y-126654342D02*
X115950952Y-126749580D01*
X115950952Y-126749580D02*
X115903333Y-126797200D01*
X115903333Y-126797200D02*
X115808095Y-126844819D01*
X115808095Y-126844819D02*
X115712857Y-126844819D01*
X115712857Y-126844819D02*
X115617619Y-126797200D01*
X115617619Y-126797200D02*
X115570000Y-126749580D01*
X115570000Y-126749580D02*
X115522381Y-126654342D01*
X115522381Y-126654342D02*
X115474762Y-126463866D01*
X115474762Y-126463866D02*
X115474762Y-126225771D01*
X115474762Y-126225771D02*
X115522381Y-126035295D01*
X115522381Y-126035295D02*
X115570000Y-125940057D01*
X115570000Y-125940057D02*
X115617619Y-125892438D01*
X115617619Y-125892438D02*
X115712857Y-125844819D01*
X116236667Y-126940057D02*
X116998571Y-126940057D01*
X117093810Y-125844819D02*
X117665238Y-125844819D01*
X117379524Y-126844819D02*
X117379524Y-125844819D01*
X110686639Y-90748408D02*
X110115211Y-90748408D01*
X110400925Y-90748408D02*
X110400925Y-89748408D01*
X110400925Y-89748408D02*
X110305687Y-89891265D01*
X110305687Y-89891265D02*
X110210449Y-89986503D01*
X110210449Y-89986503D02*
X110115211Y-90034122D01*
X111639020Y-90748408D02*
X111067592Y-90748408D01*
X111353306Y-90748408D02*
X111353306Y-89748408D01*
X111353306Y-89748408D02*
X111258068Y-89891265D01*
X111258068Y-89891265D02*
X111162830Y-89986503D01*
X111162830Y-89986503D02*
X111067592Y-90034122D01*
X112258068Y-89748408D02*
X112353306Y-89748408D01*
X112353306Y-89748408D02*
X112448544Y-89796027D01*
X112448544Y-89796027D02*
X112496163Y-89843646D01*
X112496163Y-89843646D02*
X112543782Y-89938884D01*
X112543782Y-89938884D02*
X112591401Y-90129360D01*
X112591401Y-90129360D02*
X112591401Y-90367455D01*
X112591401Y-90367455D02*
X112543782Y-90557931D01*
X112543782Y-90557931D02*
X112496163Y-90653169D01*
X112496163Y-90653169D02*
X112448544Y-90700789D01*
X112448544Y-90700789D02*
X112353306Y-90748408D01*
X112353306Y-90748408D02*
X112258068Y-90748408D01*
X112258068Y-90748408D02*
X112162830Y-90700789D01*
X112162830Y-90700789D02*
X112115211Y-90653169D01*
X112115211Y-90653169D02*
X112067592Y-90557931D01*
X112067592Y-90557931D02*
X112019973Y-90367455D01*
X112019973Y-90367455D02*
X112019973Y-90129360D01*
X112019973Y-90129360D02*
X112067592Y-89938884D01*
X112067592Y-89938884D02*
X112115211Y-89843646D01*
X112115211Y-89843646D02*
X112162830Y-89796027D01*
X112162830Y-89796027D02*
X112258068Y-89748408D01*
X112781878Y-90843646D02*
X113543782Y-90843646D01*
X113639021Y-89748408D02*
X114210449Y-89748408D01*
X113924735Y-90748408D02*
X113924735Y-89748408D01*
X112773619Y-105117732D02*
X111773619Y-105117732D01*
X111773619Y-105117732D02*
X111773619Y-104736780D01*
X111773619Y-104736780D02*
X111821238Y-104641542D01*
X111821238Y-104641542D02*
X111868857Y-104593923D01*
X111868857Y-104593923D02*
X111964095Y-104546304D01*
X111964095Y-104546304D02*
X112106952Y-104546304D01*
X112106952Y-104546304D02*
X112202190Y-104593923D01*
X112202190Y-104593923D02*
X112249809Y-104641542D01*
X112249809Y-104641542D02*
X112297428Y-104736780D01*
X112297428Y-104736780D02*
X112297428Y-105117732D01*
X111773619Y-104212970D02*
X112773619Y-103974875D01*
X112773619Y-103974875D02*
X112059333Y-103784399D01*
X112059333Y-103784399D02*
X112773619Y-103593923D01*
X112773619Y-103593923D02*
X111773619Y-103355828D01*
X112773619Y-102403447D02*
X112297428Y-102736780D01*
X112773619Y-102974875D02*
X111773619Y-102974875D01*
X111773619Y-102974875D02*
X111773619Y-102593923D01*
X111773619Y-102593923D02*
X111821238Y-102498685D01*
X111821238Y-102498685D02*
X111868857Y-102451066D01*
X111868857Y-102451066D02*
X111964095Y-102403447D01*
X111964095Y-102403447D02*
X112106952Y-102403447D01*
X112106952Y-102403447D02*
X112202190Y-102451066D01*
X112202190Y-102451066D02*
X112249809Y-102498685D01*
X112249809Y-102498685D02*
X112297428Y-102593923D01*
X112297428Y-102593923D02*
X112297428Y-102974875D01*
X127069819Y-116927030D02*
X127069819Y-117403220D01*
X127069819Y-117403220D02*
X126069819Y-117403220D01*
X127069819Y-116593696D02*
X126403152Y-116593696D01*
X126069819Y-116593696D02*
X126117438Y-116641315D01*
X126117438Y-116641315D02*
X126165057Y-116593696D01*
X126165057Y-116593696D02*
X126117438Y-116546077D01*
X126117438Y-116546077D02*
X126069819Y-116593696D01*
X126069819Y-116593696D02*
X126165057Y-116593696D01*
X127022200Y-115688935D02*
X127069819Y-115784173D01*
X127069819Y-115784173D02*
X127069819Y-115974649D01*
X127069819Y-115974649D02*
X127022200Y-116069887D01*
X127022200Y-116069887D02*
X126974580Y-116117506D01*
X126974580Y-116117506D02*
X126879342Y-116165125D01*
X126879342Y-116165125D02*
X126593628Y-116165125D01*
X126593628Y-116165125D02*
X126498390Y-116117506D01*
X126498390Y-116117506D02*
X126450771Y-116069887D01*
X126450771Y-116069887D02*
X126403152Y-115974649D01*
X126403152Y-115974649D02*
X126403152Y-115784173D01*
X126403152Y-115784173D02*
X126450771Y-115688935D01*
X127022200Y-114879411D02*
X127069819Y-114974649D01*
X127069819Y-114974649D02*
X127069819Y-115165125D01*
X127069819Y-115165125D02*
X127022200Y-115260363D01*
X127022200Y-115260363D02*
X126926961Y-115307982D01*
X126926961Y-115307982D02*
X126546009Y-115307982D01*
X126546009Y-115307982D02*
X126450771Y-115260363D01*
X126450771Y-115260363D02*
X126403152Y-115165125D01*
X126403152Y-115165125D02*
X126403152Y-114974649D01*
X126403152Y-114974649D02*
X126450771Y-114879411D01*
X126450771Y-114879411D02*
X126546009Y-114831792D01*
X126546009Y-114831792D02*
X126641247Y-114831792D01*
X126641247Y-114831792D02*
X126736485Y-115307982D01*
X126403152Y-114403220D02*
X127069819Y-114403220D01*
X126498390Y-114403220D02*
X126450771Y-114355601D01*
X126450771Y-114355601D02*
X126403152Y-114260363D01*
X126403152Y-114260363D02*
X126403152Y-114117506D01*
X126403152Y-114117506D02*
X126450771Y-114022268D01*
X126450771Y-114022268D02*
X126546009Y-113974649D01*
X126546009Y-113974649D02*
X127069819Y-113974649D01*
X127022200Y-113546077D02*
X127069819Y-113450839D01*
X127069819Y-113450839D02*
X127069819Y-113260363D01*
X127069819Y-113260363D02*
X127022200Y-113165125D01*
X127022200Y-113165125D02*
X126926961Y-113117506D01*
X126926961Y-113117506D02*
X126879342Y-113117506D01*
X126879342Y-113117506D02*
X126784104Y-113165125D01*
X126784104Y-113165125D02*
X126736485Y-113260363D01*
X126736485Y-113260363D02*
X126736485Y-113403220D01*
X126736485Y-113403220D02*
X126688866Y-113498458D01*
X126688866Y-113498458D02*
X126593628Y-113546077D01*
X126593628Y-113546077D02*
X126546009Y-113546077D01*
X126546009Y-113546077D02*
X126450771Y-113498458D01*
X126450771Y-113498458D02*
X126403152Y-113403220D01*
X126403152Y-113403220D02*
X126403152Y-113260363D01*
X126403152Y-113260363D02*
X126450771Y-113165125D01*
X127022200Y-112307982D02*
X127069819Y-112403220D01*
X127069819Y-112403220D02*
X127069819Y-112593696D01*
X127069819Y-112593696D02*
X127022200Y-112688934D01*
X127022200Y-112688934D02*
X126926961Y-112736553D01*
X126926961Y-112736553D02*
X126546009Y-112736553D01*
X126546009Y-112736553D02*
X126450771Y-112688934D01*
X126450771Y-112688934D02*
X126403152Y-112593696D01*
X126403152Y-112593696D02*
X126403152Y-112403220D01*
X126403152Y-112403220D02*
X126450771Y-112307982D01*
X126450771Y-112307982D02*
X126546009Y-112260363D01*
X126546009Y-112260363D02*
X126641247Y-112260363D01*
X126641247Y-112260363D02*
X126736485Y-112736553D01*
X127069819Y-111403220D02*
X126069819Y-111403220D01*
X127022200Y-111403220D02*
X127069819Y-111498458D01*
X127069819Y-111498458D02*
X127069819Y-111688934D01*
X127069819Y-111688934D02*
X127022200Y-111784172D01*
X127022200Y-111784172D02*
X126974580Y-111831791D01*
X126974580Y-111831791D02*
X126879342Y-111879410D01*
X126879342Y-111879410D02*
X126593628Y-111879410D01*
X126593628Y-111879410D02*
X126498390Y-111831791D01*
X126498390Y-111831791D02*
X126450771Y-111784172D01*
X126450771Y-111784172D02*
X126403152Y-111688934D01*
X126403152Y-111688934D02*
X126403152Y-111498458D01*
X126403152Y-111498458D02*
X126450771Y-111403220D01*
X126974580Y-109593696D02*
X127022200Y-109641315D01*
X127022200Y-109641315D02*
X127069819Y-109784172D01*
X127069819Y-109784172D02*
X127069819Y-109879410D01*
X127069819Y-109879410D02*
X127022200Y-110022267D01*
X127022200Y-110022267D02*
X126926961Y-110117505D01*
X126926961Y-110117505D02*
X126831723Y-110165124D01*
X126831723Y-110165124D02*
X126641247Y-110212743D01*
X126641247Y-110212743D02*
X126498390Y-110212743D01*
X126498390Y-110212743D02*
X126307914Y-110165124D01*
X126307914Y-110165124D02*
X126212676Y-110117505D01*
X126212676Y-110117505D02*
X126117438Y-110022267D01*
X126117438Y-110022267D02*
X126069819Y-109879410D01*
X126069819Y-109879410D02*
X126069819Y-109784172D01*
X126069819Y-109784172D02*
X126117438Y-109641315D01*
X126117438Y-109641315D02*
X126165057Y-109593696D01*
X126546009Y-109165124D02*
X126546009Y-108831791D01*
X127069819Y-108688934D02*
X127069819Y-109165124D01*
X127069819Y-109165124D02*
X126069819Y-109165124D01*
X126069819Y-109165124D02*
X126069819Y-108688934D01*
X127069819Y-107688934D02*
X126593628Y-108022267D01*
X127069819Y-108260362D02*
X126069819Y-108260362D01*
X126069819Y-108260362D02*
X126069819Y-107879410D01*
X126069819Y-107879410D02*
X126117438Y-107784172D01*
X126117438Y-107784172D02*
X126165057Y-107736553D01*
X126165057Y-107736553D02*
X126260295Y-107688934D01*
X126260295Y-107688934D02*
X126403152Y-107688934D01*
X126403152Y-107688934D02*
X126498390Y-107736553D01*
X126498390Y-107736553D02*
X126546009Y-107784172D01*
X126546009Y-107784172D02*
X126593628Y-107879410D01*
X126593628Y-107879410D02*
X126593628Y-108260362D01*
X127069819Y-107260362D02*
X126069819Y-107260362D01*
X126069819Y-107260362D02*
X127069819Y-106688934D01*
X127069819Y-106688934D02*
X126069819Y-106688934D01*
X126688866Y-106212743D02*
X126688866Y-105450839D01*
X126069819Y-104784172D02*
X126069819Y-104593696D01*
X126069819Y-104593696D02*
X126117438Y-104498458D01*
X126117438Y-104498458D02*
X126212676Y-104403220D01*
X126212676Y-104403220D02*
X126403152Y-104355601D01*
X126403152Y-104355601D02*
X126736485Y-104355601D01*
X126736485Y-104355601D02*
X126926961Y-104403220D01*
X126926961Y-104403220D02*
X127022200Y-104498458D01*
X127022200Y-104498458D02*
X127069819Y-104593696D01*
X127069819Y-104593696D02*
X127069819Y-104784172D01*
X127069819Y-104784172D02*
X127022200Y-104879410D01*
X127022200Y-104879410D02*
X126926961Y-104974648D01*
X126926961Y-104974648D02*
X126736485Y-105022267D01*
X126736485Y-105022267D02*
X126403152Y-105022267D01*
X126403152Y-105022267D02*
X126212676Y-104974648D01*
X126212676Y-104974648D02*
X126117438Y-104879410D01*
X126117438Y-104879410D02*
X126069819Y-104784172D01*
X127069819Y-103927029D02*
X126069819Y-103927029D01*
X126546009Y-103927029D02*
X126546009Y-103355601D01*
X127069819Y-103355601D02*
X126069819Y-103355601D01*
X127069819Y-102403220D02*
X127069819Y-102879410D01*
X127069819Y-102879410D02*
X126069819Y-102879410D01*
X126688866Y-102069886D02*
X126688866Y-101307982D01*
X127022200Y-100879410D02*
X127069819Y-100736553D01*
X127069819Y-100736553D02*
X127069819Y-100498458D01*
X127069819Y-100498458D02*
X127022200Y-100403220D01*
X127022200Y-100403220D02*
X126974580Y-100355601D01*
X126974580Y-100355601D02*
X126879342Y-100307982D01*
X126879342Y-100307982D02*
X126784104Y-100307982D01*
X126784104Y-100307982D02*
X126688866Y-100355601D01*
X126688866Y-100355601D02*
X126641247Y-100403220D01*
X126641247Y-100403220D02*
X126593628Y-100498458D01*
X126593628Y-100498458D02*
X126546009Y-100688934D01*
X126546009Y-100688934D02*
X126498390Y-100784172D01*
X126498390Y-100784172D02*
X126450771Y-100831791D01*
X126450771Y-100831791D02*
X126355533Y-100879410D01*
X126355533Y-100879410D02*
X126260295Y-100879410D01*
X126260295Y-100879410D02*
X126165057Y-100831791D01*
X126165057Y-100831791D02*
X126117438Y-100784172D01*
X126117438Y-100784172D02*
X126069819Y-100688934D01*
X126069819Y-100688934D02*
X126069819Y-100450839D01*
X126069819Y-100450839D02*
X126117438Y-100307982D01*
X126403152Y-99212743D02*
X127069819Y-98974648D01*
X127069819Y-98974648D02*
X126403152Y-98736553D01*
X126165057Y-98403219D02*
X126117438Y-98355600D01*
X126117438Y-98355600D02*
X126069819Y-98260362D01*
X126069819Y-98260362D02*
X126069819Y-98022267D01*
X126069819Y-98022267D02*
X126117438Y-97927029D01*
X126117438Y-97927029D02*
X126165057Y-97879410D01*
X126165057Y-97879410D02*
X126260295Y-97831791D01*
X126260295Y-97831791D02*
X126355533Y-97831791D01*
X126355533Y-97831791D02*
X126498390Y-97879410D01*
X126498390Y-97879410D02*
X127069819Y-98450838D01*
X127069819Y-98450838D02*
X127069819Y-97831791D01*
X111431733Y-94330780D02*
X111384114Y-94378400D01*
X111384114Y-94378400D02*
X111241257Y-94426019D01*
X111241257Y-94426019D02*
X111146019Y-94426019D01*
X111146019Y-94426019D02*
X111003162Y-94378400D01*
X111003162Y-94378400D02*
X110907924Y-94283161D01*
X110907924Y-94283161D02*
X110860305Y-94187923D01*
X110860305Y-94187923D02*
X110812686Y-93997447D01*
X110812686Y-93997447D02*
X110812686Y-93854590D01*
X110812686Y-93854590D02*
X110860305Y-93664114D01*
X110860305Y-93664114D02*
X110907924Y-93568876D01*
X110907924Y-93568876D02*
X111003162Y-93473638D01*
X111003162Y-93473638D02*
X111146019Y-93426019D01*
X111146019Y-93426019D02*
X111241257Y-93426019D01*
X111241257Y-93426019D02*
X111384114Y-93473638D01*
X111384114Y-93473638D02*
X111431733Y-93521257D01*
X111765067Y-93426019D02*
X112384114Y-93426019D01*
X112384114Y-93426019D02*
X112050781Y-93806971D01*
X112050781Y-93806971D02*
X112193638Y-93806971D01*
X112193638Y-93806971D02*
X112288876Y-93854590D01*
X112288876Y-93854590D02*
X112336495Y-93902209D01*
X112336495Y-93902209D02*
X112384114Y-93997447D01*
X112384114Y-93997447D02*
X112384114Y-94235542D01*
X112384114Y-94235542D02*
X112336495Y-94330780D01*
X112336495Y-94330780D02*
X112288876Y-94378400D01*
X112288876Y-94378400D02*
X112193638Y-94426019D01*
X112193638Y-94426019D02*
X111907924Y-94426019D01*
X111907924Y-94426019D02*
X111812686Y-94378400D01*
X111812686Y-94378400D02*
X111765067Y-94330780D01*
X116572395Y-100807119D02*
X116572395Y-101616642D01*
X116572395Y-101616642D02*
X116620014Y-101711880D01*
X116620014Y-101711880D02*
X116667633Y-101759500D01*
X116667633Y-101759500D02*
X116762871Y-101807119D01*
X116762871Y-101807119D02*
X116953347Y-101807119D01*
X116953347Y-101807119D02*
X117048585Y-101759500D01*
X117048585Y-101759500D02*
X117096204Y-101711880D01*
X117096204Y-101711880D02*
X117143823Y-101616642D01*
X117143823Y-101616642D02*
X117143823Y-100807119D01*
X117524776Y-100807119D02*
X118143823Y-100807119D01*
X118143823Y-100807119D02*
X117810490Y-101188071D01*
X117810490Y-101188071D02*
X117953347Y-101188071D01*
X117953347Y-101188071D02*
X118048585Y-101235690D01*
X118048585Y-101235690D02*
X118096204Y-101283309D01*
X118096204Y-101283309D02*
X118143823Y-101378547D01*
X118143823Y-101378547D02*
X118143823Y-101616642D01*
X118143823Y-101616642D02*
X118096204Y-101711880D01*
X118096204Y-101711880D02*
X118048585Y-101759500D01*
X118048585Y-101759500D02*
X117953347Y-101807119D01*
X117953347Y-101807119D02*
X117667633Y-101807119D01*
X117667633Y-101807119D02*
X117572395Y-101759500D01*
X117572395Y-101759500D02*
X117524776Y-101711880D01*
X138031479Y-111906304D02*
X138841002Y-111906304D01*
X138841002Y-111906304D02*
X138936240Y-111858685D01*
X138936240Y-111858685D02*
X138983860Y-111811066D01*
X138983860Y-111811066D02*
X139031479Y-111715828D01*
X139031479Y-111715828D02*
X139031479Y-111525352D01*
X139031479Y-111525352D02*
X138983860Y-111430114D01*
X138983860Y-111430114D02*
X138936240Y-111382495D01*
X138936240Y-111382495D02*
X138841002Y-111334876D01*
X138841002Y-111334876D02*
X138031479Y-111334876D01*
X138983860Y-110906304D02*
X139031479Y-110763447D01*
X139031479Y-110763447D02*
X139031479Y-110525352D01*
X139031479Y-110525352D02*
X138983860Y-110430114D01*
X138983860Y-110430114D02*
X138936240Y-110382495D01*
X138936240Y-110382495D02*
X138841002Y-110334876D01*
X138841002Y-110334876D02*
X138745764Y-110334876D01*
X138745764Y-110334876D02*
X138650526Y-110382495D01*
X138650526Y-110382495D02*
X138602907Y-110430114D01*
X138602907Y-110430114D02*
X138555288Y-110525352D01*
X138555288Y-110525352D02*
X138507669Y-110715828D01*
X138507669Y-110715828D02*
X138460050Y-110811066D01*
X138460050Y-110811066D02*
X138412431Y-110858685D01*
X138412431Y-110858685D02*
X138317193Y-110906304D01*
X138317193Y-110906304D02*
X138221955Y-110906304D01*
X138221955Y-110906304D02*
X138126717Y-110858685D01*
X138126717Y-110858685D02*
X138079098Y-110811066D01*
X138079098Y-110811066D02*
X138031479Y-110715828D01*
X138031479Y-110715828D02*
X138031479Y-110477733D01*
X138031479Y-110477733D02*
X138079098Y-110334876D01*
X138507669Y-109572971D02*
X138555288Y-109430114D01*
X138555288Y-109430114D02*
X138602907Y-109382495D01*
X138602907Y-109382495D02*
X138698145Y-109334876D01*
X138698145Y-109334876D02*
X138841002Y-109334876D01*
X138841002Y-109334876D02*
X138936240Y-109382495D01*
X138936240Y-109382495D02*
X138983860Y-109430114D01*
X138983860Y-109430114D02*
X139031479Y-109525352D01*
X139031479Y-109525352D02*
X139031479Y-109906304D01*
X139031479Y-109906304D02*
X138031479Y-109906304D01*
X138031479Y-109906304D02*
X138031479Y-109572971D01*
X138031479Y-109572971D02*
X138079098Y-109477733D01*
X138079098Y-109477733D02*
X138126717Y-109430114D01*
X138126717Y-109430114D02*
X138221955Y-109382495D01*
X138221955Y-109382495D02*
X138317193Y-109382495D01*
X138317193Y-109382495D02*
X138412431Y-109430114D01*
X138412431Y-109430114D02*
X138460050Y-109477733D01*
X138460050Y-109477733D02*
X138507669Y-109572971D01*
X138507669Y-109572971D02*
X138507669Y-109906304D01*
X111618733Y-100257780D02*
X111571114Y-100305400D01*
X111571114Y-100305400D02*
X111428257Y-100353019D01*
X111428257Y-100353019D02*
X111333019Y-100353019D01*
X111333019Y-100353019D02*
X111190162Y-100305400D01*
X111190162Y-100305400D02*
X111094924Y-100210161D01*
X111094924Y-100210161D02*
X111047305Y-100114923D01*
X111047305Y-100114923D02*
X110999686Y-99924447D01*
X110999686Y-99924447D02*
X110999686Y-99781590D01*
X110999686Y-99781590D02*
X111047305Y-99591114D01*
X111047305Y-99591114D02*
X111094924Y-99495876D01*
X111094924Y-99495876D02*
X111190162Y-99400638D01*
X111190162Y-99400638D02*
X111333019Y-99353019D01*
X111333019Y-99353019D02*
X111428257Y-99353019D01*
X111428257Y-99353019D02*
X111571114Y-99400638D01*
X111571114Y-99400638D02*
X111618733Y-99448257D01*
X111999686Y-99448257D02*
X112047305Y-99400638D01*
X112047305Y-99400638D02*
X112142543Y-99353019D01*
X112142543Y-99353019D02*
X112380638Y-99353019D01*
X112380638Y-99353019D02*
X112475876Y-99400638D01*
X112475876Y-99400638D02*
X112523495Y-99448257D01*
X112523495Y-99448257D02*
X112571114Y-99543495D01*
X112571114Y-99543495D02*
X112571114Y-99638733D01*
X112571114Y-99638733D02*
X112523495Y-99781590D01*
X112523495Y-99781590D02*
X111952067Y-100353019D01*
X111952067Y-100353019D02*
X112571114Y-100353019D01*
X110417780Y-112478066D02*
X110465400Y-112525685D01*
X110465400Y-112525685D02*
X110513019Y-112668542D01*
X110513019Y-112668542D02*
X110513019Y-112763780D01*
X110513019Y-112763780D02*
X110465400Y-112906637D01*
X110465400Y-112906637D02*
X110370161Y-113001875D01*
X110370161Y-113001875D02*
X110274923Y-113049494D01*
X110274923Y-113049494D02*
X110084447Y-113097113D01*
X110084447Y-113097113D02*
X109941590Y-113097113D01*
X109941590Y-113097113D02*
X109751114Y-113049494D01*
X109751114Y-113049494D02*
X109655876Y-113001875D01*
X109655876Y-113001875D02*
X109560638Y-112906637D01*
X109560638Y-112906637D02*
X109513019Y-112763780D01*
X109513019Y-112763780D02*
X109513019Y-112668542D01*
X109513019Y-112668542D02*
X109560638Y-112525685D01*
X109560638Y-112525685D02*
X109608257Y-112478066D01*
X109513019Y-111620923D02*
X109513019Y-111811399D01*
X109513019Y-111811399D02*
X109560638Y-111906637D01*
X109560638Y-111906637D02*
X109608257Y-111954256D01*
X109608257Y-111954256D02*
X109751114Y-112049494D01*
X109751114Y-112049494D02*
X109941590Y-112097113D01*
X109941590Y-112097113D02*
X110322542Y-112097113D01*
X110322542Y-112097113D02*
X110417780Y-112049494D01*
X110417780Y-112049494D02*
X110465400Y-112001875D01*
X110465400Y-112001875D02*
X110513019Y-111906637D01*
X110513019Y-111906637D02*
X110513019Y-111716161D01*
X110513019Y-111716161D02*
X110465400Y-111620923D01*
X110465400Y-111620923D02*
X110417780Y-111573304D01*
X110417780Y-111573304D02*
X110322542Y-111525685D01*
X110322542Y-111525685D02*
X110084447Y-111525685D01*
X110084447Y-111525685D02*
X109989209Y-111573304D01*
X109989209Y-111573304D02*
X109941590Y-111620923D01*
X109941590Y-111620923D02*
X109893971Y-111716161D01*
X109893971Y-111716161D02*
X109893971Y-111906637D01*
X109893971Y-111906637D02*
X109941590Y-112001875D01*
X109941590Y-112001875D02*
X109989209Y-112049494D01*
X109989209Y-112049494D02*
X110084447Y-112097113D01*
X132257142Y-90859580D02*
X132209523Y-90907200D01*
X132209523Y-90907200D02*
X132066666Y-90954819D01*
X132066666Y-90954819D02*
X131971428Y-90954819D01*
X131971428Y-90954819D02*
X131828571Y-90907200D01*
X131828571Y-90907200D02*
X131733333Y-90811961D01*
X131733333Y-90811961D02*
X131685714Y-90716723D01*
X131685714Y-90716723D02*
X131638095Y-90526247D01*
X131638095Y-90526247D02*
X131638095Y-90383390D01*
X131638095Y-90383390D02*
X131685714Y-90192914D01*
X131685714Y-90192914D02*
X131733333Y-90097676D01*
X131733333Y-90097676D02*
X131828571Y-90002438D01*
X131828571Y-90002438D02*
X131971428Y-89954819D01*
X131971428Y-89954819D02*
X132066666Y-89954819D01*
X132066666Y-89954819D02*
X132209523Y-90002438D01*
X132209523Y-90002438D02*
X132257142Y-90050057D01*
X133209523Y-90954819D02*
X132638095Y-90954819D01*
X132923809Y-90954819D02*
X132923809Y-89954819D01*
X132923809Y-89954819D02*
X132828571Y-90097676D01*
X132828571Y-90097676D02*
X132733333Y-90192914D01*
X132733333Y-90192914D02*
X132638095Y-90240533D01*
X133590476Y-90050057D02*
X133638095Y-90002438D01*
X133638095Y-90002438D02*
X133733333Y-89954819D01*
X133733333Y-89954819D02*
X133971428Y-89954819D01*
X133971428Y-89954819D02*
X134066666Y-90002438D01*
X134066666Y-90002438D02*
X134114285Y-90050057D01*
X134114285Y-90050057D02*
X134161904Y-90145295D01*
X134161904Y-90145295D02*
X134161904Y-90240533D01*
X134161904Y-90240533D02*
X134114285Y-90383390D01*
X134114285Y-90383390D02*
X133542857Y-90954819D01*
X133542857Y-90954819D02*
X134161904Y-90954819D01*
X142667142Y-115204819D02*
X142333809Y-114728628D01*
X142095714Y-115204819D02*
X142095714Y-114204819D01*
X142095714Y-114204819D02*
X142476666Y-114204819D01*
X142476666Y-114204819D02*
X142571904Y-114252438D01*
X142571904Y-114252438D02*
X142619523Y-114300057D01*
X142619523Y-114300057D02*
X142667142Y-114395295D01*
X142667142Y-114395295D02*
X142667142Y-114538152D01*
X142667142Y-114538152D02*
X142619523Y-114633390D01*
X142619523Y-114633390D02*
X142571904Y-114681009D01*
X142571904Y-114681009D02*
X142476666Y-114728628D01*
X142476666Y-114728628D02*
X142095714Y-114728628D01*
X143619523Y-115204819D02*
X143048095Y-115204819D01*
X143333809Y-115204819D02*
X143333809Y-114204819D01*
X143333809Y-114204819D02*
X143238571Y-114347676D01*
X143238571Y-114347676D02*
X143143333Y-114442914D01*
X143143333Y-114442914D02*
X143048095Y-114490533D01*
X144190952Y-114633390D02*
X144095714Y-114585771D01*
X144095714Y-114585771D02*
X144048095Y-114538152D01*
X144048095Y-114538152D02*
X144000476Y-114442914D01*
X144000476Y-114442914D02*
X144000476Y-114395295D01*
X144000476Y-114395295D02*
X144048095Y-114300057D01*
X144048095Y-114300057D02*
X144095714Y-114252438D01*
X144095714Y-114252438D02*
X144190952Y-114204819D01*
X144190952Y-114204819D02*
X144381428Y-114204819D01*
X144381428Y-114204819D02*
X144476666Y-114252438D01*
X144476666Y-114252438D02*
X144524285Y-114300057D01*
X144524285Y-114300057D02*
X144571904Y-114395295D01*
X144571904Y-114395295D02*
X144571904Y-114442914D01*
X144571904Y-114442914D02*
X144524285Y-114538152D01*
X144524285Y-114538152D02*
X144476666Y-114585771D01*
X144476666Y-114585771D02*
X144381428Y-114633390D01*
X144381428Y-114633390D02*
X144190952Y-114633390D01*
X144190952Y-114633390D02*
X144095714Y-114681009D01*
X144095714Y-114681009D02*
X144048095Y-114728628D01*
X144048095Y-114728628D02*
X144000476Y-114823866D01*
X144000476Y-114823866D02*
X144000476Y-115014342D01*
X144000476Y-115014342D02*
X144048095Y-115109580D01*
X144048095Y-115109580D02*
X144095714Y-115157200D01*
X144095714Y-115157200D02*
X144190952Y-115204819D01*
X144190952Y-115204819D02*
X144381428Y-115204819D01*
X144381428Y-115204819D02*
X144476666Y-115157200D01*
X144476666Y-115157200D02*
X144524285Y-115109580D01*
X144524285Y-115109580D02*
X144571904Y-115014342D01*
X144571904Y-115014342D02*
X144571904Y-114823866D01*
X144571904Y-114823866D02*
X144524285Y-114728628D01*
X144524285Y-114728628D02*
X144476666Y-114681009D01*
X144476666Y-114681009D02*
X144381428Y-114633390D01*
X133444833Y-125850580D02*
X133397214Y-125898200D01*
X133397214Y-125898200D02*
X133254357Y-125945819D01*
X133254357Y-125945819D02*
X133159119Y-125945819D01*
X133159119Y-125945819D02*
X133016262Y-125898200D01*
X133016262Y-125898200D02*
X132921024Y-125802961D01*
X132921024Y-125802961D02*
X132873405Y-125707723D01*
X132873405Y-125707723D02*
X132825786Y-125517247D01*
X132825786Y-125517247D02*
X132825786Y-125374390D01*
X132825786Y-125374390D02*
X132873405Y-125183914D01*
X132873405Y-125183914D02*
X132921024Y-125088676D01*
X132921024Y-125088676D02*
X133016262Y-124993438D01*
X133016262Y-124993438D02*
X133159119Y-124945819D01*
X133159119Y-124945819D02*
X133254357Y-124945819D01*
X133254357Y-124945819D02*
X133397214Y-124993438D01*
X133397214Y-124993438D02*
X133444833Y-125041057D01*
X134016262Y-125374390D02*
X133921024Y-125326771D01*
X133921024Y-125326771D02*
X133873405Y-125279152D01*
X133873405Y-125279152D02*
X133825786Y-125183914D01*
X133825786Y-125183914D02*
X133825786Y-125136295D01*
X133825786Y-125136295D02*
X133873405Y-125041057D01*
X133873405Y-125041057D02*
X133921024Y-124993438D01*
X133921024Y-124993438D02*
X134016262Y-124945819D01*
X134016262Y-124945819D02*
X134206738Y-124945819D01*
X134206738Y-124945819D02*
X134301976Y-124993438D01*
X134301976Y-124993438D02*
X134349595Y-125041057D01*
X134349595Y-125041057D02*
X134397214Y-125136295D01*
X134397214Y-125136295D02*
X134397214Y-125183914D01*
X134397214Y-125183914D02*
X134349595Y-125279152D01*
X134349595Y-125279152D02*
X134301976Y-125326771D01*
X134301976Y-125326771D02*
X134206738Y-125374390D01*
X134206738Y-125374390D02*
X134016262Y-125374390D01*
X134016262Y-125374390D02*
X133921024Y-125422009D01*
X133921024Y-125422009D02*
X133873405Y-125469628D01*
X133873405Y-125469628D02*
X133825786Y-125564866D01*
X133825786Y-125564866D02*
X133825786Y-125755342D01*
X133825786Y-125755342D02*
X133873405Y-125850580D01*
X133873405Y-125850580D02*
X133921024Y-125898200D01*
X133921024Y-125898200D02*
X134016262Y-125945819D01*
X134016262Y-125945819D02*
X134206738Y-125945819D01*
X134206738Y-125945819D02*
X134301976Y-125898200D01*
X134301976Y-125898200D02*
X134349595Y-125850580D01*
X134349595Y-125850580D02*
X134397214Y-125755342D01*
X134397214Y-125755342D02*
X134397214Y-125564866D01*
X134397214Y-125564866D02*
X134349595Y-125469628D01*
X134349595Y-125469628D02*
X134301976Y-125422009D01*
X134301976Y-125422009D02*
X134206738Y-125374390D01*
X134468095Y-114524819D02*
X134468095Y-115334342D01*
X134468095Y-115334342D02*
X134515714Y-115429580D01*
X134515714Y-115429580D02*
X134563333Y-115477200D01*
X134563333Y-115477200D02*
X134658571Y-115524819D01*
X134658571Y-115524819D02*
X134849047Y-115524819D01*
X134849047Y-115524819D02*
X134944285Y-115477200D01*
X134944285Y-115477200D02*
X134991904Y-115429580D01*
X134991904Y-115429580D02*
X135039523Y-115334342D01*
X135039523Y-115334342D02*
X135039523Y-114524819D01*
X135944285Y-114858152D02*
X135944285Y-115524819D01*
X135706190Y-114477200D02*
X135468095Y-115191485D01*
X135468095Y-115191485D02*
X136087142Y-115191485D01*
X139607142Y-102564819D02*
X139273809Y-102088628D01*
X139035714Y-102564819D02*
X139035714Y-101564819D01*
X139035714Y-101564819D02*
X139416666Y-101564819D01*
X139416666Y-101564819D02*
X139511904Y-101612438D01*
X139511904Y-101612438D02*
X139559523Y-101660057D01*
X139559523Y-101660057D02*
X139607142Y-101755295D01*
X139607142Y-101755295D02*
X139607142Y-101898152D01*
X139607142Y-101898152D02*
X139559523Y-101993390D01*
X139559523Y-101993390D02*
X139511904Y-102041009D01*
X139511904Y-102041009D02*
X139416666Y-102088628D01*
X139416666Y-102088628D02*
X139035714Y-102088628D01*
X140559523Y-102564819D02*
X139988095Y-102564819D01*
X140273809Y-102564819D02*
X140273809Y-101564819D01*
X140273809Y-101564819D02*
X140178571Y-101707676D01*
X140178571Y-101707676D02*
X140083333Y-101802914D01*
X140083333Y-101802914D02*
X139988095Y-101850533D01*
X140892857Y-101564819D02*
X141511904Y-101564819D01*
X141511904Y-101564819D02*
X141178571Y-101945771D01*
X141178571Y-101945771D02*
X141321428Y-101945771D01*
X141321428Y-101945771D02*
X141416666Y-101993390D01*
X141416666Y-101993390D02*
X141464285Y-102041009D01*
X141464285Y-102041009D02*
X141511904Y-102136247D01*
X141511904Y-102136247D02*
X141511904Y-102374342D01*
X141511904Y-102374342D02*
X141464285Y-102469580D01*
X141464285Y-102469580D02*
X141416666Y-102517200D01*
X141416666Y-102517200D02*
X141321428Y-102564819D01*
X141321428Y-102564819D02*
X141035714Y-102564819D01*
X141035714Y-102564819D02*
X140940476Y-102517200D01*
X140940476Y-102517200D02*
X140892857Y-102469580D01*
X142814642Y-118334819D02*
X142481309Y-117858628D01*
X142243214Y-118334819D02*
X142243214Y-117334819D01*
X142243214Y-117334819D02*
X142624166Y-117334819D01*
X142624166Y-117334819D02*
X142719404Y-117382438D01*
X142719404Y-117382438D02*
X142767023Y-117430057D01*
X142767023Y-117430057D02*
X142814642Y-117525295D01*
X142814642Y-117525295D02*
X142814642Y-117668152D01*
X142814642Y-117668152D02*
X142767023Y-117763390D01*
X142767023Y-117763390D02*
X142719404Y-117811009D01*
X142719404Y-117811009D02*
X142624166Y-117858628D01*
X142624166Y-117858628D02*
X142243214Y-117858628D01*
X143767023Y-118334819D02*
X143195595Y-118334819D01*
X143481309Y-118334819D02*
X143481309Y-117334819D01*
X143481309Y-117334819D02*
X143386071Y-117477676D01*
X143386071Y-117477676D02*
X143290833Y-117572914D01*
X143290833Y-117572914D02*
X143195595Y-117620533D01*
X144243214Y-118334819D02*
X144433690Y-118334819D01*
X144433690Y-118334819D02*
X144528928Y-118287200D01*
X144528928Y-118287200D02*
X144576547Y-118239580D01*
X144576547Y-118239580D02*
X144671785Y-118096723D01*
X144671785Y-118096723D02*
X144719404Y-117906247D01*
X144719404Y-117906247D02*
X144719404Y-117525295D01*
X144719404Y-117525295D02*
X144671785Y-117430057D01*
X144671785Y-117430057D02*
X144624166Y-117382438D01*
X144624166Y-117382438D02*
X144528928Y-117334819D01*
X144528928Y-117334819D02*
X144338452Y-117334819D01*
X144338452Y-117334819D02*
X144243214Y-117382438D01*
X144243214Y-117382438D02*
X144195595Y-117430057D01*
X144195595Y-117430057D02*
X144147976Y-117525295D01*
X144147976Y-117525295D02*
X144147976Y-117763390D01*
X144147976Y-117763390D02*
X144195595Y-117858628D01*
X144195595Y-117858628D02*
X144243214Y-117906247D01*
X144243214Y-117906247D02*
X144338452Y-117953866D01*
X144338452Y-117953866D02*
X144528928Y-117953866D01*
X144528928Y-117953866D02*
X144624166Y-117906247D01*
X144624166Y-117906247D02*
X144671785Y-117858628D01*
X144671785Y-117858628D02*
X144719404Y-117763390D01*
X118767142Y-108889580D02*
X118719523Y-108937200D01*
X118719523Y-108937200D02*
X118576666Y-108984819D01*
X118576666Y-108984819D02*
X118481428Y-108984819D01*
X118481428Y-108984819D02*
X118338571Y-108937200D01*
X118338571Y-108937200D02*
X118243333Y-108841961D01*
X118243333Y-108841961D02*
X118195714Y-108746723D01*
X118195714Y-108746723D02*
X118148095Y-108556247D01*
X118148095Y-108556247D02*
X118148095Y-108413390D01*
X118148095Y-108413390D02*
X118195714Y-108222914D01*
X118195714Y-108222914D02*
X118243333Y-108127676D01*
X118243333Y-108127676D02*
X118338571Y-108032438D01*
X118338571Y-108032438D02*
X118481428Y-107984819D01*
X118481428Y-107984819D02*
X118576666Y-107984819D01*
X118576666Y-107984819D02*
X118719523Y-108032438D01*
X118719523Y-108032438D02*
X118767142Y-108080057D01*
X119719523Y-108984819D02*
X119148095Y-108984819D01*
X119433809Y-108984819D02*
X119433809Y-107984819D01*
X119433809Y-107984819D02*
X119338571Y-108127676D01*
X119338571Y-108127676D02*
X119243333Y-108222914D01*
X119243333Y-108222914D02*
X119148095Y-108270533D01*
X120624285Y-107984819D02*
X120148095Y-107984819D01*
X120148095Y-107984819D02*
X120100476Y-108461009D01*
X120100476Y-108461009D02*
X120148095Y-108413390D01*
X120148095Y-108413390D02*
X120243333Y-108365771D01*
X120243333Y-108365771D02*
X120481428Y-108365771D01*
X120481428Y-108365771D02*
X120576666Y-108413390D01*
X120576666Y-108413390D02*
X120624285Y-108461009D01*
X120624285Y-108461009D02*
X120671904Y-108556247D01*
X120671904Y-108556247D02*
X120671904Y-108794342D01*
X120671904Y-108794342D02*
X120624285Y-108889580D01*
X120624285Y-108889580D02*
X120576666Y-108937200D01*
X120576666Y-108937200D02*
X120481428Y-108984819D01*
X120481428Y-108984819D02*
X120243333Y-108984819D01*
X120243333Y-108984819D02*
X120148095Y-108937200D01*
X120148095Y-108937200D02*
X120100476Y-108889580D01*
X139591942Y-103979019D02*
X139258609Y-103502828D01*
X139020514Y-103979019D02*
X139020514Y-102979019D01*
X139020514Y-102979019D02*
X139401466Y-102979019D01*
X139401466Y-102979019D02*
X139496704Y-103026638D01*
X139496704Y-103026638D02*
X139544323Y-103074257D01*
X139544323Y-103074257D02*
X139591942Y-103169495D01*
X139591942Y-103169495D02*
X139591942Y-103312352D01*
X139591942Y-103312352D02*
X139544323Y-103407590D01*
X139544323Y-103407590D02*
X139496704Y-103455209D01*
X139496704Y-103455209D02*
X139401466Y-103502828D01*
X139401466Y-103502828D02*
X139020514Y-103502828D01*
X140544323Y-103979019D02*
X139972895Y-103979019D01*
X140258609Y-103979019D02*
X140258609Y-102979019D01*
X140258609Y-102979019D02*
X140163371Y-103121876D01*
X140163371Y-103121876D02*
X140068133Y-103217114D01*
X140068133Y-103217114D02*
X139972895Y-103264733D01*
X141401466Y-103312352D02*
X141401466Y-103979019D01*
X141163371Y-102931400D02*
X140925276Y-103645685D01*
X140925276Y-103645685D02*
X141544323Y-103645685D01*
X133474642Y-104334819D02*
X133141309Y-103858628D01*
X132903214Y-104334819D02*
X132903214Y-103334819D01*
X132903214Y-103334819D02*
X133284166Y-103334819D01*
X133284166Y-103334819D02*
X133379404Y-103382438D01*
X133379404Y-103382438D02*
X133427023Y-103430057D01*
X133427023Y-103430057D02*
X133474642Y-103525295D01*
X133474642Y-103525295D02*
X133474642Y-103668152D01*
X133474642Y-103668152D02*
X133427023Y-103763390D01*
X133427023Y-103763390D02*
X133379404Y-103811009D01*
X133379404Y-103811009D02*
X133284166Y-103858628D01*
X133284166Y-103858628D02*
X132903214Y-103858628D01*
X134427023Y-104334819D02*
X133855595Y-104334819D01*
X134141309Y-104334819D02*
X134141309Y-103334819D01*
X134141309Y-103334819D02*
X134046071Y-103477676D01*
X134046071Y-103477676D02*
X133950833Y-103572914D01*
X133950833Y-103572914D02*
X133855595Y-103620533D01*
X135379404Y-104334819D02*
X134807976Y-104334819D01*
X135093690Y-104334819D02*
X135093690Y-103334819D01*
X135093690Y-103334819D02*
X134998452Y-103477676D01*
X134998452Y-103477676D02*
X134903214Y-103572914D01*
X134903214Y-103572914D02*
X134807976Y-103620533D01*
X127489580Y-79472857D02*
X127537200Y-79520476D01*
X127537200Y-79520476D02*
X127584819Y-79663333D01*
X127584819Y-79663333D02*
X127584819Y-79758571D01*
X127584819Y-79758571D02*
X127537200Y-79901428D01*
X127537200Y-79901428D02*
X127441961Y-79996666D01*
X127441961Y-79996666D02*
X127346723Y-80044285D01*
X127346723Y-80044285D02*
X127156247Y-80091904D01*
X127156247Y-80091904D02*
X127013390Y-80091904D01*
X127013390Y-80091904D02*
X126822914Y-80044285D01*
X126822914Y-80044285D02*
X126727676Y-79996666D01*
X126727676Y-79996666D02*
X126632438Y-79901428D01*
X126632438Y-79901428D02*
X126584819Y-79758571D01*
X126584819Y-79758571D02*
X126584819Y-79663333D01*
X126584819Y-79663333D02*
X126632438Y-79520476D01*
X126632438Y-79520476D02*
X126680057Y-79472857D01*
X127584819Y-78520476D02*
X127584819Y-79091904D01*
X127584819Y-78806190D02*
X126584819Y-78806190D01*
X126584819Y-78806190D02*
X126727676Y-78901428D01*
X126727676Y-78901428D02*
X126822914Y-78996666D01*
X126822914Y-78996666D02*
X126870533Y-79091904D01*
X126584819Y-77663333D02*
X126584819Y-77853809D01*
X126584819Y-77853809D02*
X126632438Y-77949047D01*
X126632438Y-77949047D02*
X126680057Y-77996666D01*
X126680057Y-77996666D02*
X126822914Y-78091904D01*
X126822914Y-78091904D02*
X127013390Y-78139523D01*
X127013390Y-78139523D02*
X127394342Y-78139523D01*
X127394342Y-78139523D02*
X127489580Y-78091904D01*
X127489580Y-78091904D02*
X127537200Y-78044285D01*
X127537200Y-78044285D02*
X127584819Y-77949047D01*
X127584819Y-77949047D02*
X127584819Y-77758571D01*
X127584819Y-77758571D02*
X127537200Y-77663333D01*
X127537200Y-77663333D02*
X127489580Y-77615714D01*
X127489580Y-77615714D02*
X127394342Y-77568095D01*
X127394342Y-77568095D02*
X127156247Y-77568095D01*
X127156247Y-77568095D02*
X127061009Y-77615714D01*
X127061009Y-77615714D02*
X127013390Y-77663333D01*
X127013390Y-77663333D02*
X126965771Y-77758571D01*
X126965771Y-77758571D02*
X126965771Y-77949047D01*
X126965771Y-77949047D02*
X127013390Y-78044285D01*
X127013390Y-78044285D02*
X127061009Y-78091904D01*
X127061009Y-78091904D02*
X127156247Y-78139523D01*
X138387142Y-108344819D02*
X138053809Y-107868628D01*
X137815714Y-108344819D02*
X137815714Y-107344819D01*
X137815714Y-107344819D02*
X138196666Y-107344819D01*
X138196666Y-107344819D02*
X138291904Y-107392438D01*
X138291904Y-107392438D02*
X138339523Y-107440057D01*
X138339523Y-107440057D02*
X138387142Y-107535295D01*
X138387142Y-107535295D02*
X138387142Y-107678152D01*
X138387142Y-107678152D02*
X138339523Y-107773390D01*
X138339523Y-107773390D02*
X138291904Y-107821009D01*
X138291904Y-107821009D02*
X138196666Y-107868628D01*
X138196666Y-107868628D02*
X137815714Y-107868628D01*
X139339523Y-108344819D02*
X138768095Y-108344819D01*
X139053809Y-108344819D02*
X139053809Y-107344819D01*
X139053809Y-107344819D02*
X138958571Y-107487676D01*
X138958571Y-107487676D02*
X138863333Y-107582914D01*
X138863333Y-107582914D02*
X138768095Y-107630533D01*
X140196666Y-107344819D02*
X140006190Y-107344819D01*
X140006190Y-107344819D02*
X139910952Y-107392438D01*
X139910952Y-107392438D02*
X139863333Y-107440057D01*
X139863333Y-107440057D02*
X139768095Y-107582914D01*
X139768095Y-107582914D02*
X139720476Y-107773390D01*
X139720476Y-107773390D02*
X139720476Y-108154342D01*
X139720476Y-108154342D02*
X139768095Y-108249580D01*
X139768095Y-108249580D02*
X139815714Y-108297200D01*
X139815714Y-108297200D02*
X139910952Y-108344819D01*
X139910952Y-108344819D02*
X140101428Y-108344819D01*
X140101428Y-108344819D02*
X140196666Y-108297200D01*
X140196666Y-108297200D02*
X140244285Y-108249580D01*
X140244285Y-108249580D02*
X140291904Y-108154342D01*
X140291904Y-108154342D02*
X140291904Y-107916247D01*
X140291904Y-107916247D02*
X140244285Y-107821009D01*
X140244285Y-107821009D02*
X140196666Y-107773390D01*
X140196666Y-107773390D02*
X140101428Y-107725771D01*
X140101428Y-107725771D02*
X139910952Y-107725771D01*
X139910952Y-107725771D02*
X139815714Y-107773390D01*
X139815714Y-107773390D02*
X139768095Y-107821009D01*
X139768095Y-107821009D02*
X139720476Y-107916247D01*
X138708095Y-92714819D02*
X138708095Y-93524342D01*
X138708095Y-93524342D02*
X138755714Y-93619580D01*
X138755714Y-93619580D02*
X138803333Y-93667200D01*
X138803333Y-93667200D02*
X138898571Y-93714819D01*
X138898571Y-93714819D02*
X139089047Y-93714819D01*
X139089047Y-93714819D02*
X139184285Y-93667200D01*
X139184285Y-93667200D02*
X139231904Y-93619580D01*
X139231904Y-93619580D02*
X139279523Y-93524342D01*
X139279523Y-93524342D02*
X139279523Y-92714819D01*
X140279523Y-93714819D02*
X139708095Y-93714819D01*
X139993809Y-93714819D02*
X139993809Y-92714819D01*
X139993809Y-92714819D02*
X139898571Y-92857676D01*
X139898571Y-92857676D02*
X139803333Y-92952914D01*
X139803333Y-92952914D02*
X139708095Y-93000533D01*
X142640442Y-112374819D02*
X142307109Y-111898628D01*
X142069014Y-112374819D02*
X142069014Y-111374819D01*
X142069014Y-111374819D02*
X142449966Y-111374819D01*
X142449966Y-111374819D02*
X142545204Y-111422438D01*
X142545204Y-111422438D02*
X142592823Y-111470057D01*
X142592823Y-111470057D02*
X142640442Y-111565295D01*
X142640442Y-111565295D02*
X142640442Y-111708152D01*
X142640442Y-111708152D02*
X142592823Y-111803390D01*
X142592823Y-111803390D02*
X142545204Y-111851009D01*
X142545204Y-111851009D02*
X142449966Y-111898628D01*
X142449966Y-111898628D02*
X142069014Y-111898628D01*
X143592823Y-112374819D02*
X143021395Y-112374819D01*
X143307109Y-112374819D02*
X143307109Y-111374819D01*
X143307109Y-111374819D02*
X143211871Y-111517676D01*
X143211871Y-111517676D02*
X143116633Y-111612914D01*
X143116633Y-111612914D02*
X143021395Y-111660533D01*
X143926157Y-111374819D02*
X144592823Y-111374819D01*
X144592823Y-111374819D02*
X144164252Y-112374819D01*
X136847142Y-125899580D02*
X136799523Y-125947200D01*
X136799523Y-125947200D02*
X136656666Y-125994819D01*
X136656666Y-125994819D02*
X136561428Y-125994819D01*
X136561428Y-125994819D02*
X136418571Y-125947200D01*
X136418571Y-125947200D02*
X136323333Y-125851961D01*
X136323333Y-125851961D02*
X136275714Y-125756723D01*
X136275714Y-125756723D02*
X136228095Y-125566247D01*
X136228095Y-125566247D02*
X136228095Y-125423390D01*
X136228095Y-125423390D02*
X136275714Y-125232914D01*
X136275714Y-125232914D02*
X136323333Y-125137676D01*
X136323333Y-125137676D02*
X136418571Y-125042438D01*
X136418571Y-125042438D02*
X136561428Y-124994819D01*
X136561428Y-124994819D02*
X136656666Y-124994819D01*
X136656666Y-124994819D02*
X136799523Y-125042438D01*
X136799523Y-125042438D02*
X136847142Y-125090057D01*
X137799523Y-125994819D02*
X137228095Y-125994819D01*
X137513809Y-125994819D02*
X137513809Y-124994819D01*
X137513809Y-124994819D02*
X137418571Y-125137676D01*
X137418571Y-125137676D02*
X137323333Y-125232914D01*
X137323333Y-125232914D02*
X137228095Y-125280533D01*
X138418571Y-124994819D02*
X138513809Y-124994819D01*
X138513809Y-124994819D02*
X138609047Y-125042438D01*
X138609047Y-125042438D02*
X138656666Y-125090057D01*
X138656666Y-125090057D02*
X138704285Y-125185295D01*
X138704285Y-125185295D02*
X138751904Y-125375771D01*
X138751904Y-125375771D02*
X138751904Y-125613866D01*
X138751904Y-125613866D02*
X138704285Y-125804342D01*
X138704285Y-125804342D02*
X138656666Y-125899580D01*
X138656666Y-125899580D02*
X138609047Y-125947200D01*
X138609047Y-125947200D02*
X138513809Y-125994819D01*
X138513809Y-125994819D02*
X138418571Y-125994819D01*
X138418571Y-125994819D02*
X138323333Y-125947200D01*
X138323333Y-125947200D02*
X138275714Y-125899580D01*
X138275714Y-125899580D02*
X138228095Y-125804342D01*
X138228095Y-125804342D02*
X138180476Y-125613866D01*
X138180476Y-125613866D02*
X138180476Y-125375771D01*
X138180476Y-125375771D02*
X138228095Y-125185295D01*
X138228095Y-125185295D02*
X138275714Y-125090057D01*
X138275714Y-125090057D02*
X138323333Y-125042438D01*
X138323333Y-125042438D02*
X138418571Y-124994819D01*
X123984742Y-86637580D02*
X123937123Y-86685200D01*
X123937123Y-86685200D02*
X123794266Y-86732819D01*
X123794266Y-86732819D02*
X123699028Y-86732819D01*
X123699028Y-86732819D02*
X123556171Y-86685200D01*
X123556171Y-86685200D02*
X123460933Y-86589961D01*
X123460933Y-86589961D02*
X123413314Y-86494723D01*
X123413314Y-86494723D02*
X123365695Y-86304247D01*
X123365695Y-86304247D02*
X123365695Y-86161390D01*
X123365695Y-86161390D02*
X123413314Y-85970914D01*
X123413314Y-85970914D02*
X123460933Y-85875676D01*
X123460933Y-85875676D02*
X123556171Y-85780438D01*
X123556171Y-85780438D02*
X123699028Y-85732819D01*
X123699028Y-85732819D02*
X123794266Y-85732819D01*
X123794266Y-85732819D02*
X123937123Y-85780438D01*
X123937123Y-85780438D02*
X123984742Y-85828057D01*
X124937123Y-86732819D02*
X124365695Y-86732819D01*
X124651409Y-86732819D02*
X124651409Y-85732819D01*
X124651409Y-85732819D02*
X124556171Y-85875676D01*
X124556171Y-85875676D02*
X124460933Y-85970914D01*
X124460933Y-85970914D02*
X124365695Y-86018533D01*
X125270457Y-85732819D02*
X125889504Y-85732819D01*
X125889504Y-85732819D02*
X125556171Y-86113771D01*
X125556171Y-86113771D02*
X125699028Y-86113771D01*
X125699028Y-86113771D02*
X125794266Y-86161390D01*
X125794266Y-86161390D02*
X125841885Y-86209009D01*
X125841885Y-86209009D02*
X125889504Y-86304247D01*
X125889504Y-86304247D02*
X125889504Y-86542342D01*
X125889504Y-86542342D02*
X125841885Y-86637580D01*
X125841885Y-86637580D02*
X125794266Y-86685200D01*
X125794266Y-86685200D02*
X125699028Y-86732819D01*
X125699028Y-86732819D02*
X125413314Y-86732819D01*
X125413314Y-86732819D02*
X125318076Y-86685200D01*
X125318076Y-86685200D02*
X125270457Y-86637580D01*
X117797456Y-75849208D02*
X117797456Y-76658731D01*
X117797456Y-76658731D02*
X117845075Y-76753969D01*
X117845075Y-76753969D02*
X117892694Y-76801589D01*
X117892694Y-76801589D02*
X117987932Y-76849208D01*
X117987932Y-76849208D02*
X118178408Y-76849208D01*
X118178408Y-76849208D02*
X118273646Y-76801589D01*
X118273646Y-76801589D02*
X118321265Y-76753969D01*
X118321265Y-76753969D02*
X118368884Y-76658731D01*
X118368884Y-76658731D02*
X118368884Y-75849208D01*
X118749837Y-75849208D02*
X119416503Y-75849208D01*
X119416503Y-75849208D02*
X118987932Y-76849208D01*
X110401009Y-124173333D02*
X110401009Y-124506666D01*
X110924819Y-124506666D02*
X109924819Y-124506666D01*
X109924819Y-124506666D02*
X109924819Y-124030476D01*
X110020057Y-123697142D02*
X109972438Y-123649523D01*
X109972438Y-123649523D02*
X109924819Y-123554285D01*
X109924819Y-123554285D02*
X109924819Y-123316190D01*
X109924819Y-123316190D02*
X109972438Y-123220952D01*
X109972438Y-123220952D02*
X110020057Y-123173333D01*
X110020057Y-123173333D02*
X110115295Y-123125714D01*
X110115295Y-123125714D02*
X110210533Y-123125714D01*
X110210533Y-123125714D02*
X110353390Y-123173333D01*
X110353390Y-123173333D02*
X110924819Y-123744761D01*
X110924819Y-123744761D02*
X110924819Y-123125714D01*
X132633333Y-88759580D02*
X132585714Y-88807200D01*
X132585714Y-88807200D02*
X132442857Y-88854819D01*
X132442857Y-88854819D02*
X132347619Y-88854819D01*
X132347619Y-88854819D02*
X132204762Y-88807200D01*
X132204762Y-88807200D02*
X132109524Y-88711961D01*
X132109524Y-88711961D02*
X132061905Y-88616723D01*
X132061905Y-88616723D02*
X132014286Y-88426247D01*
X132014286Y-88426247D02*
X132014286Y-88283390D01*
X132014286Y-88283390D02*
X132061905Y-88092914D01*
X132061905Y-88092914D02*
X132109524Y-87997676D01*
X132109524Y-87997676D02*
X132204762Y-87902438D01*
X132204762Y-87902438D02*
X132347619Y-87854819D01*
X132347619Y-87854819D02*
X132442857Y-87854819D01*
X132442857Y-87854819D02*
X132585714Y-87902438D01*
X132585714Y-87902438D02*
X132633333Y-87950057D01*
X133585714Y-88854819D02*
X133014286Y-88854819D01*
X133300000Y-88854819D02*
X133300000Y-87854819D01*
X133300000Y-87854819D02*
X133204762Y-87997676D01*
X133204762Y-87997676D02*
X133109524Y-88092914D01*
X133109524Y-88092914D02*
X133014286Y-88140533D01*
X138297142Y-106534819D02*
X137963809Y-106058628D01*
X137725714Y-106534819D02*
X137725714Y-105534819D01*
X137725714Y-105534819D02*
X138106666Y-105534819D01*
X138106666Y-105534819D02*
X138201904Y-105582438D01*
X138201904Y-105582438D02*
X138249523Y-105630057D01*
X138249523Y-105630057D02*
X138297142Y-105725295D01*
X138297142Y-105725295D02*
X138297142Y-105868152D01*
X138297142Y-105868152D02*
X138249523Y-105963390D01*
X138249523Y-105963390D02*
X138201904Y-106011009D01*
X138201904Y-106011009D02*
X138106666Y-106058628D01*
X138106666Y-106058628D02*
X137725714Y-106058628D01*
X139249523Y-106534819D02*
X138678095Y-106534819D01*
X138963809Y-106534819D02*
X138963809Y-105534819D01*
X138963809Y-105534819D02*
X138868571Y-105677676D01*
X138868571Y-105677676D02*
X138773333Y-105772914D01*
X138773333Y-105772914D02*
X138678095Y-105820533D01*
X140154285Y-105534819D02*
X139678095Y-105534819D01*
X139678095Y-105534819D02*
X139630476Y-106011009D01*
X139630476Y-106011009D02*
X139678095Y-105963390D01*
X139678095Y-105963390D02*
X139773333Y-105915771D01*
X139773333Y-105915771D02*
X140011428Y-105915771D01*
X140011428Y-105915771D02*
X140106666Y-105963390D01*
X140106666Y-105963390D02*
X140154285Y-106011009D01*
X140154285Y-106011009D02*
X140201904Y-106106247D01*
X140201904Y-106106247D02*
X140201904Y-106344342D01*
X140201904Y-106344342D02*
X140154285Y-106439580D01*
X140154285Y-106439580D02*
X140106666Y-106487200D01*
X140106666Y-106487200D02*
X140011428Y-106534819D01*
X140011428Y-106534819D02*
X139773333Y-106534819D01*
X139773333Y-106534819D02*
X139678095Y-106487200D01*
X139678095Y-106487200D02*
X139630476Y-106439580D01*
X113953333Y-92169580D02*
X113905714Y-92217200D01*
X113905714Y-92217200D02*
X113762857Y-92264819D01*
X113762857Y-92264819D02*
X113667619Y-92264819D01*
X113667619Y-92264819D02*
X113524762Y-92217200D01*
X113524762Y-92217200D02*
X113429524Y-92121961D01*
X113429524Y-92121961D02*
X113381905Y-92026723D01*
X113381905Y-92026723D02*
X113334286Y-91836247D01*
X113334286Y-91836247D02*
X113334286Y-91693390D01*
X113334286Y-91693390D02*
X113381905Y-91502914D01*
X113381905Y-91502914D02*
X113429524Y-91407676D01*
X113429524Y-91407676D02*
X113524762Y-91312438D01*
X113524762Y-91312438D02*
X113667619Y-91264819D01*
X113667619Y-91264819D02*
X113762857Y-91264819D01*
X113762857Y-91264819D02*
X113905714Y-91312438D01*
X113905714Y-91312438D02*
X113953333Y-91360057D01*
X114286667Y-91264819D02*
X114953333Y-91264819D01*
X114953333Y-91264819D02*
X114524762Y-92264819D01*
X124694642Y-95938419D02*
X124361309Y-95462228D01*
X124123214Y-95938419D02*
X124123214Y-94938419D01*
X124123214Y-94938419D02*
X124504166Y-94938419D01*
X124504166Y-94938419D02*
X124599404Y-94986038D01*
X124599404Y-94986038D02*
X124647023Y-95033657D01*
X124647023Y-95033657D02*
X124694642Y-95128895D01*
X124694642Y-95128895D02*
X124694642Y-95271752D01*
X124694642Y-95271752D02*
X124647023Y-95366990D01*
X124647023Y-95366990D02*
X124599404Y-95414609D01*
X124599404Y-95414609D02*
X124504166Y-95462228D01*
X124504166Y-95462228D02*
X124123214Y-95462228D01*
X125075595Y-95033657D02*
X125123214Y-94986038D01*
X125123214Y-94986038D02*
X125218452Y-94938419D01*
X125218452Y-94938419D02*
X125456547Y-94938419D01*
X125456547Y-94938419D02*
X125551785Y-94986038D01*
X125551785Y-94986038D02*
X125599404Y-95033657D01*
X125599404Y-95033657D02*
X125647023Y-95128895D01*
X125647023Y-95128895D02*
X125647023Y-95224133D01*
X125647023Y-95224133D02*
X125599404Y-95366990D01*
X125599404Y-95366990D02*
X125027976Y-95938419D01*
X125027976Y-95938419D02*
X125647023Y-95938419D01*
X125980357Y-94938419D02*
X126599404Y-94938419D01*
X126599404Y-94938419D02*
X126266071Y-95319371D01*
X126266071Y-95319371D02*
X126408928Y-95319371D01*
X126408928Y-95319371D02*
X126504166Y-95366990D01*
X126504166Y-95366990D02*
X126551785Y-95414609D01*
X126551785Y-95414609D02*
X126599404Y-95509847D01*
X126599404Y-95509847D02*
X126599404Y-95747942D01*
X126599404Y-95747942D02*
X126551785Y-95843180D01*
X126551785Y-95843180D02*
X126504166Y-95890800D01*
X126504166Y-95890800D02*
X126408928Y-95938419D01*
X126408928Y-95938419D02*
X126123214Y-95938419D01*
X126123214Y-95938419D02*
X126027976Y-95890800D01*
X126027976Y-95890800D02*
X125980357Y-95843180D01*
X123767242Y-121517219D02*
X123433909Y-121041028D01*
X123195814Y-121517219D02*
X123195814Y-120517219D01*
X123195814Y-120517219D02*
X123576766Y-120517219D01*
X123576766Y-120517219D02*
X123672004Y-120564838D01*
X123672004Y-120564838D02*
X123719623Y-120612457D01*
X123719623Y-120612457D02*
X123767242Y-120707695D01*
X123767242Y-120707695D02*
X123767242Y-120850552D01*
X123767242Y-120850552D02*
X123719623Y-120945790D01*
X123719623Y-120945790D02*
X123672004Y-120993409D01*
X123672004Y-120993409D02*
X123576766Y-121041028D01*
X123576766Y-121041028D02*
X123195814Y-121041028D01*
X124148195Y-120612457D02*
X124195814Y-120564838D01*
X124195814Y-120564838D02*
X124291052Y-120517219D01*
X124291052Y-120517219D02*
X124529147Y-120517219D01*
X124529147Y-120517219D02*
X124624385Y-120564838D01*
X124624385Y-120564838D02*
X124672004Y-120612457D01*
X124672004Y-120612457D02*
X124719623Y-120707695D01*
X124719623Y-120707695D02*
X124719623Y-120802933D01*
X124719623Y-120802933D02*
X124672004Y-120945790D01*
X124672004Y-120945790D02*
X124100576Y-121517219D01*
X124100576Y-121517219D02*
X124719623Y-121517219D01*
X125624385Y-120517219D02*
X125148195Y-120517219D01*
X125148195Y-120517219D02*
X125100576Y-120993409D01*
X125100576Y-120993409D02*
X125148195Y-120945790D01*
X125148195Y-120945790D02*
X125243433Y-120898171D01*
X125243433Y-120898171D02*
X125481528Y-120898171D01*
X125481528Y-120898171D02*
X125576766Y-120945790D01*
X125576766Y-120945790D02*
X125624385Y-120993409D01*
X125624385Y-120993409D02*
X125672004Y-121088647D01*
X125672004Y-121088647D02*
X125672004Y-121326742D01*
X125672004Y-121326742D02*
X125624385Y-121421980D01*
X125624385Y-121421980D02*
X125576766Y-121469600D01*
X125576766Y-121469600D02*
X125481528Y-121517219D01*
X125481528Y-121517219D02*
X125243433Y-121517219D01*
X125243433Y-121517219D02*
X125148195Y-121469600D01*
X125148195Y-121469600D02*
X125100576Y-121421980D01*
X121308095Y-110523019D02*
X121308095Y-111332542D01*
X121308095Y-111332542D02*
X121355714Y-111427780D01*
X121355714Y-111427780D02*
X121403333Y-111475400D01*
X121403333Y-111475400D02*
X121498571Y-111523019D01*
X121498571Y-111523019D02*
X121689047Y-111523019D01*
X121689047Y-111523019D02*
X121784285Y-111475400D01*
X121784285Y-111475400D02*
X121831904Y-111427780D01*
X121831904Y-111427780D02*
X121879523Y-111332542D01*
X121879523Y-111332542D02*
X121879523Y-110523019D01*
X122403333Y-111523019D02*
X122593809Y-111523019D01*
X122593809Y-111523019D02*
X122689047Y-111475400D01*
X122689047Y-111475400D02*
X122736666Y-111427780D01*
X122736666Y-111427780D02*
X122831904Y-111284923D01*
X122831904Y-111284923D02*
X122879523Y-111094447D01*
X122879523Y-111094447D02*
X122879523Y-110713495D01*
X122879523Y-110713495D02*
X122831904Y-110618257D01*
X122831904Y-110618257D02*
X122784285Y-110570638D01*
X122784285Y-110570638D02*
X122689047Y-110523019D01*
X122689047Y-110523019D02*
X122498571Y-110523019D01*
X122498571Y-110523019D02*
X122403333Y-110570638D01*
X122403333Y-110570638D02*
X122355714Y-110618257D01*
X122355714Y-110618257D02*
X122308095Y-110713495D01*
X122308095Y-110713495D02*
X122308095Y-110951590D01*
X122308095Y-110951590D02*
X122355714Y-111046828D01*
X122355714Y-111046828D02*
X122403333Y-111094447D01*
X122403333Y-111094447D02*
X122498571Y-111142066D01*
X122498571Y-111142066D02*
X122689047Y-111142066D01*
X122689047Y-111142066D02*
X122784285Y-111094447D01*
X122784285Y-111094447D02*
X122831904Y-111046828D01*
X122831904Y-111046828D02*
X122879523Y-110951590D01*
X113566673Y-85934019D02*
X113566673Y-86743542D01*
X113566673Y-86743542D02*
X113614292Y-86838780D01*
X113614292Y-86838780D02*
X113661911Y-86886400D01*
X113661911Y-86886400D02*
X113757149Y-86934019D01*
X113757149Y-86934019D02*
X113947625Y-86934019D01*
X113947625Y-86934019D02*
X114042863Y-86886400D01*
X114042863Y-86886400D02*
X114090482Y-86838780D01*
X114090482Y-86838780D02*
X114138101Y-86743542D01*
X114138101Y-86743542D02*
X114138101Y-85934019D01*
X115042863Y-85934019D02*
X114852387Y-85934019D01*
X114852387Y-85934019D02*
X114757149Y-85981638D01*
X114757149Y-85981638D02*
X114709530Y-86029257D01*
X114709530Y-86029257D02*
X114614292Y-86172114D01*
X114614292Y-86172114D02*
X114566673Y-86362590D01*
X114566673Y-86362590D02*
X114566673Y-86743542D01*
X114566673Y-86743542D02*
X114614292Y-86838780D01*
X114614292Y-86838780D02*
X114661911Y-86886400D01*
X114661911Y-86886400D02*
X114757149Y-86934019D01*
X114757149Y-86934019D02*
X114947625Y-86934019D01*
X114947625Y-86934019D02*
X115042863Y-86886400D01*
X115042863Y-86886400D02*
X115090482Y-86838780D01*
X115090482Y-86838780D02*
X115138101Y-86743542D01*
X115138101Y-86743542D02*
X115138101Y-86505447D01*
X115138101Y-86505447D02*
X115090482Y-86410209D01*
X115090482Y-86410209D02*
X115042863Y-86362590D01*
X115042863Y-86362590D02*
X114947625Y-86314971D01*
X114947625Y-86314971D02*
X114757149Y-86314971D01*
X114757149Y-86314971D02*
X114661911Y-86362590D01*
X114661911Y-86362590D02*
X114614292Y-86410209D01*
X114614292Y-86410209D02*
X114566673Y-86505447D01*
X126127791Y-91811946D02*
X126175411Y-91859565D01*
X126175411Y-91859565D02*
X126223030Y-92002422D01*
X126223030Y-92002422D02*
X126223030Y-92097660D01*
X126223030Y-92097660D02*
X126175411Y-92240517D01*
X126175411Y-92240517D02*
X126080172Y-92335755D01*
X126080172Y-92335755D02*
X125984934Y-92383374D01*
X125984934Y-92383374D02*
X125794458Y-92430993D01*
X125794458Y-92430993D02*
X125651601Y-92430993D01*
X125651601Y-92430993D02*
X125461125Y-92383374D01*
X125461125Y-92383374D02*
X125365887Y-92335755D01*
X125365887Y-92335755D02*
X125270649Y-92240517D01*
X125270649Y-92240517D02*
X125223030Y-92097660D01*
X125223030Y-92097660D02*
X125223030Y-92002422D01*
X125223030Y-92002422D02*
X125270649Y-91859565D01*
X125270649Y-91859565D02*
X125318268Y-91811946D01*
X126223030Y-90859565D02*
X126223030Y-91430993D01*
X126223030Y-91145279D02*
X125223030Y-91145279D01*
X125223030Y-91145279D02*
X125365887Y-91240517D01*
X125365887Y-91240517D02*
X125461125Y-91335755D01*
X125461125Y-91335755D02*
X125508744Y-91430993D01*
X125556363Y-90002422D02*
X126223030Y-90002422D01*
X125175411Y-90240517D02*
X125889696Y-90478612D01*
X125889696Y-90478612D02*
X125889696Y-89859565D01*
X127394819Y-82642857D02*
X126918628Y-82976190D01*
X127394819Y-83214285D02*
X126394819Y-83214285D01*
X126394819Y-83214285D02*
X126394819Y-82833333D01*
X126394819Y-82833333D02*
X126442438Y-82738095D01*
X126442438Y-82738095D02*
X126490057Y-82690476D01*
X126490057Y-82690476D02*
X126585295Y-82642857D01*
X126585295Y-82642857D02*
X126728152Y-82642857D01*
X126728152Y-82642857D02*
X126823390Y-82690476D01*
X126823390Y-82690476D02*
X126871009Y-82738095D01*
X126871009Y-82738095D02*
X126918628Y-82833333D01*
X126918628Y-82833333D02*
X126918628Y-83214285D01*
X126490057Y-82261904D02*
X126442438Y-82214285D01*
X126442438Y-82214285D02*
X126394819Y-82119047D01*
X126394819Y-82119047D02*
X126394819Y-81880952D01*
X126394819Y-81880952D02*
X126442438Y-81785714D01*
X126442438Y-81785714D02*
X126490057Y-81738095D01*
X126490057Y-81738095D02*
X126585295Y-81690476D01*
X126585295Y-81690476D02*
X126680533Y-81690476D01*
X126680533Y-81690476D02*
X126823390Y-81738095D01*
X126823390Y-81738095D02*
X127394819Y-82309523D01*
X127394819Y-82309523D02*
X127394819Y-81690476D01*
X127394819Y-81214285D02*
X127394819Y-81023809D01*
X127394819Y-81023809D02*
X127347200Y-80928571D01*
X127347200Y-80928571D02*
X127299580Y-80880952D01*
X127299580Y-80880952D02*
X127156723Y-80785714D01*
X127156723Y-80785714D02*
X126966247Y-80738095D01*
X126966247Y-80738095D02*
X126585295Y-80738095D01*
X126585295Y-80738095D02*
X126490057Y-80785714D01*
X126490057Y-80785714D02*
X126442438Y-80833333D01*
X126442438Y-80833333D02*
X126394819Y-80928571D01*
X126394819Y-80928571D02*
X126394819Y-81119047D01*
X126394819Y-81119047D02*
X126442438Y-81214285D01*
X126442438Y-81214285D02*
X126490057Y-81261904D01*
X126490057Y-81261904D02*
X126585295Y-81309523D01*
X126585295Y-81309523D02*
X126823390Y-81309523D01*
X126823390Y-81309523D02*
X126918628Y-81261904D01*
X126918628Y-81261904D02*
X126966247Y-81214285D01*
X126966247Y-81214285D02*
X127013866Y-81119047D01*
X127013866Y-81119047D02*
X127013866Y-80928571D01*
X127013866Y-80928571D02*
X126966247Y-80833333D01*
X126966247Y-80833333D02*
X126918628Y-80785714D01*
X126918628Y-80785714D02*
X126823390Y-80738095D01*
X127009580Y-76506666D02*
X127057200Y-76554285D01*
X127057200Y-76554285D02*
X127104819Y-76697142D01*
X127104819Y-76697142D02*
X127104819Y-76792380D01*
X127104819Y-76792380D02*
X127057200Y-76935237D01*
X127057200Y-76935237D02*
X126961961Y-77030475D01*
X126961961Y-77030475D02*
X126866723Y-77078094D01*
X126866723Y-77078094D02*
X126676247Y-77125713D01*
X126676247Y-77125713D02*
X126533390Y-77125713D01*
X126533390Y-77125713D02*
X126342914Y-77078094D01*
X126342914Y-77078094D02*
X126247676Y-77030475D01*
X126247676Y-77030475D02*
X126152438Y-76935237D01*
X126152438Y-76935237D02*
X126104819Y-76792380D01*
X126104819Y-76792380D02*
X126104819Y-76697142D01*
X126104819Y-76697142D02*
X126152438Y-76554285D01*
X126152438Y-76554285D02*
X126200057Y-76506666D01*
X127104819Y-76030475D02*
X127104819Y-75839999D01*
X127104819Y-75839999D02*
X127057200Y-75744761D01*
X127057200Y-75744761D02*
X127009580Y-75697142D01*
X127009580Y-75697142D02*
X126866723Y-75601904D01*
X126866723Y-75601904D02*
X126676247Y-75554285D01*
X126676247Y-75554285D02*
X126295295Y-75554285D01*
X126295295Y-75554285D02*
X126200057Y-75601904D01*
X126200057Y-75601904D02*
X126152438Y-75649523D01*
X126152438Y-75649523D02*
X126104819Y-75744761D01*
X126104819Y-75744761D02*
X126104819Y-75935237D01*
X126104819Y-75935237D02*
X126152438Y-76030475D01*
X126152438Y-76030475D02*
X126200057Y-76078094D01*
X126200057Y-76078094D02*
X126295295Y-76125713D01*
X126295295Y-76125713D02*
X126533390Y-76125713D01*
X126533390Y-76125713D02*
X126628628Y-76078094D01*
X126628628Y-76078094D02*
X126676247Y-76030475D01*
X126676247Y-76030475D02*
X126723866Y-75935237D01*
X126723866Y-75935237D02*
X126723866Y-75744761D01*
X126723866Y-75744761D02*
X126676247Y-75649523D01*
X126676247Y-75649523D02*
X126628628Y-75601904D01*
X126628628Y-75601904D02*
X126533390Y-75554285D01*
X142777142Y-97844819D02*
X142443809Y-97368628D01*
X142205714Y-97844819D02*
X142205714Y-96844819D01*
X142205714Y-96844819D02*
X142586666Y-96844819D01*
X142586666Y-96844819D02*
X142681904Y-96892438D01*
X142681904Y-96892438D02*
X142729523Y-96940057D01*
X142729523Y-96940057D02*
X142777142Y-97035295D01*
X142777142Y-97035295D02*
X142777142Y-97178152D01*
X142777142Y-97178152D02*
X142729523Y-97273390D01*
X142729523Y-97273390D02*
X142681904Y-97321009D01*
X142681904Y-97321009D02*
X142586666Y-97368628D01*
X142586666Y-97368628D02*
X142205714Y-97368628D01*
X143729523Y-97844819D02*
X143158095Y-97844819D01*
X143443809Y-97844819D02*
X143443809Y-96844819D01*
X143443809Y-96844819D02*
X143348571Y-96987676D01*
X143348571Y-96987676D02*
X143253333Y-97082914D01*
X143253333Y-97082914D02*
X143158095Y-97130533D01*
X144110476Y-96940057D02*
X144158095Y-96892438D01*
X144158095Y-96892438D02*
X144253333Y-96844819D01*
X144253333Y-96844819D02*
X144491428Y-96844819D01*
X144491428Y-96844819D02*
X144586666Y-96892438D01*
X144586666Y-96892438D02*
X144634285Y-96940057D01*
X144634285Y-96940057D02*
X144681904Y-97035295D01*
X144681904Y-97035295D02*
X144681904Y-97130533D01*
X144681904Y-97130533D02*
X144634285Y-97273390D01*
X144634285Y-97273390D02*
X144062857Y-97844819D01*
X144062857Y-97844819D02*
X144681904Y-97844819D01*
X142817142Y-122004819D02*
X142483809Y-121528628D01*
X142245714Y-122004819D02*
X142245714Y-121004819D01*
X142245714Y-121004819D02*
X142626666Y-121004819D01*
X142626666Y-121004819D02*
X142721904Y-121052438D01*
X142721904Y-121052438D02*
X142769523Y-121100057D01*
X142769523Y-121100057D02*
X142817142Y-121195295D01*
X142817142Y-121195295D02*
X142817142Y-121338152D01*
X142817142Y-121338152D02*
X142769523Y-121433390D01*
X142769523Y-121433390D02*
X142721904Y-121481009D01*
X142721904Y-121481009D02*
X142626666Y-121528628D01*
X142626666Y-121528628D02*
X142245714Y-121528628D01*
X143674285Y-121338152D02*
X143674285Y-122004819D01*
X143436190Y-120957200D02*
X143198095Y-121671485D01*
X143198095Y-121671485D02*
X143817142Y-121671485D01*
X144150476Y-121100057D02*
X144198095Y-121052438D01*
X144198095Y-121052438D02*
X144293333Y-121004819D01*
X144293333Y-121004819D02*
X144531428Y-121004819D01*
X144531428Y-121004819D02*
X144626666Y-121052438D01*
X144626666Y-121052438D02*
X144674285Y-121100057D01*
X144674285Y-121100057D02*
X144721904Y-121195295D01*
X144721904Y-121195295D02*
X144721904Y-121290533D01*
X144721904Y-121290533D02*
X144674285Y-121433390D01*
X144674285Y-121433390D02*
X144102857Y-122004819D01*
X144102857Y-122004819D02*
X144721904Y-122004819D01*
X123217142Y-80324819D02*
X122883809Y-79848628D01*
X122645714Y-80324819D02*
X122645714Y-79324819D01*
X122645714Y-79324819D02*
X123026666Y-79324819D01*
X123026666Y-79324819D02*
X123121904Y-79372438D01*
X123121904Y-79372438D02*
X123169523Y-79420057D01*
X123169523Y-79420057D02*
X123217142Y-79515295D01*
X123217142Y-79515295D02*
X123217142Y-79658152D01*
X123217142Y-79658152D02*
X123169523Y-79753390D01*
X123169523Y-79753390D02*
X123121904Y-79801009D01*
X123121904Y-79801009D02*
X123026666Y-79848628D01*
X123026666Y-79848628D02*
X122645714Y-79848628D01*
X123598095Y-79420057D02*
X123645714Y-79372438D01*
X123645714Y-79372438D02*
X123740952Y-79324819D01*
X123740952Y-79324819D02*
X123979047Y-79324819D01*
X123979047Y-79324819D02*
X124074285Y-79372438D01*
X124074285Y-79372438D02*
X124121904Y-79420057D01*
X124121904Y-79420057D02*
X124169523Y-79515295D01*
X124169523Y-79515295D02*
X124169523Y-79610533D01*
X124169523Y-79610533D02*
X124121904Y-79753390D01*
X124121904Y-79753390D02*
X123550476Y-80324819D01*
X123550476Y-80324819D02*
X124169523Y-80324819D01*
X124740952Y-79753390D02*
X124645714Y-79705771D01*
X124645714Y-79705771D02*
X124598095Y-79658152D01*
X124598095Y-79658152D02*
X124550476Y-79562914D01*
X124550476Y-79562914D02*
X124550476Y-79515295D01*
X124550476Y-79515295D02*
X124598095Y-79420057D01*
X124598095Y-79420057D02*
X124645714Y-79372438D01*
X124645714Y-79372438D02*
X124740952Y-79324819D01*
X124740952Y-79324819D02*
X124931428Y-79324819D01*
X124931428Y-79324819D02*
X125026666Y-79372438D01*
X125026666Y-79372438D02*
X125074285Y-79420057D01*
X125074285Y-79420057D02*
X125121904Y-79515295D01*
X125121904Y-79515295D02*
X125121904Y-79562914D01*
X125121904Y-79562914D02*
X125074285Y-79658152D01*
X125074285Y-79658152D02*
X125026666Y-79705771D01*
X125026666Y-79705771D02*
X124931428Y-79753390D01*
X124931428Y-79753390D02*
X124740952Y-79753390D01*
X124740952Y-79753390D02*
X124645714Y-79801009D01*
X124645714Y-79801009D02*
X124598095Y-79848628D01*
X124598095Y-79848628D02*
X124550476Y-79943866D01*
X124550476Y-79943866D02*
X124550476Y-80134342D01*
X124550476Y-80134342D02*
X124598095Y-80229580D01*
X124598095Y-80229580D02*
X124645714Y-80277200D01*
X124645714Y-80277200D02*
X124740952Y-80324819D01*
X124740952Y-80324819D02*
X124931428Y-80324819D01*
X124931428Y-80324819D02*
X125026666Y-80277200D01*
X125026666Y-80277200D02*
X125074285Y-80229580D01*
X125074285Y-80229580D02*
X125121904Y-80134342D01*
X125121904Y-80134342D02*
X125121904Y-79943866D01*
X125121904Y-79943866D02*
X125074285Y-79848628D01*
X125074285Y-79848628D02*
X125026666Y-79801009D01*
X125026666Y-79801009D02*
X124931428Y-79753390D01*
D11*
X112302064Y-94890000D02*
X111097936Y-94890000D01*
X112302064Y-96710000D02*
X111097936Y-96710000D01*
X113802964Y-108132200D02*
X112598836Y-108132200D01*
X113802964Y-109952200D02*
X112598836Y-109952200D01*
X113912600Y-99547200D02*
X113912600Y-103307200D01*
X113912600Y-103307200D02*
X115172600Y-103307200D01*
X120732600Y-99547200D02*
X120732600Y-103307200D01*
X120732600Y-103307200D02*
X119472600Y-103307200D01*
X120962600Y-98507200D02*
X120632600Y-98267200D01*
X120962600Y-98027200D01*
X120962600Y-98507200D01*
G36*
X120962600Y-98507200D02*
G01*
X120632600Y-98267200D01*
X120962600Y-98027200D01*
X120962600Y-98507200D01*
G37*
X135973160Y-113120900D02*
X138513160Y-115660900D01*
X136735160Y-108802900D02*
X136735160Y-112104900D01*
X138513160Y-115660900D02*
X141053160Y-113120900D01*
X140291160Y-108802900D02*
X136735160Y-108802900D01*
X140291160Y-112104900D02*
X140291160Y-108802900D01*
X141053160Y-113120900D02*
X135973160Y-113120900D01*
X148696660Y-124104400D02*
G75*
G02*
X145696660Y-124104400I-1500000J0D01*
G01*
X145696660Y-124104400D02*
G75*
G02*
X148696660Y-124104400I1500000J0D01*
G01*
X112037652Y-97537200D02*
X111515148Y-97537200D01*
X112037652Y-98957200D02*
X111515148Y-98957200D01*
X113824652Y-106147800D02*
X113302148Y-106147800D01*
X113824652Y-107567800D02*
X113302148Y-107567800D01*
X110999200Y-112563652D02*
X110999200Y-112041148D01*
X112419200Y-112563652D02*
X112419200Y-112041148D01*
X136589012Y-89823600D02*
X136066508Y-89823600D01*
X136589012Y-91243600D02*
X136066508Y-91243600D01*
X110110000Y-121461000D02*
X110110000Y-115951000D01*
X110110000Y-121461000D02*
X113410000Y-121461000D01*
X113410000Y-121461000D02*
X113410000Y-115951000D01*
X143564724Y-112797500D02*
X143055276Y-112797500D01*
X143564724Y-113842500D02*
X143055276Y-113842500D01*
X111477976Y-75377500D02*
X111987424Y-75377500D01*
X111477976Y-76422500D02*
X111987424Y-76422500D01*
X111477976Y-81748100D02*
X111987424Y-81748100D01*
X111477976Y-82793100D02*
X111987424Y-82793100D01*
X115063176Y-117477500D02*
X115572624Y-117477500D01*
X115063176Y-118522500D02*
X115572624Y-118522500D01*
X115063176Y-114298700D02*
X115572624Y-114298700D01*
X115063176Y-115343700D02*
X115572624Y-115343700D01*
X111965824Y-100772700D02*
X111456376Y-100772700D01*
X111965824Y-101817700D02*
X111456376Y-101817700D01*
X131575000Y-74395000D02*
X131575000Y-76855000D01*
X133045000Y-74395000D02*
X131575000Y-74395000D01*
X133045000Y-76855000D02*
X133045000Y-74395000D01*
X111501476Y-85075500D02*
X112010924Y-85075500D01*
X111501476Y-86120500D02*
X112010924Y-86120500D01*
X115063176Y-111047500D02*
X115572624Y-111047500D01*
X115063176Y-112092500D02*
X115572624Y-112092500D01*
X115063176Y-115877500D02*
X115572624Y-115877500D01*
X115063176Y-116922500D02*
X115572624Y-116922500D01*
X133863752Y-123130000D02*
X133341248Y-123130000D01*
X133863752Y-124550000D02*
X133341248Y-124550000D01*
X111477976Y-78542550D02*
X111987424Y-78542550D01*
X111477976Y-79587550D02*
X111987424Y-79587550D01*
X110059800Y-102959000D02*
X110059800Y-105419000D01*
X110059800Y-105419000D02*
X111529800Y-105419000D01*
X111529800Y-105419000D02*
X111529800Y-102959000D01*
X136830000Y-115825000D02*
X134630000Y-115825000D01*
X136830000Y-115825000D02*
X139030000Y-115825000D01*
X136830000Y-122595000D02*
X134630000Y-122595000D01*
X136830000Y-122595000D02*
X139030000Y-122595000D01*
X141020000Y-122375000D02*
X140690000Y-122135000D01*
X141020000Y-121895000D01*
X141020000Y-122375000D01*
G36*
X141020000Y-122375000D02*
G01*
X140690000Y-122135000D01*
X141020000Y-121895000D01*
X141020000Y-122375000D01*
G37*
X143682224Y-100707500D02*
X143172776Y-100707500D01*
X143682224Y-101752500D02*
X143172776Y-101752500D01*
X143712224Y-115927500D02*
X143202776Y-115927500D01*
X143712224Y-116972500D02*
X143202776Y-116972500D01*
X111477976Y-80135200D02*
X111987424Y-80135200D01*
X111477976Y-81180200D02*
X111987424Y-81180200D01*
X119148748Y-109475000D02*
X119671252Y-109475000D01*
X119148748Y-110945000D02*
X119671252Y-110945000D01*
X143722224Y-103027500D02*
X143212776Y-103027500D01*
X143722224Y-104072500D02*
X143212776Y-104072500D01*
X115063176Y-120826500D02*
X115572624Y-120826500D01*
X115063176Y-121871500D02*
X115572624Y-121871500D01*
X111501476Y-86727500D02*
X112010924Y-86727500D01*
X111501476Y-87772500D02*
X112010924Y-87772500D01*
X133875276Y-101927500D02*
X134384724Y-101927500D01*
X133875276Y-102972500D02*
X134384724Y-102972500D01*
X111503376Y-83424500D02*
X112012824Y-83424500D01*
X111503376Y-84469500D02*
X112012824Y-84469500D01*
X119100000Y-89940000D02*
X116900000Y-89940000D01*
X119100000Y-89940000D02*
X121300000Y-89940000D01*
X119100000Y-95160000D02*
X116900000Y-95160000D01*
X119100000Y-95160000D02*
X121300000Y-95160000D01*
X116200000Y-90140000D02*
X115960000Y-89810000D01*
X116440000Y-89810000D01*
X116200000Y-90140000D01*
G36*
X116200000Y-90140000D02*
G01*
X115960000Y-89810000D01*
X116440000Y-89810000D01*
X116200000Y-90140000D01*
G37*
X124288748Y-77515000D02*
X124811252Y-77515000D01*
X124288748Y-78985000D02*
X124811252Y-78985000D01*
X111476076Y-88402900D02*
X111985524Y-88402900D01*
X111476076Y-89447900D02*
X111985524Y-89447900D01*
X142369624Y-107757700D02*
X141860176Y-107757700D01*
X142369624Y-108802700D02*
X141860176Y-108802700D01*
X131675000Y-97665000D02*
X131675000Y-95715000D01*
X131675000Y-97665000D02*
X131675000Y-99615000D01*
X140545000Y-97665000D02*
X140545000Y-95715000D01*
X140545000Y-97665000D02*
X140545000Y-99615000D01*
X131740000Y-100365000D02*
X131410000Y-100605000D01*
X131410000Y-100125000D01*
X131740000Y-100365000D01*
G36*
X131740000Y-100365000D02*
G01*
X131410000Y-100605000D01*
X131410000Y-100125000D01*
X131740000Y-100365000D01*
G37*
D12*
X109059800Y-127012500D02*
X109059800Y-74307500D01*
D11*
X143538024Y-109967500D02*
X143028576Y-109967500D01*
X143538024Y-111012500D02*
X143028576Y-111012500D01*
X137236248Y-123115000D02*
X137758752Y-123115000D01*
X137236248Y-124585000D02*
X137758752Y-124585000D01*
X124846267Y-83990000D02*
X124553733Y-83990000D01*
X124846267Y-85010000D02*
X124553733Y-85010000D01*
X115063176Y-112622300D02*
X115572624Y-112622300D01*
X115063176Y-113667300D02*
X115572624Y-113667300D01*
X115063176Y-122452000D02*
X115572624Y-122452000D01*
X115063176Y-123497000D02*
X115572624Y-123497000D01*
X118657550Y-77420000D02*
X116457550Y-77420000D01*
X118657550Y-77420000D02*
X120857550Y-77420000D01*
X118657550Y-82640000D02*
X116457550Y-82640000D01*
X118657550Y-82640000D02*
X120857550Y-82640000D01*
X115757550Y-77620000D02*
X115517550Y-77290000D01*
X115997550Y-77290000D01*
X115757550Y-77620000D01*
G36*
X115757550Y-77620000D02*
G01*
X115517550Y-77290000D01*
X115997550Y-77290000D01*
X115757550Y-77620000D01*
G37*
X111405600Y-123589148D02*
X111405600Y-124111652D01*
X112825600Y-123589148D02*
X112825600Y-124111652D01*
X136641252Y-87690000D02*
X136118748Y-87690000D01*
X136641252Y-89110000D02*
X136118748Y-89110000D01*
X142369624Y-105522500D02*
X141860176Y-105522500D01*
X142369624Y-106567500D02*
X141860176Y-106567500D01*
X111677667Y-91311000D02*
X111385133Y-91311000D01*
X111677667Y-92331000D02*
X111385133Y-92331000D01*
X115063176Y-124077500D02*
X115572624Y-124077500D01*
X115063176Y-125122500D02*
X115572624Y-125122500D01*
X125082776Y-93467500D02*
X125592224Y-93467500D01*
X125082776Y-94512500D02*
X125592224Y-94512500D01*
X124817224Y-119117500D02*
X124307776Y-119117500D01*
X124817224Y-120162500D02*
X124307776Y-120162500D01*
X122070000Y-111925000D02*
X119870000Y-111925000D01*
X122070000Y-111925000D02*
X124270000Y-111925000D01*
X122070000Y-118695000D02*
X119870000Y-118695000D01*
X122070000Y-118695000D02*
X124270000Y-118695000D01*
X126260000Y-118475000D02*
X125930000Y-118235000D01*
X126260000Y-117995000D01*
X126260000Y-118475000D01*
G36*
X126260000Y-118475000D02*
G01*
X125930000Y-118235000D01*
X126260000Y-117995000D01*
X126260000Y-118475000D01*
G37*
X119125378Y-83920000D02*
X116925378Y-83920000D01*
X119125378Y-83920000D02*
X121325378Y-83920000D01*
X119125378Y-89140000D02*
X116925378Y-89140000D01*
X119125378Y-89140000D02*
X121325378Y-89140000D01*
X116225378Y-84120000D02*
X115985378Y-83790000D01*
X116465378Y-83790000D01*
X116225378Y-84120000D01*
G36*
X116225378Y-84120000D02*
G01*
X115985378Y-83790000D01*
X116465378Y-83790000D01*
X116225378Y-84120000D01*
G37*
X120385748Y-119234800D02*
X120908252Y-119234800D01*
X120385748Y-120654800D02*
X120908252Y-120654800D01*
X123680000Y-91318767D02*
X123680000Y-91026233D01*
X124700000Y-91318767D02*
X124700000Y-91026233D01*
X111477976Y-76949900D02*
X111987424Y-76949900D01*
X111477976Y-77994900D02*
X111987424Y-77994900D01*
X124887584Y-82232308D02*
X124887584Y-81722860D01*
X125932584Y-82232308D02*
X125932584Y-81722860D01*
X115063176Y-119277500D02*
X115572624Y-119277500D01*
X115063176Y-120322500D02*
X115572624Y-120322500D01*
X124456267Y-75970000D02*
X124163733Y-75970000D01*
X124456267Y-76990000D02*
X124163733Y-76990000D01*
X143682224Y-98258100D02*
X143172776Y-98258100D01*
X143682224Y-99303100D02*
X143172776Y-99303100D01*
X143764724Y-119467500D02*
X143255276Y-119467500D01*
X143764724Y-120512500D02*
X143255276Y-120512500D01*
X123283584Y-81720960D02*
X123283584Y-82230408D01*
X124328584Y-81720960D02*
X124328584Y-82230408D01*
%LPC*%
D13*
X113187500Y-95800000D03*
X110212500Y-95800000D03*
X114688400Y-109042200D03*
X111713400Y-109042200D03*
D14*
X119622600Y-98247200D03*
X117322600Y-98247200D03*
D15*
X117322600Y-104547200D03*
D14*
X115022600Y-98247200D03*
D16*
X147196660Y-124104400D03*
D17*
X147196660Y-121564400D03*
X147196660Y-119024400D03*
X147196660Y-116484400D03*
X147196660Y-113944400D03*
X147196660Y-111404400D03*
X147196660Y-108864400D03*
X147196660Y-106324400D03*
X147196660Y-103784400D03*
X147196660Y-101244400D03*
X147196660Y-98704400D03*
X147196660Y-96164400D03*
X147196660Y-93624400D03*
X147196660Y-91084400D03*
X147196660Y-88544400D03*
X147196660Y-86004400D03*
X147196660Y-83464400D03*
X147196660Y-80924400D03*
X147196660Y-78384400D03*
X147196660Y-75844400D03*
X129416660Y-75844400D03*
X129416660Y-78384400D03*
X129416660Y-80924400D03*
X129416660Y-83464400D03*
X129416660Y-86004400D03*
X129416660Y-88544400D03*
X129416660Y-91084400D03*
X129416660Y-93624400D03*
X129416660Y-96164400D03*
X129416660Y-98704400D03*
X129416660Y-101244400D03*
X129416660Y-103784400D03*
X129416660Y-106324400D03*
X129416660Y-108864400D03*
X129416660Y-111404400D03*
X129416660Y-113944400D03*
X129416660Y-116484400D03*
X129416660Y-119024400D03*
X129416660Y-121564400D03*
X129416660Y-124104400D03*
D18*
X112801400Y-98247200D03*
X110751400Y-98247200D03*
X114588400Y-106857800D03*
X112538400Y-106857800D03*
D19*
X111709200Y-113327400D03*
X111709200Y-111277400D03*
D18*
X137352760Y-90533600D03*
X135302760Y-90533600D03*
D20*
X111760000Y-119951000D03*
X111760000Y-115951000D03*
D21*
X144222500Y-113320000D03*
X142397500Y-113320000D03*
D22*
X110820200Y-75900000D03*
X112645200Y-75900000D03*
X110820200Y-82270600D03*
X112645200Y-82270600D03*
X114405400Y-118000000D03*
X116230400Y-118000000D03*
X114405400Y-114821200D03*
X116230400Y-114821200D03*
D21*
X112623600Y-101295200D03*
X110798600Y-101295200D03*
D23*
X132310000Y-75180000D03*
X132310000Y-76930000D03*
D22*
X110843700Y-85598000D03*
X112668700Y-85598000D03*
X114405400Y-111570000D03*
X116230400Y-111570000D03*
X114405400Y-116400000D03*
X116230400Y-116400000D03*
D18*
X134627500Y-123840000D03*
X132577500Y-123840000D03*
D22*
X110820200Y-79065050D03*
X112645200Y-79065050D03*
D24*
X110794800Y-104634000D03*
X110794800Y-102884000D03*
D25*
X139692500Y-122135000D03*
X139692500Y-121485000D03*
X139692500Y-120835000D03*
X139692500Y-120185000D03*
X139692500Y-119535000D03*
X139692500Y-118885000D03*
X139692500Y-118235000D03*
X139692500Y-117585000D03*
X139692500Y-116935000D03*
X139692500Y-116285000D03*
X133967500Y-116285000D03*
X133967500Y-116935000D03*
X133967500Y-117585000D03*
X133967500Y-118235000D03*
X133967500Y-118885000D03*
X133967500Y-119535000D03*
X133967500Y-120185000D03*
X133967500Y-120835000D03*
X133967500Y-121485000D03*
X133967500Y-122135000D03*
D21*
X144340000Y-101230000D03*
X142515000Y-101230000D03*
X144370000Y-116450000D03*
X142545000Y-116450000D03*
D22*
X110820200Y-80657700D03*
X112645200Y-80657700D03*
D26*
X118372500Y-110210000D03*
X120447500Y-110210000D03*
D21*
X144380000Y-103550000D03*
X142555000Y-103550000D03*
D22*
X114405400Y-121349000D03*
X116230400Y-121349000D03*
X110843700Y-87250000D03*
X112668700Y-87250000D03*
X133217500Y-102450000D03*
X135042500Y-102450000D03*
X110845600Y-83947000D03*
X112670600Y-83947000D03*
D27*
X116237500Y-90600000D03*
X116237500Y-91250000D03*
X116237500Y-91900000D03*
X116237500Y-92550000D03*
X116237500Y-93200000D03*
X116237500Y-93850000D03*
X116237500Y-94500000D03*
X121962500Y-94500000D03*
X121962500Y-93850000D03*
X121962500Y-93200000D03*
X121962500Y-92550000D03*
X121962500Y-91900000D03*
X121962500Y-91250000D03*
X121962500Y-90600000D03*
D26*
X123512500Y-78250000D03*
X125587500Y-78250000D03*
D22*
X110818300Y-88925400D03*
X112643300Y-88925400D03*
D28*
X135425000Y-78460000D03*
X136525000Y-78460000D03*
X137625000Y-78460000D03*
X138375000Y-78460000D03*
X139075000Y-78460000D03*
X139825000Y-78460000D03*
X140925000Y-78460000D03*
X142025000Y-78460000D03*
X143125000Y-78460000D03*
D29*
X134050000Y-80100000D03*
X134050000Y-84550000D03*
X144500000Y-80100000D03*
X144500000Y-84550000D03*
D21*
X143027400Y-108280200D03*
X141202400Y-108280200D03*
D30*
X132300000Y-100140000D03*
X133570000Y-100140000D03*
X134840000Y-100140000D03*
X136110000Y-100140000D03*
X137380000Y-100140000D03*
X138650000Y-100140000D03*
X139920000Y-100140000D03*
X139920000Y-95190000D03*
X138650000Y-95190000D03*
X137380000Y-95190000D03*
X136110000Y-95190000D03*
X134840000Y-95190000D03*
X133570000Y-95190000D03*
X132300000Y-95190000D03*
D31*
X106215000Y-85420000D03*
X104310000Y-86690000D03*
X106215000Y-87960000D03*
X104310000Y-89230000D03*
X106215000Y-90500000D03*
X104310000Y-91770000D03*
X106215000Y-93040000D03*
X104310000Y-94310000D03*
X106215000Y-95580000D03*
X104310000Y-96850000D03*
X106215000Y-98120000D03*
X104310000Y-99390000D03*
X106215000Y-100660000D03*
X104310000Y-101930000D03*
X106215000Y-103200000D03*
X104310000Y-104470000D03*
X106215000Y-105740000D03*
X104310000Y-107010000D03*
X106215000Y-108280000D03*
X104310000Y-109550000D03*
X106215000Y-110820000D03*
X104310000Y-112090000D03*
X106215000Y-113360000D03*
X104310000Y-114630000D03*
X106215000Y-115900000D03*
X102405000Y-85420000D03*
X100500000Y-86690000D03*
X102405000Y-87960000D03*
X100500000Y-89230000D03*
X102405000Y-90500000D03*
X100500000Y-91770000D03*
X102405000Y-93040000D03*
X100500000Y-94310000D03*
X102405000Y-95580000D03*
X100500000Y-96850000D03*
X102405000Y-98120000D03*
X100500000Y-99390000D03*
X102405000Y-100660000D03*
X100500000Y-101930000D03*
X102405000Y-103200000D03*
X100500000Y-104470000D03*
X102405000Y-105740000D03*
X100500000Y-107010000D03*
X102405000Y-108280000D03*
X100500000Y-109550000D03*
X102405000Y-110820000D03*
X100500000Y-112090000D03*
X102405000Y-113360000D03*
X100500000Y-114630000D03*
X102405000Y-115900000D03*
D32*
X102506600Y-123901000D03*
X102506600Y-77419000D03*
D21*
X144195800Y-110490000D03*
X142370800Y-110490000D03*
D26*
X136460000Y-123850000D03*
X138535000Y-123850000D03*
D33*
X125562500Y-84500000D03*
X123837500Y-84500000D03*
D22*
X114405400Y-113144800D03*
X116230400Y-113144800D03*
X114405400Y-122974500D03*
X116230400Y-122974500D03*
D27*
X115795050Y-78080000D03*
X115795050Y-78730000D03*
X115795050Y-79380000D03*
X115795050Y-80030000D03*
X115795050Y-80680000D03*
X115795050Y-81330000D03*
X115795050Y-81980000D03*
X121520050Y-81980000D03*
X121520050Y-81330000D03*
X121520050Y-80680000D03*
X121520050Y-80030000D03*
X121520050Y-79380000D03*
X121520050Y-78730000D03*
X121520050Y-78080000D03*
D34*
X112115600Y-122825400D03*
X112115600Y-124875400D03*
D18*
X137405000Y-88400000D03*
X135355000Y-88400000D03*
D21*
X143027400Y-106045000D03*
X141202400Y-106045000D03*
D33*
X112393900Y-91821000D03*
X110668900Y-91821000D03*
D22*
X114405400Y-124600000D03*
X116230400Y-124600000D03*
X124425000Y-93990000D03*
X126250000Y-93990000D03*
D21*
X125475000Y-119640000D03*
X123650000Y-119640000D03*
D25*
X124932500Y-118235000D03*
X124932500Y-117585000D03*
X124932500Y-116935000D03*
X124932500Y-116285000D03*
X124932500Y-115635000D03*
X124932500Y-114985000D03*
X124932500Y-114335000D03*
X124932500Y-113685000D03*
X124932500Y-113035000D03*
X124932500Y-112385000D03*
X119207500Y-112385000D03*
X119207500Y-113035000D03*
X119207500Y-113685000D03*
X119207500Y-114335000D03*
X119207500Y-114985000D03*
X119207500Y-115635000D03*
X119207500Y-116285000D03*
X119207500Y-116935000D03*
X119207500Y-117585000D03*
X119207500Y-118235000D03*
D27*
X116262878Y-84580000D03*
X116262878Y-85230000D03*
X116262878Y-85880000D03*
X116262878Y-86530000D03*
X116262878Y-87180000D03*
X116262878Y-87830000D03*
X116262878Y-88480000D03*
X121987878Y-88480000D03*
X121987878Y-87830000D03*
X121987878Y-87180000D03*
X121987878Y-86530000D03*
X121987878Y-85880000D03*
X121987878Y-85230000D03*
X121987878Y-84580000D03*
D35*
X119622000Y-119944800D03*
X121672000Y-119944800D03*
D36*
X124190000Y-92035000D03*
X124190000Y-90310000D03*
D22*
X110820200Y-77472400D03*
X112645200Y-77472400D03*
D37*
X125410084Y-82890084D03*
X125410084Y-81065084D03*
D22*
X114405400Y-119800000D03*
X116230400Y-119800000D03*
D33*
X125172500Y-76480000D03*
X123447500Y-76480000D03*
D21*
X144340000Y-98780600D03*
X142515000Y-98780600D03*
X144422500Y-119990000D03*
X142597500Y-119990000D03*
D38*
X123806084Y-81063184D03*
X123806084Y-82888184D03*
%LPD*%
M02*
